%FSTAX44Y44*%
%MOMM*%
%SFA1B1*%

%IPPOS*%
%ADD22C,0.253999*%
%ADD23C,0.200000*%
%ADD82C,0.250000*%
%ADD83C,0.180000*%
%ADD84C,0.100000*%
%LNpcb1-1*%
%LPD*%
G36*
X01761788Y02109923D02*
X01761855D01*
Y02109889*
Y02109856*
X01761888*
Y02109823*
Y02109789*
Y02109756*
Y02109724*
X01761922*
Y0210969*
Y02109656*
Y02109623*
Y02109589*
Y02109556*
Y02109523*
X01761955*
Y02109489*
Y02109456*
Y02109423*
Y02109389*
Y02109356*
X01761988*
Y02109323*
Y02109289*
Y02109256*
Y02109223*
Y02109189*
X01762022*
Y02109156*
Y02109123*
Y02109089*
Y02109056*
Y02109023*
Y02108989*
X01762055*
Y02108956*
Y02108923*
Y02108889*
Y02108856*
Y02108823*
X01762088*
Y02108789*
Y02108756*
Y02108723*
Y02108689*
Y02108656*
X01762122*
Y02108623*
Y02108589*
Y02108556*
Y02108523*
Y02108489*
Y02108456*
X01762155*
Y02108423*
Y02108389*
Y02108356*
Y02108323*
Y02108289*
X01762188*
Y02108256*
Y02108223*
Y02108189*
Y02108156*
Y02108123*
Y02108089*
X01762222*
Y02108056*
Y02108023*
Y02107989*
Y02107956*
Y02107923*
X01762255*
Y02107889*
Y02107856*
Y02107823*
Y02107789*
Y02107756*
X01762288*
Y02107723*
Y02107689*
Y02107656*
Y02107622*
Y02107589*
Y02107556*
X01762322*
Y02107522*
Y02107489*
Y02107456*
Y02107423*
Y02107389*
X01762355*
Y02107356*
Y02107322*
Y02107289*
X01762388*
Y02107256*
X01762422*
Y02107223*
X01762455*
Y02107189*
X01762555*
Y02107156*
X01762622*
Y02107123*
X01762688*
Y02107089*
X01762788*
Y02107057*
X01762855*
Y02107022*
X01762955*
Y02106989*
X01763022*
Y02106956*
X01763122*
Y02106922*
X01763188*
Y02106889*
X01763288*
Y02106856*
X01763355*
Y02106822*
X01763422*
Y02106789*
X01763522*
Y02106756*
X01763588*
Y02106722*
X01763689*
Y02106689*
X01763755*
Y02106656*
X01763855*
Y02106622*
X01763922*
Y02106589*
X01764022*
Y02106556*
X01764089*
Y02106522*
X01764189*
Y02106489*
X01764255*
Y02106522*
X01764355*
Y02106556*
X01764389*
Y02106589*
X01764455*
Y02106622*
X01764489*
Y02106656*
X01764555*
Y02106689*
X01764589*
Y02106722*
X01764655*
Y02106756*
X01764689*
Y02106789*
X01764755*
Y02106822*
X01764789*
Y02106856*
X01764855*
Y02106889*
X01764889*
Y02106922*
X01764922*
Y02106956*
X01764989*
Y02106989*
X01765022*
Y02107022*
X01765089*
Y02107057*
X01765122*
Y02107089*
X01765189*
Y02107123*
X01765222*
Y02107156*
X01765289*
Y02107189*
X01765322*
Y02107223*
X01765389*
Y02107256*
X01765422*
Y02107289*
X01765455*
Y02107322*
X01765522*
Y02107356*
X01765555*
Y02107389*
X01765622*
Y02107423*
X01765655*
Y02107456*
X01765722*
Y02107489*
X01765755*
Y02107522*
X01765822*
Y02107556*
X01765855*
Y02107589*
X01765922*
Y02107622*
X01765955*
Y02107656*
X01765989*
Y02107689*
X01766056*
Y02107723*
X01766089*
Y02107756*
X01766155*
Y02107789*
X01766189*
Y02107823*
X01766256*
Y02107856*
X01766289*
Y02107889*
X01766356*
Y02107923*
X01766389*
Y02107956*
X01766455*
Y02107989*
X01766556*
Y02107956*
X01766589*
Y02107923*
X01766655*
Y02107889*
X01766689*
Y02107856*
X01766722*
Y02107823*
X01766755*
Y02107789*
X01766789*
Y02107756*
X01766822*
Y02107723*
X01766856*
Y02107689*
X01766889*
Y02107656*
X01766922*
Y02107622*
X01766956*
Y02107589*
X01766989*
Y02107556*
X01767022*
Y02107522*
X01767056*
Y02107489*
X01767089*
Y02107456*
X01767122*
Y02107423*
X01767156*
Y02107389*
X01767189*
Y02107356*
X01767222*
Y02107322*
X01767256*
Y02107289*
X01767289*
Y02107256*
X01767322*
Y02107223*
X01767356*
Y02107189*
X01767389*
Y02107156*
X01767422*
Y02107123*
X01767456*
Y02107089*
X01767489*
Y02107057*
X01767522*
Y02107022*
X01767556*
Y02106989*
X01767589*
Y02106956*
X01767622*
Y02106922*
X01767656*
Y02106889*
X01767689*
Y02106856*
X01767722*
Y02106822*
X01767756*
Y02106789*
X01767789*
Y02106756*
X01767822*
Y02106722*
X01767856*
Y02106689*
X01767889*
Y02106656*
X01767922*
Y02106622*
X01767956*
Y02106589*
X01767989*
Y02106556*
X01768022*
Y02106522*
X01768056*
Y02106489*
X01768089*
Y02106456*
X01768122*
Y02106422*
X01768156*
Y02106389*
X01768189*
Y02106356*
X01768222*
Y02106322*
X01768256*
Y02106289*
X01768289*
Y02106256*
X01768322*
Y02106222*
X01768356*
Y02106189*
Y02106156*
X01768389*
Y02106122*
Y02106089*
Y02106056*
Y02106022*
X01768356*
Y02105989*
Y02105956*
X01768322*
Y02105922*
X01768289*
Y02105889*
Y02105856*
X01768256*
Y02105822*
X01768222*
Y02105789*
X01768189*
Y02105756*
Y02105722*
X01768156*
Y02105689*
X01768122*
Y02105656*
Y02105622*
X01768089*
Y02105589*
X01768056*
Y02105556*
Y02105522*
X01768022*
Y02105489*
X01767989*
Y02105456*
Y02105422*
X01767956*
Y02105389*
X01767922*
Y02105356*
Y02105322*
X01767889*
Y02105289*
X01767856*
Y02105256*
X01767822*
Y02105222*
Y02105189*
X01767789*
Y02105156*
X01767756*
Y02105122*
Y02105089*
X01767722*
Y02105055*
X01767689*
Y02105022*
Y02104989*
X01767656*
Y02104956*
X01767622*
Y02104922*
Y02104889*
X01767589*
Y02104856*
X01767556*
Y02104822*
Y02104789*
X01767522*
Y02104755*
X01767489*
Y02104722*
Y02104689*
X01767456*
Y02104656*
X01767422*
Y02104622*
X01767389*
Y02104589*
Y02104555*
X01767356*
Y02104522*
X01767322*
Y02104489*
Y02104455*
X01767289*
Y02104422*
X01767256*
Y0210439*
Y02104356*
X01767222*
Y02104322*
X01767189*
Y02104289*
Y02104255*
X01767156*
Y02104222*
X01767122*
Y02104189*
Y02104155*
X01767089*
Y02104122*
X01767056*
Y02104089*
X01767022*
Y02104055*
Y02104022*
X01766989*
Y02103989*
X01766956*
Y02103955*
Y02103922*
Y02103889*
X01766922*
Y02103855*
X01766956*
Y02103822*
Y02103789*
Y02103755*
Y02103722*
X01766989*
Y02103689*
Y02103655*
X01767022*
Y02103622*
Y02103589*
Y02103555*
X01767056*
Y02103522*
Y02103489*
X01767089*
Y02103455*
Y02103422*
X01767122*
Y02103389*
Y02103355*
Y02103322*
X01767156*
Y02103289*
Y02103255*
X01767189*
Y02103222*
Y02103189*
X01767222*
Y02103155*
Y02103122*
Y02103089*
X01767256*
Y02103055*
Y02103022*
X01767289*
Y02102989*
Y02102955*
X01767322*
Y02102922*
Y02102889*
Y02102855*
X01767356*
Y02102822*
Y02102789*
X01767389*
Y02102755*
Y02102722*
X01767422*
Y02102689*
Y02102655*
Y02102622*
X01767456*
Y02102589*
Y02102555*
X01767489*
Y02102522*
Y02102489*
X01767522*
Y02102455*
Y02102422*
Y02102389*
X01767556*
Y02102355*
Y02102322*
X01767589*
Y02102288*
Y02102255*
X01767622*
Y02102222*
Y02102188*
Y02102155*
X01767656*
Y02102122*
Y02102089*
X01767689*
Y02102055*
Y02102022*
X01767722*
Y02101988*
X01767756*
Y02101955*
X01767789*
Y02101922*
X01767922*
Y02101888*
X01768089*
Y02101855*
X01768256*
Y02101822*
X01768456*
Y02101789*
X01768622*
Y02101755*
X01768789*
Y02101723*
X01768989*
Y02101688*
X01769156*
Y02101655*
X01769356*
Y02101622*
X01769523*
Y02101588*
X01769689*
Y02101555*
X01769889*
Y02101522*
X01770056*
Y02101488*
X01770223*
Y02101455*
X01770323*
Y02101422*
X01770356*
Y02101388*
Y02101355*
Y02101322*
Y02101288*
Y02101255*
Y02101222*
Y02101188*
Y02101155*
Y02101122*
Y02101088*
Y02101055*
Y02101022*
Y02100988*
Y02100955*
Y02100922*
Y02100888*
Y02100855*
Y02100822*
Y02100788*
Y02100755*
Y02100722*
Y02100688*
Y02100655*
Y02100622*
Y02100588*
Y02100555*
Y02100522*
Y02100488*
Y02100455*
Y02100422*
Y02100388*
Y02100355*
Y02100322*
Y02100288*
Y02100255*
Y02100222*
Y02100188*
Y02100155*
Y02100122*
Y02100088*
Y02100055*
Y02100022*
Y02099988*
Y02099955*
Y02099922*
Y02099888*
Y02099855*
Y02099822*
Y02099788*
Y02099755*
Y02099721*
Y02099688*
Y02099655*
Y02099621*
Y02099588*
Y02099555*
Y02099522*
Y02099488*
Y02099455*
Y02099421*
Y02099388*
Y02099355*
Y02099322*
Y02099288*
Y02099255*
Y02099222*
Y02099188*
Y02099155*
Y02099121*
Y02099088*
Y02099056*
Y02099022*
Y02098988*
Y02098955*
Y02098921*
Y02098888*
Y02098855*
Y02098821*
Y02098788*
X01770323*
Y02098755*
X01770289*
Y02098721*
X01770189*
Y02098688*
X01770023*
Y02098655*
X01769823*
Y02098621*
X01769656*
Y02098588*
X01769489*
Y02098555*
X01769289*
Y02098521*
X01769123*
Y02098488*
X01768956*
Y02098455*
X01768756*
Y02098421*
X01768589*
Y02098388*
X01768389*
Y02098355*
X01768222*
Y02098321*
X01768056*
Y02098288*
X01767889*
Y02098255*
X01767822*
Y02098221*
X01767789*
Y02098188*
X01767756*
Y02098155*
Y02098121*
X01767722*
Y02098088*
Y02098055*
Y02098021*
X01767689*
Y02097988*
Y02097955*
X01767656*
Y02097921*
Y02097888*
Y02097855*
X01767622*
Y02097821*
Y02097788*
X01767589*
Y02097755*
Y02097721*
Y02097688*
X01767556*
Y02097655*
Y02097621*
X01767522*
Y02097588*
Y02097555*
Y02097521*
X01767489*
Y02097488*
Y02097455*
X01767456*
Y02097421*
Y02097388*
Y02097355*
X01767422*
Y02097321*
Y02097288*
X01767389*
Y02097255*
Y02097221*
Y02097188*
X01767356*
Y02097155*
Y02097121*
X01767322*
Y02097088*
Y02097055*
Y02097021*
X01767289*
Y02096988*
Y02096955*
X01767256*
Y02096921*
Y02096888*
Y02096854*
X01767222*
Y02096821*
Y02096788*
X01767189*
Y02096755*
Y02096721*
Y02096688*
X01767156*
Y02096654*
Y02096621*
X01767122*
Y02096588*
Y02096554*
Y02096521*
X01767089*
Y02096488*
Y02096455*
X01767056*
Y02096421*
Y02096389*
Y02096354*
X01767022*
Y02096321*
Y02096288*
Y02096254*
Y02096221*
Y02096188*
Y02096154*
Y02096121*
X01767056*
Y02096088*
Y02096054*
X01767089*
Y02096021*
X01767122*
Y02095988*
Y02095954*
X01767156*
Y02095921*
X01767189*
Y02095888*
Y02095854*
X01767222*
Y02095821*
X01767256*
Y02095788*
X01767289*
Y02095754*
Y02095721*
X01767322*
Y02095688*
X01767356*
Y02095654*
Y02095621*
X01767389*
Y02095588*
X01767422*
Y02095554*
Y02095521*
X01767456*
Y02095488*
X01767489*
Y02095454*
Y02095421*
X01767522*
Y02095388*
X01767556*
Y02095354*
Y02095321*
X01767589*
Y02095288*
X01767622*
Y02095254*
Y02095221*
X01767656*
Y02095188*
X01767689*
Y02095154*
X01767722*
Y02095121*
Y02095088*
X01767756*
Y02095054*
X01767789*
Y02095021*
Y02094988*
X01767822*
Y02094954*
X01767856*
Y02094921*
Y02094888*
X01767889*
Y02094854*
X01767922*
Y02094821*
Y02094788*
X01767956*
Y02094754*
X01767989*
Y02094721*
Y02094688*
X01768022*
Y02094654*
X01768056*
Y02094621*
X01768089*
Y02094588*
Y02094554*
X01768122*
Y02094521*
X01768156*
Y02094488*
Y02094454*
X01768189*
Y02094421*
X01768222*
Y02094387*
Y02094354*
X01768256*
Y02094321*
X01768289*
Y02094287*
Y02094254*
X01768322*
Y02094221*
X01768356*
Y02094188*
Y02094154*
X01768389*
Y02094121*
Y02094087*
Y02094054*
Y02094021*
X01768356*
Y02093987*
X01768322*
Y02093954*
X01768289*
Y02093921*
X01768256*
Y02093888*
X01768222*
Y02093854*
X01768189*
Y02093821*
X01768156*
Y02093787*
X01768122*
Y02093754*
X01768089*
Y02093722*
X01768056*
Y02093688*
X01768022*
Y02093654*
X01767989*
Y02093621*
X01767956*
Y02093587*
X01767922*
Y02093554*
X01767889*
Y02093521*
X01767856*
Y02093487*
X01767822*
Y02093454*
X01767789*
Y02093421*
X01767756*
Y02093387*
X01767722*
Y02093354*
X01767689*
Y02093321*
X01767656*
Y02093287*
X01767622*
Y02093254*
X01767589*
Y02093221*
X01767556*
Y02093187*
X01767522*
Y02093154*
X01767489*
Y02093121*
X01767456*
Y02093087*
X01767422*
Y02093054*
X01767389*
Y02093021*
X01767356*
Y02092987*
X01767322*
Y02092954*
X01767289*
Y02092921*
X01767256*
Y02092887*
X01767222*
Y02092854*
X01767189*
Y02092821*
X01767156*
Y02092787*
X01767122*
Y02092754*
X01767089*
Y02092721*
X01767056*
Y02092687*
X01767022*
Y02092654*
X01766989*
Y02092621*
X01766956*
Y02092587*
X01766922*
Y02092554*
X01766889*
Y02092521*
X01766856*
Y02092487*
X01766822*
Y02092454*
X01766789*
Y02092421*
X01766755*
Y02092387*
X01766722*
Y02092354*
X01766689*
Y02092321*
X01766655*
Y02092287*
X01766622*
Y02092254*
X01766589*
Y02092221*
X01766522*
Y02092187*
X01766489*
Y02092221*
X01766389*
Y02092254*
X01766356*
Y02092287*
X01766322*
Y02092321*
X01766256*
Y02092354*
X01766222*
Y02092387*
X01766155*
Y02092421*
X01766122*
Y02092454*
X01766056*
Y02092487*
X01766022*
Y02092521*
X01765955*
Y02092554*
X01765922*
Y02092587*
X01765855*
Y02092621*
X01765822*
Y02092654*
X01765755*
Y02092687*
X01765722*
Y02092721*
X01765689*
Y02092754*
X01765622*
Y02092787*
X01765589*
Y02092821*
X01765522*
Y02092854*
X01765489*
Y02092887*
X01765422*
Y02092921*
X01765389*
Y02092954*
X01765322*
Y02092987*
X01765289*
Y02093021*
X01765222*
Y02093054*
X01765189*
Y02093087*
X01765155*
Y02093121*
X01765089*
Y02093154*
X01765055*
Y02093187*
X01764989*
Y02093221*
X01764955*
Y02093254*
X01764889*
Y02093287*
X01764855*
Y02093321*
X01764789*
Y02093354*
X01764755*
Y02093387*
X01764689*
Y02093421*
X01764655*
Y02093454*
X01764622*
Y02093487*
X01764555*
Y02093521*
X01764522*
Y02093554*
X01764322*
Y02093521*
X01764255*
Y02093487*
X01764189*
Y02093454*
X01764122*
Y02093421*
X01764055*
Y02093387*
X01763989*
Y02093354*
X01763922*
Y02093321*
X01763888*
Y02093287*
X01763822*
Y02093254*
X01763755*
Y02093221*
X01763689*
Y02093187*
X01763622*
Y02093154*
X01763555*
Y02093121*
X01763489*
Y02093087*
X01763355*
Y02093121*
Y02093154*
X01763322*
Y02093187*
Y02093221*
X01763288*
Y02093254*
Y02093287*
Y02093321*
X01763255*
Y02093354*
Y02093387*
X01763222*
Y02093421*
Y02093454*
X01763188*
Y02093487*
Y02093521*
Y02093554*
X01763155*
Y02093587*
Y02093621*
X01763122*
Y02093654*
Y02093688*
Y02093722*
X01763088*
Y02093754*
Y02093787*
X01763055*
Y02093821*
Y02093854*
X01763022*
Y02093888*
Y02093921*
Y02093954*
X01762988*
Y02093987*
Y02094021*
X01762955*
Y02094054*
Y02094087*
Y02094121*
X01762922*
Y02094154*
Y02094188*
X01762888*
Y02094221*
Y02094254*
Y02094287*
X01762855*
Y02094321*
Y02094354*
X01762822*
Y02094387*
Y02094421*
X01762788*
Y02094454*
Y02094488*
Y02094521*
X01762755*
Y02094554*
Y02094588*
X01762722*
Y02094621*
Y02094654*
Y02094688*
X01762688*
Y02094721*
Y02094754*
X01762655*
Y02094788*
Y02094821*
X01762622*
Y02094854*
Y02094888*
Y02094921*
X01762588*
Y02094954*
Y02094988*
X01762555*
Y02095021*
Y02095054*
Y02095088*
X01762522*
Y02095121*
Y02095154*
X01762488*
Y02095188*
Y02095221*
Y02095254*
X01762455*
Y02095288*
Y02095321*
X01762422*
Y02095354*
Y02095388*
X01762388*
Y02095421*
Y02095454*
Y02095488*
X01762355*
Y02095521*
Y02095554*
X01762322*
Y02095588*
Y02095621*
Y02095654*
X01762288*
Y02095688*
Y02095721*
X01762255*
Y02095754*
Y02095788*
X01762222*
Y02095821*
Y02095854*
Y02095888*
X01762188*
Y02095921*
Y02095954*
X01762155*
Y02095988*
Y02096021*
Y02096054*
X01762122*
Y02096088*
Y02096121*
X01762088*
Y02096154*
Y02096188*
Y02096221*
X01762055*
Y02096254*
Y02096288*
X01762022*
Y02096321*
Y02096354*
X01761988*
Y02096389*
Y02096421*
Y02096455*
X01761955*
Y02096488*
Y02096521*
X01761922*
Y02096554*
Y02096588*
Y02096621*
X01761888*
Y02096654*
Y02096688*
X01761855*
Y02096721*
Y02096755*
X01761822*
Y02096788*
Y02096821*
Y02096854*
X01761788*
Y02096888*
Y02096921*
X01761755*
Y02096955*
Y02096988*
Y02097021*
X01761722*
Y02097055*
Y02097088*
X01761688*
Y02097121*
Y02097155*
X01761655*
Y02097188*
Y02097221*
Y02097255*
X01761622*
Y02097288*
Y02097321*
X01761588*
Y02097355*
Y02097388*
Y02097421*
Y02097455*
Y02097488*
X01761622*
Y02097521*
X01761655*
Y02097555*
X01761722*
Y02097588*
X01761788*
Y02097621*
X01761822*
Y02097655*
X01761888*
Y02097688*
X01761922*
Y02097721*
X01761955*
Y02097755*
X01762022*
Y02097788*
X01762055*
Y02097821*
X01762088*
Y02097855*
X01762155*
Y02097888*
X01762188*
Y02097921*
X01762255*
Y02097955*
X01762288*
Y02097988*
X01762322*
Y02098021*
X01762355*
Y02098055*
X01762388*
Y02098088*
X01762422*
Y02098121*
X01762455*
Y02098155*
X01762488*
Y02098188*
X01762522*
Y02098221*
X01762555*
Y02098255*
X01762588*
Y02098288*
X01762622*
Y02098321*
Y02098355*
X01762655*
Y02098388*
X01762688*
Y02098421*
X01762722*
Y02098455*
X01762755*
Y02098488*
Y02098521*
X01762788*
Y02098555*
X01762822*
Y02098588*
Y02098621*
X01762855*
Y02098655*
Y02098688*
X01762888*
Y02098721*
X01762922*
Y02098755*
Y02098788*
X01762955*
Y02098821*
Y02098855*
X01762988*
Y02098888*
Y02098921*
X01763022*
Y02098955*
Y02098988*
X01763055*
Y02099022*
Y02099056*
Y02099088*
X01763088*
Y02099121*
Y02099155*
Y02099188*
X01763122*
Y02099222*
Y02099255*
Y02099288*
X01763155*
Y02099322*
Y02099355*
Y02099388*
X01763188*
Y02099421*
Y02099455*
Y02099488*
Y02099522*
Y02099555*
X01763222*
Y02099588*
Y02099621*
Y02099655*
Y02099688*
Y02099721*
X01763255*
Y02099755*
Y02099788*
Y02099822*
Y02099855*
Y02099888*
Y02099922*
Y02099955*
Y02099988*
Y02100022*
Y02100055*
Y02100088*
Y02100122*
Y02100155*
Y02100188*
Y02100222*
Y02100255*
Y02100288*
Y02100322*
Y02100355*
Y02100388*
Y02100422*
X01763222*
Y02100455*
Y02100488*
Y02100522*
Y02100555*
Y02100588*
Y02100622*
X01763188*
Y02100655*
Y02100688*
Y02100722*
Y02100755*
X01763155*
Y02100788*
Y02100822*
Y02100855*
Y02100888*
X01763122*
Y02100922*
Y02100955*
Y02100988*
X01763088*
Y02101022*
Y02101055*
Y02101088*
X01763055*
Y02101122*
Y02101155*
X01763022*
Y02101188*
Y02101222*
X01762988*
Y02101255*
Y02101288*
X01762955*
Y02101322*
Y02101355*
X01762922*
Y02101388*
Y02101422*
X01762888*
Y02101455*
Y02101488*
X01762855*
Y02101522*
Y02101555*
X01762822*
Y02101588*
X01762788*
Y02101622*
Y02101655*
X01762755*
Y02101688*
X01762722*
Y02101723*
X01762688*
Y02101755*
Y02101789*
X01762655*
Y02101822*
X01762622*
Y02101855*
X01762588*
Y02101888*
X01762555*
Y02101922*
X01762522*
Y02101955*
X01762488*
Y02101988*
Y02102022*
X01762455*
Y02102055*
X01762388*
Y02102089*
X01762355*
Y02102122*
X01762322*
Y02102155*
X01762288*
Y02102188*
X01762255*
Y02102222*
X01762222*
Y02102255*
X01762155*
Y02102288*
X01762122*
Y02102322*
X01762088*
Y02102355*
X01762022*
Y02102389*
X01761988*
Y02102422*
X01761922*
Y02102455*
X01761855*
Y02102489*
X01761822*
Y02102522*
X01761755*
Y02102555*
X01761688*
Y02102589*
X01761588*
Y02102622*
X01761522*
Y02102655*
X01761421*
Y02102689*
X01761355*
Y02102722*
X01761222*
Y02102755*
X01761088*
Y02102789*
X01760888*
Y02102822*
X01760121*
Y02102789*
X01759921*
Y02102755*
X01759788*
Y02102722*
X01759655*
Y02102689*
X01759588*
Y02102655*
X01759488*
Y02102622*
X01759421*
Y02102589*
X01759321*
Y02102555*
X01759255*
Y02102522*
X01759188*
Y02102489*
X01759155*
Y02102455*
X01759088*
Y02102422*
X01759021*
Y02102389*
X01758988*
Y02102355*
X01758921*
Y02102322*
X01758888*
Y02102288*
X01758855*
Y02102255*
X01758788*
Y02102222*
X01758754*
Y02102188*
X01758721*
Y02102155*
X01758688*
Y02102122*
X01758655*
Y02102089*
X01758621*
Y02102055*
X01758554*
Y02102022*
X01758521*
Y02101988*
Y02101955*
X01758488*
Y02101922*
X01758455*
Y02101888*
X01758421*
Y02101855*
X01758388*
Y02101822*
X01758355*
Y02101789*
X01758321*
Y02101755*
Y02101723*
X01758288*
Y02101688*
X01758254*
Y02101655*
X01758221*
Y02101622*
Y02101588*
X01758188*
Y02101555*
X01758155*
Y02101522*
Y02101488*
X01758121*
Y02101455*
Y02101422*
X01758088*
Y02101388*
Y02101355*
X01758055*
Y02101322*
Y02101288*
X01758021*
Y02101255*
Y02101222*
X01757988*
Y02101188*
Y02101155*
X01757954*
Y02101122*
Y02101088*
X01757921*
Y02101055*
Y02101022*
Y02100988*
X01757888*
Y02100955*
Y02100922*
Y02100888*
X01757854*
Y02100855*
Y02100822*
Y02100788*
Y02100755*
X01757821*
Y02100722*
Y02100688*
Y02100655*
Y02100622*
X01757788*
Y02100588*
Y02100555*
Y02100522*
Y02100488*
Y02100455*
Y02100422*
X01757754*
Y02100388*
Y02100355*
Y02100322*
Y02100288*
Y02100255*
Y02100222*
Y02100188*
Y02100155*
Y02100122*
Y02100088*
Y02100055*
Y02100022*
Y02099988*
Y02099955*
Y02099922*
Y02099888*
Y02099855*
Y02099822*
Y02099788*
Y02099755*
Y02099721*
X01757788*
Y02099688*
Y02099655*
Y02099621*
Y02099588*
Y02099555*
X01757821*
Y02099522*
Y02099488*
Y02099455*
Y02099421*
Y02099388*
X01757854*
Y02099355*
Y02099322*
Y02099288*
X01757888*
Y02099255*
Y02099222*
Y02099188*
X01757921*
Y02099155*
Y02099121*
Y02099088*
X01757954*
Y02099056*
Y02099022*
Y02098988*
X01757988*
Y02098955*
Y02098921*
X01758021*
Y02098888*
Y02098855*
X01758055*
Y02098821*
Y02098788*
X01758088*
Y02098755*
Y02098721*
X01758121*
Y02098688*
X01758155*
Y02098655*
Y02098621*
X01758188*
Y02098588*
Y02098555*
X01758221*
Y02098521*
X01758254*
Y02098488*
Y02098455*
X01758288*
Y02098421*
X01758321*
Y02098388*
X01758355*
Y02098355*
X01758388*
Y02098321*
Y02098288*
X01758421*
Y02098255*
X01758455*
Y02098221*
X01758488*
Y02098188*
X01758521*
Y02098155*
X01758554*
Y02098121*
X01758588*
Y02098088*
X01758621*
Y02098055*
X01758655*
Y02098021*
X01758688*
Y02097988*
X01758721*
Y02097955*
X01758754*
Y02097921*
X01758821*
Y02097888*
X01758855*
Y02097855*
X01758921*
Y02097821*
X01758955*
Y02097788*
X01758988*
Y02097755*
X01759055*
Y02097721*
X01759088*
Y02097688*
X01759121*
Y02097655*
X01759188*
Y02097621*
X01759221*
Y02097588*
X01759288*
Y02097555*
X01759355*
Y02097521*
X01759388*
Y02097488*
X01759421*
Y02097455*
Y02097421*
Y02097388*
Y02097355*
Y02097321*
X01759388*
Y02097288*
Y02097255*
X01759355*
Y02097221*
Y02097188*
Y02097155*
X01759321*
Y02097121*
Y02097088*
X01759288*
Y02097055*
Y02097021*
X01759255*
Y02096988*
Y02096955*
Y02096921*
X01759221*
Y02096888*
Y02096854*
X01759188*
Y02096821*
Y02096788*
Y02096755*
X01759155*
Y02096721*
Y02096688*
X01759121*
Y02096654*
Y02096621*
X01759088*
Y02096588*
Y02096554*
Y02096521*
X01759055*
Y02096488*
Y02096455*
X01759021*
Y02096421*
Y02096389*
Y02096354*
X01758988*
Y02096321*
Y02096288*
X01758955*
Y02096254*
Y02096221*
X01758921*
Y02096188*
Y02096154*
Y02096121*
X01758888*
Y02096088*
Y02096054*
X01758855*
Y02096021*
Y02095988*
Y02095954*
X01758821*
Y02095921*
Y02095888*
X01758788*
Y02095854*
Y02095821*
Y02095788*
X01758754*
Y02095754*
Y02095721*
X01758721*
Y02095688*
Y02095654*
X01758688*
Y02095621*
Y02095588*
Y02095554*
X01758655*
Y02095521*
Y02095488*
X01758621*
Y02095454*
Y02095421*
Y02095388*
X01758588*
Y02095354*
Y02095321*
X01758554*
Y02095288*
Y02095254*
X01758521*
Y02095221*
Y02095188*
Y02095154*
X01758488*
Y02095121*
Y02095088*
X01758455*
Y02095054*
Y02095021*
Y02094988*
X01758421*
Y02094954*
Y02094921*
X01758388*
Y02094888*
Y02094854*
Y02094821*
X01758355*
Y02094788*
Y02094754*
X01758321*
Y02094721*
Y02094688*
X01758288*
Y02094654*
Y02094621*
Y02094588*
X01758254*
Y02094554*
Y02094521*
X01758221*
Y02094488*
Y02094454*
Y02094421*
X01758188*
Y02094387*
Y02094354*
X01758155*
Y02094321*
Y02094287*
X01758121*
Y02094254*
Y02094221*
Y02094188*
X01758088*
Y02094154*
Y02094121*
X01758055*
Y02094087*
Y02094054*
Y02094021*
X01758021*
Y02093987*
Y02093954*
X01757988*
Y02093921*
Y02093888*
Y02093854*
X01757954*
Y02093821*
Y02093787*
X01757921*
Y02093754*
Y02093722*
X01757888*
Y02093688*
Y02093654*
Y02093621*
X01757854*
Y02093587*
Y02093554*
X01757821*
Y02093521*
Y02093487*
Y02093454*
X01757788*
Y02093421*
Y02093387*
X01757754*
Y02093354*
Y02093321*
X01757721*
Y02093287*
Y02093254*
Y02093221*
X01757688*
Y02093187*
Y02093154*
X01757654*
Y02093121*
Y02093087*
X01757521*
Y02093121*
X01757454*
Y02093154*
X01757388*
Y02093187*
X01757321*
Y02093221*
X01757254*
Y02093254*
X01757188*
Y02093287*
X01757121*
Y02093321*
X01757088*
Y02093354*
X01757021*
Y02093387*
X01756954*
Y02093421*
X01756888*
Y02093454*
X01756821*
Y02093487*
X01756754*
Y02093521*
X01756688*
Y02093554*
X01756488*
Y02093521*
X01756454*
Y02093487*
X01756388*
Y02093454*
X01756354*
Y02093421*
X01756321*
Y02093387*
X01756254*
Y02093354*
X01756221*
Y02093321*
X01756154*
Y02093287*
X01756121*
Y02093254*
X01756054*
Y02093221*
X01756021*
Y02093187*
X01755954*
Y02093154*
X01755921*
Y02093121*
X01755854*
Y02093087*
X01755821*
Y02093054*
X01755788*
Y02093021*
X01755721*
Y02092987*
X01755687*
Y02092954*
X01755621*
Y02092921*
X01755588*
Y02092887*
X01755521*
Y02092854*
X01755487*
Y02092821*
X01755421*
Y02092787*
X01755387*
Y02092754*
X01755321*
Y02092721*
X01755287*
Y02092687*
X01755254*
Y02092654*
X01755187*
Y02092621*
X01755154*
Y02092587*
X01755087*
Y02092554*
X01755054*
Y02092521*
X01754987*
Y02092487*
X01754954*
Y02092454*
X01754887*
Y02092421*
X01754854*
Y02092387*
X01754787*
Y02092354*
X01754754*
Y02092321*
X01754687*
Y02092287*
X01754654*
Y02092254*
X01754621*
Y02092221*
X01754521*
Y02092187*
X01754487*
Y02092221*
X01754421*
Y02092254*
X01754387*
Y02092287*
X01754354*
Y02092321*
X01754321*
Y02092354*
X01754287*
Y02092387*
X01754254*
Y02092421*
X01754221*
Y02092454*
X01754187*
Y02092487*
X01754154*
Y02092521*
X01754121*
Y02092554*
X01754087*
Y02092587*
X01754054*
Y02092621*
X01754021*
Y02092654*
X01753987*
Y02092687*
X01753954*
Y02092721*
X01753921*
Y02092754*
X01753887*
Y02092787*
X01753854*
Y02092821*
X01753821*
Y02092854*
X01753787*
Y02092887*
X01753754*
Y02092921*
X01753721*
Y02092954*
X01753687*
Y02092987*
X01753654*
Y02093021*
X01753621*
Y02093054*
X01753587*
Y02093087*
X01753554*
Y02093121*
X01753521*
Y02093154*
X01753487*
Y02093187*
X01753454*
Y02093221*
X0175342*
Y02093254*
X01753387*
Y02093287*
X01753354*
Y02093321*
X01753321*
Y02093354*
X01753287*
Y02093387*
X01753254*
Y02093421*
X0175322*
Y02093454*
X01753187*
Y02093487*
X01753154*
Y02093521*
X0175312*
Y02093554*
X01753087*
Y02093587*
X01753054*
Y02093621*
X01753021*
Y02093654*
X01752987*
Y02093688*
X01752954*
Y02093722*
X0175292*
Y02093754*
X01752887*
Y02093787*
X01752854*
Y02093821*
X01752821*
Y02093854*
X01752787*
Y02093888*
X01752754*
Y02093921*
X01752721*
Y02093954*
X01752687*
Y02093987*
X01752654*
Y02094021*
X0175262*
Y02094054*
Y02094087*
Y02094121*
Y02094154*
X01752654*
Y02094188*
Y02094221*
X01752687*
Y02094254*
X01752721*
Y02094287*
Y02094321*
X01752754*
Y02094354*
X01752787*
Y02094387*
Y02094421*
X01752821*
Y02094454*
X01752854*
Y02094488*
Y02094521*
X01752887*
Y02094554*
X0175292*
Y02094588*
Y02094621*
X01752954*
Y02094654*
X01752987*
Y02094688*
X01753021*
Y02094721*
Y02094754*
X01753054*
Y02094788*
X01753087*
Y02094821*
Y02094854*
X0175312*
Y02094888*
X01753154*
Y02094921*
Y02094954*
X01753187*
Y02094988*
X0175322*
Y02095021*
Y02095054*
X01753254*
Y02095088*
X01753287*
Y02095121*
Y02095154*
X01753321*
Y02095188*
X01753354*
Y02095221*
X01753387*
Y02095254*
Y02095288*
X0175342*
Y02095321*
X01753454*
Y02095354*
Y02095388*
X01753487*
Y02095421*
X01753521*
Y02095454*
Y02095488*
X01753554*
Y02095521*
X01753587*
Y02095554*
Y02095588*
X01753621*
Y02095621*
X01753654*
Y02095654*
Y02095688*
X01753687*
Y02095721*
X01753721*
Y02095754*
Y02095788*
X01753754*
Y02095821*
X01753787*
Y02095854*
X01753821*
Y02095888*
Y02095921*
X01753854*
Y02095954*
X01753887*
Y02095988*
Y02096021*
X01753921*
Y02096054*
X01753954*
Y02096088*
Y02096121*
X01753987*
Y02096154*
Y02096188*
Y02096221*
Y02096254*
Y02096288*
Y02096321*
Y02096354*
X01753954*
Y02096389*
Y02096421*
Y02096455*
X01753921*
Y02096488*
Y02096521*
X01753887*
Y02096554*
Y02096588*
Y02096621*
X01753854*
Y02096654*
Y02096688*
X01753821*
Y02096721*
Y02096755*
Y02096788*
X01753787*
Y02096821*
Y02096854*
X01753754*
Y02096888*
Y02096921*
Y02096955*
X01753721*
Y02096988*
Y02097021*
X01753687*
Y02097055*
Y02097088*
Y02097121*
X01753654*
Y02097155*
Y02097188*
X01753621*
Y02097221*
Y02097255*
Y02097288*
X01753587*
Y02097321*
Y02097355*
X01753554*
Y02097388*
Y02097421*
Y02097455*
X01753521*
Y02097488*
Y02097521*
X01753487*
Y02097555*
Y02097588*
Y02097621*
X01753454*
Y02097655*
Y02097688*
X0175342*
Y02097721*
Y02097755*
Y02097788*
X01753387*
Y02097821*
Y02097855*
X01753354*
Y02097888*
Y02097921*
Y02097955*
X01753321*
Y02097988*
Y02098021*
X01753287*
Y02098055*
Y02098088*
Y02098121*
X01753254*
Y02098155*
Y02098188*
X0175322*
Y02098221*
X01753187*
Y02098255*
X0175312*
Y02098288*
X01752954*
Y02098321*
X01752787*
Y02098355*
X0175262*
Y02098388*
X0175242*
Y02098421*
X01752254*
Y02098455*
X01752054*
Y02098488*
X01751887*
Y02098521*
X0175172*
Y02098555*
X0175152*
Y02098588*
X01751354*
Y02098621*
X01751187*
Y02098655*
X01750987*
Y02098688*
X0175082*
Y02098721*
X0175072*
Y02098755*
X01750687*
Y02098788*
X01750653*
Y02098821*
Y02098855*
Y02098888*
Y02098921*
Y02098955*
Y02098988*
Y02099022*
Y02099056*
Y02099088*
Y02099121*
Y02099155*
Y02099188*
Y02099222*
Y02099255*
Y02099288*
Y02099322*
Y02099355*
Y02099388*
Y02099421*
Y02099455*
Y02099488*
Y02099522*
Y02099555*
Y02099588*
Y02099621*
Y02099655*
Y02099688*
Y02099721*
Y02099755*
Y02099788*
Y02099822*
Y02099855*
Y02099888*
Y02099922*
Y02099955*
Y02099988*
Y02100022*
Y02100055*
Y02100088*
Y02100122*
Y02100155*
Y02100188*
Y02100222*
Y02100255*
Y02100288*
Y02100322*
Y02100355*
Y02100388*
Y02100422*
Y02100455*
Y02100488*
Y02100522*
Y02100555*
Y02100588*
Y02100622*
Y02100655*
Y02100688*
Y02100722*
Y02100755*
Y02100788*
Y02100822*
Y02100855*
Y02100888*
Y02100922*
Y02100955*
Y02100988*
Y02101022*
Y02101055*
Y02101088*
Y02101122*
Y02101155*
Y02101188*
Y02101222*
Y02101255*
Y02101288*
Y02101322*
Y02101355*
Y02101388*
Y02101422*
X01750687*
Y02101455*
X01750787*
Y02101488*
X01750954*
Y02101522*
X0175112*
Y02101555*
X0175132*
Y02101588*
X01751487*
Y02101622*
X01751654*
Y02101655*
X01751854*
Y02101688*
X0175202*
Y02101723*
X0175222*
Y02101755*
X01752387*
Y02101789*
X01752554*
Y02101822*
X01752754*
Y02101855*
X0175292*
Y02101888*
X01753087*
Y02101922*
X0175322*
Y02101955*
X01753254*
Y02101988*
X01753287*
Y02102022*
X01753321*
Y02102055*
Y02102089*
X01753354*
Y02102122*
Y02102155*
X01753387*
Y02102188*
Y02102222*
Y02102255*
X0175342*
Y02102288*
Y02102322*
X01753454*
Y02102355*
Y02102389*
X01753487*
Y02102422*
Y02102455*
Y02102489*
X01753521*
Y02102522*
Y02102555*
X01753554*
Y02102589*
Y02102622*
X01753587*
Y02102655*
Y02102689*
Y02102722*
X01753621*
Y02102755*
Y02102789*
X01753654*
Y02102822*
Y02102855*
X01753687*
Y02102889*
Y02102922*
Y02102955*
X01753721*
Y02102989*
Y02103022*
X01753754*
Y02103055*
Y02103089*
X01753787*
Y02103122*
Y02103155*
Y02103189*
X01753821*
Y02103222*
Y02103255*
X01753854*
Y02103289*
Y02103322*
X01753887*
Y02103355*
Y02103389*
Y02103422*
X01753921*
Y02103455*
Y02103489*
X01753954*
Y02103522*
Y02103555*
X01753987*
Y02103589*
Y02103622*
Y02103655*
X01754021*
Y02103689*
Y02103722*
X01754054*
Y02103755*
Y02103789*
Y02103822*
Y02103855*
X01754087*
Y02103889*
X01754054*
Y02103922*
Y02103955*
Y02103989*
X01754021*
Y02104022*
X01753987*
Y02104055*
Y02104089*
X01753954*
Y02104122*
X01753921*
Y02104155*
X01753887*
Y02104189*
Y02104222*
X01753854*
Y02104255*
X01753821*
Y02104289*
Y02104322*
X01753787*
Y02104356*
X01753754*
Y0210439*
Y02104422*
X01753721*
Y02104455*
X01753687*
Y02104489*
Y02104522*
X01753654*
Y02104555*
X01753621*
Y02104589*
Y02104622*
X01753587*
Y02104656*
X01753554*
Y02104689*
X01753521*
Y02104722*
Y02104755*
X01753487*
Y02104789*
X01753454*
Y02104822*
Y02104856*
X0175342*
Y02104889*
X01753387*
Y02104922*
Y02104956*
X01753354*
Y02104989*
X01753321*
Y02105022*
Y02105055*
X01753287*
Y02105089*
X01753254*
Y02105122*
Y02105156*
X0175322*
Y02105189*
X01753187*
Y02105222*
Y02105256*
X01753154*
Y02105289*
X0175312*
Y02105322*
X01753087*
Y02105356*
Y02105389*
X01753054*
Y02105422*
X01753021*
Y02105456*
Y02105489*
X01752987*
Y02105522*
X01752954*
Y02105556*
Y02105589*
X0175292*
Y02105622*
X01752887*
Y02105656*
Y02105689*
X01752854*
Y02105722*
X01752821*
Y02105756*
Y02105789*
X01752787*
Y02105822*
X01752754*
Y02105856*
X01752721*
Y02105889*
Y02105922*
X01752687*
Y02105956*
X01752654*
Y02105989*
Y02106022*
X0175262*
Y02106056*
Y02106089*
Y02106122*
Y02106156*
X01752654*
Y02106189*
X01752687*
Y02106222*
X01752721*
Y02106256*
X01752754*
Y02106289*
X01752787*
Y02106322*
X01752821*
Y02106356*
X01752854*
Y02106389*
X01752887*
Y02106422*
X0175292*
Y02106456*
X01752954*
Y02106489*
X01752987*
Y02106522*
X01753021*
Y02106556*
X01753054*
Y02106589*
X01753087*
Y02106622*
X0175312*
Y02106656*
X01753154*
Y02106689*
X01753187*
Y02106722*
X0175322*
Y02106756*
X01753254*
Y02106789*
X01753287*
Y02106822*
X01753321*
Y02106856*
X01753354*
Y02106889*
X01753387*
Y02106922*
X0175342*
Y02106956*
X01753454*
Y02106989*
X01753487*
Y02107022*
X01753521*
Y02107057*
X01753554*
Y02107089*
X01753587*
Y02107123*
X01753621*
Y02107156*
X01753654*
Y02107189*
X01753687*
Y02107223*
X01753721*
Y02107256*
X01753754*
Y02107289*
X01753787*
Y02107322*
X01753821*
Y02107356*
X01753854*
Y02107389*
X01753887*
Y02107423*
X01753921*
Y02107456*
X01753954*
Y02107489*
X01753987*
Y02107522*
X01754021*
Y02107556*
X01754054*
Y02107589*
X01754087*
Y02107622*
X01754121*
Y02107656*
X01754154*
Y02107689*
X01754187*
Y02107723*
X01754221*
Y02107756*
X01754254*
Y02107789*
X01754287*
Y02107823*
X01754321*
Y02107856*
X01754354*
Y02107889*
X01754387*
Y02107923*
X01754421*
Y02107956*
X01754454*
Y02107989*
X01754554*
Y02107956*
X01754621*
Y02107923*
X01754654*
Y02107889*
X01754721*
Y02107856*
X01754754*
Y02107823*
X01754821*
Y02107789*
X01754854*
Y02107756*
X01754921*
Y02107723*
X01754954*
Y02107689*
X01755021*
Y02107656*
X01755054*
Y02107622*
X01755087*
Y02107589*
X01755154*
Y02107556*
X01755187*
Y02107522*
X01755254*
Y02107489*
X01755287*
Y02107456*
X01755354*
Y02107423*
X01755387*
Y02107389*
X01755454*
Y02107356*
X01755487*
Y02107322*
X01755554*
Y02107289*
X01755588*
Y02107256*
X01755621*
Y02107223*
X01755687*
Y02107189*
X01755721*
Y02107156*
X01755788*
Y02107123*
X01755821*
Y02107089*
X01755888*
Y02107057*
X01755921*
Y02107022*
X01755987*
Y02106989*
X01756021*
Y02106956*
X01756088*
Y02106922*
X01756121*
Y02106889*
X01756188*
Y02106856*
X01756221*
Y02106822*
X01756254*
Y02106789*
X01756321*
Y02106756*
X01756354*
Y02106722*
X01756421*
Y02106689*
X01756454*
Y02106656*
X01756521*
Y02106622*
X01756554*
Y02106589*
X01756621*
Y02106556*
X01756654*
Y02106522*
X01756754*
Y02106489*
X01756821*
Y02106522*
X01756921*
Y02106556*
X01756988*
Y02106589*
X01757088*
Y02106622*
X01757154*
Y02106656*
X01757254*
Y02106689*
X01757321*
Y02106722*
X01757421*
Y02106756*
X01757488*
Y02106789*
X01757588*
Y02106822*
X01757654*
Y02106856*
X01757721*
Y02106889*
X01757821*
Y02106922*
X01757888*
Y02106956*
X01757988*
Y02106989*
X01758055*
Y02107022*
X01758155*
Y02107057*
X01758221*
Y02107089*
X01758321*
Y02107123*
X01758388*
Y02107156*
X01758455*
Y02107189*
X01758554*
Y02107223*
X01758588*
Y02107256*
X01758621*
Y02107289*
X01758655*
Y02107322*
Y02107356*
Y02107389*
X01758688*
Y02107423*
Y02107456*
Y02107489*
Y02107522*
Y02107556*
X01758721*
Y02107589*
Y02107622*
Y02107656*
Y02107689*
Y02107723*
Y02107756*
X01758754*
Y02107789*
Y02107823*
Y02107856*
Y02107889*
Y02107923*
X01758788*
Y02107956*
Y02107989*
Y02108023*
Y02108056*
Y02108089*
X01758821*
Y02108123*
Y02108156*
Y02108189*
Y02108223*
Y02108256*
Y02108289*
X01758855*
Y02108323*
Y02108356*
Y02108389*
Y02108423*
Y02108456*
X01758888*
Y02108489*
Y02108523*
Y02108556*
Y02108589*
Y02108623*
X01758921*
Y02108656*
Y02108689*
Y02108723*
Y02108756*
Y02108789*
Y02108823*
X01758955*
Y02108856*
Y02108889*
Y02108923*
Y02108956*
Y02108989*
X01758988*
Y02109023*
Y02109056*
Y02109089*
Y02109123*
Y02109156*
Y02109189*
X01759021*
Y02109223*
Y02109256*
Y02109289*
Y02109323*
Y02109356*
X01759055*
Y02109389*
Y02109423*
Y02109456*
Y02109489*
Y02109523*
X01759088*
Y02109556*
Y02109589*
Y02109623*
Y02109656*
Y0210969*
Y02109724*
X01759121*
Y02109756*
Y02109789*
Y02109823*
Y02109856*
X01759155*
Y02109889*
Y02109923*
X01759221*
Y02109956*
X01761788*
Y02109923*
G37*
G54D22*
X01773943Y02100258D02*
D01*
X0177391Y02101201*
X01773812Y02102139*
X01773648Y02103068*
X0177342Y02103983*
X01773129Y0210488*
X01772775Y02105754*
X01772362Y02106602*
X0177189Y02107419*
X01771363Y02108201*
X01770782Y02108944*
X01770151Y02109645*
X01769472Y02110301*
X0176875Y02110907*
X01767987Y02111461*
X01767187Y02111961*
X01766354Y02112404*
X01765493Y02112788*
X01764606Y0211311*
X017637Y0211337*
X01762777Y02113566*
X01761843Y02113697*
X01760902Y02113763*
X01759959*
X01759018Y02113697*
X01758084Y02113566*
X01757161Y0211337*
X01756255Y0211311*
X01755368Y02112788*
X01754507Y02112404*
X01753674Y02111961*
X01752874Y02111461*
X01752111Y02110907*
X01751388Y02110301*
X0175071Y02109645*
X01750079Y02108944*
X01749498Y02108201*
X01748971Y02107419*
X01748499Y02106602*
X01748086Y02105754*
X01747732Y0210488*
X01747441Y02103983*
X01747213Y02103068*
X01747049Y02102139*
X0174695Y02101201*
X01746917Y02100258*
X0174695Y02099316*
X01747049Y02098378*
X01747213Y02097449*
X01747441Y02096534*
X01747732Y02095637*
X01748086Y02094762*
X01748499Y02093914*
X01748971Y02093098*
X01749498Y02092316*
X01750079Y02091572*
X0175071Y02090871*
X01751388Y02090216*
X01752111Y0208961*
X01752874Y02089056*
X01753674Y02088556*
X01754507Y02088113*
X01755368Y02087729*
X01756255Y02087407*
X01757161Y02087147*
X01758084Y02086951*
X01759018Y02086819*
X01759959Y02086754*
X01760902*
X01761843Y02086819*
X01762777Y02086951*
X017637Y02087147*
X01764606Y02087407*
X01765493Y02087729*
X01766354Y02088113*
X01767187Y02088556*
X01767987Y02089056*
X0176875Y0208961*
X01769472Y02090216*
X01770151Y02090871*
X01770782Y02091572*
X01771363Y02092316*
X0177189Y02093098*
X01772362Y02093914*
X01772775Y02094762*
X01773129Y02095637*
X0177342Y02096534*
X01773648Y02097449*
X01773812Y02098378*
X0177391Y02099316*
X01773943Y02100255*
X01024439Y01966218D02*
X0102451Y01966147D01*
X00981259Y01966218D02*
X0098133Y01966147D01*
X01021987Y01939808D02*
Y01939908D01*
X01001579Y01922967D02*
X0100165Y01923038D01*
X0097524Y01925489D02*
X0097534D01*
X00958399Y01945898D02*
X0095847Y01945827D01*
X00960921Y01972137D02*
Y01972237D01*
X00981259Y01989007D02*
X0098133Y01989078D01*
X01007569Y01986555D02*
X01007669D01*
X01084426Y01983427D02*
X01084519Y01983389D01*
X0112432Y01999951D02*
X01124412Y01999913D01*
X01164213Y02016475D02*
X01164305Y02016437D01*
X01208458Y02020951D02*
X01208548Y02020907D01*
X01199711Y02045067D02*
X01199806Y02045034D01*
X01249224Y02035186D02*
X01249314Y02035143D01*
X01238603Y02063826D02*
X01238698Y02063793D01*
X01066808Y02016909D02*
X01066908D01*
X01097341Y02047442D02*
X01097441D01*
X01127874Y02077975D02*
X01127974D01*
X01167038Y02099041D02*
X01167138Y02099035D01*
X01149729Y02117974D02*
X01149828Y0211798D01*
X01199253Y02127794D02*
X01199353Y02127788D01*
X01178481Y02150189D02*
X01178581Y02150195D01*
X01037717Y020411D02*
X0103781Y02041138D01*
X01054241Y02080993D02*
X01054334Y02081031D01*
X01070766Y02120886D02*
X01070858Y02120924D01*
X01098888Y02155337D02*
X01098982Y0215537D01*
X0107565Y02166205D02*
X0107574Y02166248D01*
X01117647Y02194229D02*
X01117741Y02194262D01*
X01089886Y0220697D02*
X01089976Y02207014D01*
X01001584Y02052317D02*
X01001654Y02052388D01*
X01001584Y02095497D02*
X01001654Y02095568D01*
X01001584Y02138677D02*
X01001654Y02138748D01*
X01014381Y02181267D02*
X01014456Y02181334D01*
X00988753Y02182415D02*
X0098882Y0218249D01*
X01016829Y02224378D02*
X01016904Y02224444D01*
X00986305Y02225525D02*
X00986372Y022256D01*
X00963908Y02048853D02*
X00963946Y02048945D01*
X00947384Y02088746D02*
X00947422Y02088838D01*
X00930859Y02128639D02*
X00930898Y02128731D01*
X00926384Y02172884D02*
X00926428Y02172974D01*
X00902268Y02164137D02*
X00902301Y02164232D01*
X00912149Y0221365D02*
X00912192Y0221374D01*
X00883509Y0220303D02*
X00883542Y02203124D01*
X00930426Y02031234D02*
Y02031334D01*
X00899893Y02061767D02*
Y02061867D01*
X0086936Y020923D02*
Y020924D01*
X00848294Y02131465D02*
X00848299Y02131565D01*
X00829355Y02114255D02*
X0082936Y02114155D01*
X00819541Y0216368D02*
X00819547Y02163779D01*
X0079714Y02143007D02*
X00797146Y02142907D01*
X00906197Y02002236D02*
X00906235Y02002144D01*
X00866303Y0201876D02*
X00866342Y02018668D01*
X0082641Y02035285D02*
X00826449Y02035192D01*
X00791965Y02063408D02*
X00791998Y02063314D01*
X00781087Y02040166D02*
X0078113Y02040076D01*
X00753073Y02082168D02*
X00753106Y02082073D01*
X00740321Y02054402D02*
X00740365Y02054312D01*
X00894947Y01966081D02*
X00895018Y0196601D01*
X00851767Y01966081D02*
X00851838Y0196601D01*
X00808587Y01966081D02*
X00808658Y0196601D01*
X00766001Y01978882D02*
X00766068Y01978808D01*
X00764845Y01953246D02*
X00764921Y0195318D01*
X00722891Y0198133D02*
X00722957Y01981256D01*
X00721735Y01950798D02*
X00721809Y01950732D01*
X0089839Y01928373D02*
X00898482Y01928334D01*
X00858496Y01911848D02*
X00858589Y0191181D01*
X00818603Y01895324D02*
X00818696Y01895286D01*
X0077436Y01890854D02*
X00774451Y01890811D01*
X00783103Y01866727D02*
X00783197Y01866694D01*
X00733595Y01876618D02*
X00733685Y01876575D01*
X00744211Y01847968D02*
X00744305Y01847935D01*
X00915946Y01894863D02*
X00916046D01*
X00885414Y0186433D02*
X00885514D01*
X00854935Y01833786D02*
X00855035D01*
X0081577Y01812726D02*
X0081587Y0181272D01*
X0083308Y01793781D02*
X0083318Y01793787D01*
X00783556Y01783973D02*
X00783655Y01783969D01*
X00804327Y01761566D02*
X00804427Y01761572D01*
X00945044Y01870634D02*
X00945137Y01870672D01*
X0092852Y01830741D02*
X00928613Y01830779D01*
X0091205Y01790837D02*
X00912143Y01790875D01*
X00883926Y01756392D02*
X00884021Y01756424D01*
X00907168Y01745513D02*
X00907259Y01745557D01*
X00865167Y01717499D02*
X00865261Y01717532D01*
X00892932Y01704747D02*
X00893023Y01704791D01*
X00981254Y01859373D02*
X00981325Y01859444D01*
X00981251Y01816196D02*
X00981321Y01816267D01*
X00981254Y01773013D02*
X00981325Y01773084D01*
X00968453Y01730428D02*
X00968527Y01730494D01*
X00994088Y01729272D02*
X00994156Y01729346D01*
X00966004Y01687317D02*
X00966079Y01687384D01*
X00996536Y01686161D02*
X00996603Y01686236D01*
X01018962Y01862816D02*
X01019Y01862908D01*
X01035487Y01822923D02*
X01035525Y01823015D01*
X01052011Y0178303D02*
X01052049Y01783122D01*
X01056481Y01738787D02*
X01056524Y01738877D01*
X01080607Y01747529D02*
X0108064Y01747624D01*
X01070716Y01698021D02*
X0107076Y01698111D01*
X01099367Y01708637D02*
X010994Y01708731D01*
X01052483Y01880427D02*
Y01880527D01*
X01083016Y01849894D02*
Y01849994D01*
X01113548Y01819361D02*
Y01819461D01*
X01134609Y01780197D02*
X01134615Y01780296D01*
X01153548Y01797606D02*
X01153554Y01797506D01*
X01163362Y01747982D02*
X01163367Y01748082D01*
X01185763Y01768854D02*
X01185768Y01768754D01*
X01076674Y01909618D02*
X01076712Y01909525D01*
X01116567Y01893093D02*
X01116605Y01893001D01*
X0115646Y01876569D02*
X01156498Y01876477D01*
X0119091Y01848447D02*
X01190943Y01848353D01*
X01201778Y01871685D02*
X01201822Y01871595D01*
X01229802Y01829689D02*
X01229835Y01829593D01*
X01242544Y01857449D02*
X01242587Y01857359D01*
X01087891Y01945751D02*
X01087962Y0194568D01*
X01131071Y01945751D02*
X01131142Y0194568D01*
X01174251Y01945751D02*
X01174322Y0194568D01*
X01216841Y01932954D02*
X01216907Y01932879D01*
X01217989Y01958581D02*
X01218063Y01958515D01*
X01259951Y01930505D02*
X01260018Y01930431D01*
X01261099Y01961029D02*
X01261174Y01960963D01*
X02431229Y01945379D02*
X02431158Y0194545D01*
X02474409Y01945379D02*
X02474338Y0194545D01*
X02433681Y01971789D02*
Y01971689D01*
X02454089Y0198863D02*
X02454018Y01988559D01*
X02480428Y01986107D02*
X02480328D01*
X02497269Y01965699D02*
X02497198Y0196577D01*
X02494746Y0193946D02*
Y0193936D01*
X02474409Y0192259D02*
X02474338Y01922519D01*
X02448099Y01925042D02*
X02447999D01*
X02371242Y0192817D02*
X02371149Y01928208D01*
X02331348Y01911646D02*
X02331256Y01911684D01*
X02291455Y01895121D02*
X02291363Y0189516D01*
X0224721Y01890646D02*
X0224712Y0189069D01*
X02255957Y0186653D02*
X02255862Y01866563D01*
X02206444Y0187641D02*
X02206354Y01876454D01*
X02217065Y01847771D02*
X0221697Y01847804D01*
X0238886Y01894688D02*
X0238876D01*
X02358327Y01864155D02*
X02358227D01*
X02327794Y01833622D02*
X02327694D01*
X0228863Y01812556D02*
X0228853Y01812561D01*
X0230594Y01793622D02*
X0230584Y01793617D01*
X02256415Y01783803D02*
X02256315Y01783809D01*
X02277187Y01761408D02*
X02277087Y01761402D01*
X02417951Y01870497D02*
X02417858Y01870458D01*
X02401426Y01830604D02*
X02401334Y01830565D01*
X02384902Y0179071D02*
X0238481Y01790672D01*
X0235678Y0175626D02*
X02356686Y01756227D01*
X02380018Y01745392D02*
X02379928Y01745349D01*
X02338021Y01717368D02*
X02337927Y01717335D01*
X02365782Y01704626D02*
X02365692Y01704583D01*
X02454084Y0185928D02*
X02454014Y01859209D01*
X02454084Y018161D02*
X02454014Y01816029D01*
X02454084Y0177292D02*
X02454014Y01772849D01*
X02441287Y0173033D02*
X02441212Y01730263D01*
X02466914Y01729182D02*
X02466848Y01729107D01*
X02438839Y01687219D02*
X02438764Y01687153D01*
X02469363Y01686071D02*
X02469296Y01685997D01*
X0249176Y01862744D02*
X02491722Y01862651D01*
X02508284Y01822851D02*
X02508246Y01822758D01*
X02524809Y01782958D02*
X0252477Y01782865D01*
X02529284Y01738712D02*
X0252924Y01738622D01*
X025534Y01747459D02*
X02553367Y01747365D01*
X0254352Y01697947D02*
X02543476Y01697857D01*
X02572159Y01708567D02*
X02572126Y01708473D01*
X02525242Y01880362D02*
Y01880263D01*
X02555775Y0184983D02*
Y0184973D01*
X02586308Y01819297D02*
Y01819197D01*
X02607374Y01780132D02*
X02607368Y01780032D01*
X02626313Y01797342D02*
X02626308Y01797442D01*
X02636127Y01747917D02*
X02636121Y01747817D01*
X02658528Y01768589D02*
X02658522Y01768689D01*
X02549472Y01909361D02*
X02549433Y01909453D01*
X02589365Y01892836D02*
X02589326Y01892929D01*
X02629258Y01876312D02*
X02629219Y01876404D01*
X02663703Y01848188D02*
X0266367Y01848283D01*
X02674581Y0187143D02*
X02674538Y0187152D01*
X02702595Y01829429D02*
X02702562Y01829523D01*
X02715347Y01857194D02*
X02715304Y01857284D01*
X02560721Y01945516D02*
X02560651Y01945587D01*
X02603901Y01945516D02*
X0260383Y01945587D01*
X02647081Y01945516D02*
X0264701Y01945587D01*
X02689667Y01932714D02*
X026896Y01932789D01*
X02690823Y0195835D02*
X02690749Y01958417D01*
X02732777Y01930266D02*
X02732711Y01930341D01*
X02733933Y01960798D02*
X02733859Y01960865D01*
X02557278Y01983224D02*
X02557186Y01983262D01*
X02597172Y01999748D02*
X02597079Y01999787D01*
X02637065Y02016273D02*
X02636972Y02016311D01*
X02681308Y02020742D02*
X02681217Y02020786D01*
X02672565Y02044869D02*
X02672471Y02044902D01*
X02722073Y02034978D02*
X02721983Y02035022D01*
X02711457Y02063629D02*
X02711363Y02063662D01*
X02539722Y02016734D02*
X02539622D01*
X02570254Y02047266D02*
X02570154D01*
X02600733Y0207781D02*
X02600633D01*
X02639898Y02098871D02*
X02639798Y02098876D01*
X02622588Y02117815D02*
X02622488Y0211781D01*
X02672113Y02127623D02*
X02672013Y02127629D01*
X02651341Y0215003D02*
X02651241Y02150024D01*
X02510623Y02040963D02*
X02510531Y02040925D01*
X02527148Y02080856D02*
X02527055Y02080818D01*
X02543618Y0212076D02*
X02543525Y02120722D01*
X02571742Y02155205D02*
X02571647Y02155172D01*
X025485Y02166083D02*
X02548409Y0216604D01*
X02590501Y02194097D02*
X02590407Y02194064D01*
X02562736Y02206849D02*
X02562645Y02206806D01*
X02474414Y02052223D02*
X02474343Y02052153D01*
X02474417Y02095401D02*
X02474347Y0209533D01*
X02474414Y02138583D02*
X02474343Y02138513D01*
X02487215Y02181169D02*
X02487141Y02181103D01*
X0246158Y02182325D02*
X02461514Y0218225D01*
X02489663Y0222428D02*
X02489589Y02224213D01*
X02459132Y02225436D02*
X02459065Y02225361D01*
X02436706Y02048781D02*
X02436667Y02048688D01*
X02420181Y02088674D02*
X02420143Y02088581D01*
X02403657Y02128567D02*
X02403619Y02128474D01*
X02399187Y0217281D02*
X02399144Y0217272D01*
X02375061Y02164067D02*
X02375028Y02163973D01*
X02384952Y02213576D02*
X02384908Y02213485D01*
X02356301Y0220296D02*
X02356268Y02202865D01*
X02403185Y0203117D02*
Y0203107D01*
X02372653Y02061702D02*
Y02061603D01*
X0234212Y02092235D02*
Y02092135D01*
X02321059Y021314D02*
X02321053Y021313D01*
X0230212Y0211399D02*
X02302114Y0211409D01*
X02292306Y02163615D02*
X02292301Y02163515D01*
X02269905Y02142744D02*
X022699Y02142843D01*
X02378994Y02001979D02*
X02378956Y02002071D01*
X02339101Y02018503D02*
X02339063Y02018596D01*
X02299208Y02035028D02*
X0229917Y0203512D01*
X02264758Y0206315D02*
X02264725Y02063244D01*
X0225389Y02039912D02*
X02253846Y02040002D01*
X02225866Y02081909D02*
X02225833Y02082003D01*
X02213124Y02054148D02*
X02213081Y02054238D01*
X02367777Y01965846D02*
X02367706Y01965916D01*
X02324597Y01965846D02*
X02324526Y01965916D01*
X02281417Y01965846D02*
X02281346Y01965916D01*
X02238827Y01978643D02*
X02238761Y01978718D01*
X02237679Y01953015D02*
X02237605Y01953082D01*
X02195717Y01981091D02*
X0219565Y01981166D01*
X02194569Y01950567D02*
X02194494Y01950634D01*
G54D23*
X01391483Y01846645D02*
D01*
X01392331Y01846905*
X01393159Y01847222*
X01393962Y01847597*
X01394737Y01848027*
X01395481Y01848509*
X01396189Y01849043*
X01396858Y01849624*
X01397484Y01850251*
X01398066Y0185092*
X01398599Y01851628*
X01399082Y01852371*
X01399512Y01853147*
X01399886Y0185395*
X01400204Y01854778*
X01400463Y01855625*
X01400663Y01856489*
X01400801Y01857365*
X01400879Y01858248*
X01400894Y01859134*
X01400848Y01860019*
X0140074Y01860899*
X01400571Y01861769*
X01400341Y01862625*
X01400053Y01863464*
X01399706Y01864279*
X01399304Y01865069*
X01398847Y01865829*
X01398339Y01866555*
X01397781Y01867244*
X01397176Y01867892*
X01396528Y01868497*
X01395839Y01869055*
X01395113Y01869563*
X01394353Y0187002*
X01393563Y01870422*
X01392748Y01870769*
X01391909Y01871057*
X01391053Y01871287*
X01390183Y01871456*
X01389303Y01871564*
X01388418Y0187161*
X01387532Y01871595*
X01386648Y01871517*
X01385773Y01871379*
X01384909Y0187118*
X01360375Y01864606D02*
D01*
X01359528Y01864347*
X013587Y0186403*
X01357897Y01863655*
X01357122Y01863225*
X01356378Y01862742*
X0135567Y01862209*
X01355001Y01861627*
X01354374Y01861001*
X01353793Y01860332*
X01353259Y01859624*
X01352777Y0185888*
X01352347Y01858105*
X01351972Y01857302*
X01351654Y01856474*
X01351395Y01855626*
X01351196Y01854763*
X01351057Y01853887*
X0135098Y01853004*
X01350965Y01852118*
X01351011Y01851233*
X01351119Y01850353*
X01351288Y01849482*
X01351517Y01848626*
X01351806Y01847788*
X01352152Y01846972*
X01352555Y01846182*
X01353012Y01845423*
X0135352Y01844696*
X01354078Y01844007*
X01354682Y01843359*
X01355331Y01842755*
X0135602Y01842197*
X01356746Y01841688*
X01357506Y01841232*
X01358295Y01840829*
X01359111Y01840483*
X01359949Y01840194*
X01360806Y01839965*
X01361676Y01839796*
X01362556Y01839688*
X01363441Y01839641*
X01364327Y01839657*
X0136521Y01839734*
X01366086Y01839873*
X01366949Y01840071*
X01360375Y01864606D02*
X01384909Y0187118D01*
X01366949Y01840071D02*
X01391483Y01846645D01*
X01824779Y01822609D02*
Y0188976D01*
Y02071359D02*
Y02078609D01*
X01643779D02*
X01668879D01*
X01799679D02*
X01824779D01*
X01643779Y01822609D02*
Y0188976D01*
Y02071359D02*
Y02078609D01*
Y01822609D02*
X01824779D01*
X01630294Y01974619D02*
Y02024619D01*
X01588794Y01974619D02*
Y02024619D01*
X01835849Y02029229D02*
Y02032229D01*
X01859849Y02029229D02*
Y02032229D01*
X01868929Y01983189D02*
X01869929D01*
Y01976689D02*
Y01983189D01*
X01835929D02*
X01836929D01*
X01835929Y01976689D02*
Y01983189D01*
Y01946189D02*
X01836929D01*
X01835929D02*
Y01952689D01*
X01868929Y01946189D02*
X01869929D01*
Y01952689D01*
G54D82*
X01836779Y01898009D02*
D01*
X01836776Y01898097*
X01836767Y01898183*
X01836752Y01898269*
X01836731Y01898354*
X01836704Y01898437*
X01836671Y01898518*
X01836633Y01898596*
X01836589Y01898672*
X01836541Y01898744*
X01836487Y01898813*
X01836429Y01898878*
X01836366Y01898938*
X01836299Y01898994*
X01836228Y01899046*
X01836154Y01899092*
X01836077Y01899133*
X01835998Y01899168*
X01835916Y01899198*
X01835832Y01899222*
X01835746Y0189924*
X0183566Y01899252*
X01835573Y01899259*
X01835486*
X01835399Y01899252*
X01835312Y0189924*
X01835227Y01899222*
X01835143Y01899198*
X01835061Y01899168*
X01834981Y01899133*
X01834904Y01899092*
X0183483Y01899046*
X0183476Y01898994*
X01834693Y01898938*
X0183463Y01898878*
X01834572Y01898813*
X01834518Y01898744*
X01834469Y01898672*
X01834426Y01898596*
X01834388Y01898518*
X01834355Y01898437*
X01834328Y01898354*
X01834307Y01898269*
X01834291Y01898183*
X01834282Y01898097*
X01834279Y01898009*
X01834282Y01897922*
X01834291Y01897835*
X01834307Y0189775*
X01834328Y01897665*
X01834355Y01897582*
X01834388Y01897501*
X01834426Y01897422*
X01834469Y01897347*
X01834518Y01897275*
X01834572Y01897206*
X0183463Y01897141*
X01834693Y01897081*
X0183476Y01897024*
X0183483Y01896973*
X01834904Y01896927*
X01834981Y01896886*
X01835061Y0189685*
X01835143Y0189682*
X01835227Y01896797*
X01835312Y01896778*
X01835399Y01896766*
X01835486Y0189676*
X01835573*
X0183566Y01896766*
X01835746Y01896778*
X01835832Y01896797*
X01835916Y0189682*
X01835998Y0189685*
X01836077Y01896886*
X01836154Y01896927*
X01836228Y01896973*
X01836299Y01897024*
X01836366Y01897081*
X01836429Y01897141*
X01836487Y01897206*
X01836541Y01897275*
X01836589Y01897347*
X01836633Y01897422*
X01836671Y01897501*
X01836704Y01897582*
X01836731Y01897665*
X01836752Y0189775*
X01836767Y01897835*
X01836776Y01897922*
X01836779Y01898009*
X01635544Y01979619D02*
D01*
X01635541Y01979706*
X01635532Y01979793*
X01635517Y01979879*
X01635496Y01979964*
X01635469Y01980047*
X01635436Y01980128*
X01635398Y01980206*
X01635354Y01980282*
X01635306Y01980354*
X01635252Y01980423*
X01635194Y01980488*
X01635131Y01980548*
X01635064Y01980604*
X01634993Y01980656*
X01634919Y01980702*
X01634842Y01980743*
X01634763Y01980778*
X01634681Y01980808*
X01634597Y01980832*
X01634511Y01980851*
X01634425Y01980862*
X01634338Y01980869*
X01634251*
X01634164Y01980862*
X01634077Y01980851*
X01633992Y01980832*
X01633908Y01980808*
X01633826Y01980778*
X01633746Y01980743*
X01633669Y01980702*
X01633595Y01980656*
X01633525Y01980604*
X01633458Y01980548*
X01633395Y01980488*
X01633337Y01980423*
X01633283Y01980354*
X01633234Y01980282*
X01633191Y01980206*
X01633152Y01980128*
X0163312Y01980047*
X01633093Y01979964*
X01633072Y01979879*
X01633056Y01979793*
X01633048Y01979706*
X01633044Y01979619*
X01633048Y01979532*
X01633056Y01979445*
X01633072Y0197936*
X01633093Y01979275*
X0163312Y01979192*
X01633152Y01979111*
X01633191Y01979033*
X01633234Y01978957*
X01633283Y01978885*
X01633337Y01978816*
X01633395Y01978751*
X01633458Y0197869*
X01633525Y01978634*
X01633595Y01978583*
X01633669Y01978537*
X01633746Y01978496*
X01633826Y0197846*
X01633908Y01978431*
X01633992Y01978407*
X01634077Y01978388*
X01634164Y01978376*
X01634251Y0197837*
X01634338*
X01634425Y01978376*
X01634511Y01978388*
X01634597Y01978407*
X01634681Y01978431*
X01634763Y0197846*
X01634842Y01978496*
X01634919Y01978537*
X01634993Y01978583*
X01635064Y01978634*
X01635131Y0197869*
X01635194Y01978751*
X01635252Y01978816*
X01635306Y01978885*
X01635354Y01978957*
X01635398Y01979033*
X01635436Y01979111*
X01635469Y01979192*
X01635496Y01979275*
X01635517Y0197936*
X01635532Y01979445*
X01635541Y01979532*
X01635544Y01979619*
X01870179Y01988689D02*
D01*
X01870176Y01988777*
X01870167Y01988863*
X01870152Y01988949*
X01870131Y01989034*
X01870104Y01989117*
X01870071Y01989198*
X01870033Y01989276*
X01869989Y01989352*
X01869941Y01989424*
X01869887Y01989493*
X01869829Y01989558*
X01869766Y01989618*
X01869699Y01989674*
X01869628Y01989726*
X01869554Y01989772*
X01869477Y01989813*
X01869398Y01989848*
X01869316Y01989878*
X01869232Y01989902*
X01869146Y0198992*
X0186906Y01989933*
X01868973Y01989939*
X01868886*
X01868799Y01989933*
X01868712Y0198992*
X01868627Y01989902*
X01868543Y01989878*
X01868461Y01989848*
X01868381Y01989813*
X01868304Y01989772*
X0186823Y01989726*
X0186816Y01989674*
X01868093Y01989618*
X0186803Y01989558*
X01867972Y01989493*
X01867918Y01989424*
X01867869Y01989352*
X01867826Y01989276*
X01867787Y01989198*
X01867755Y01989117*
X01867728Y01989034*
X01867707Y01988949*
X01867691Y01988863*
X01867682Y01988777*
X01867679Y01988689*
X01867682Y01988602*
X01867691Y01988515*
X01867707Y0198843*
X01867728Y01988345*
X01867755Y01988262*
X01867787Y01988181*
X01867826Y01988102*
X01867869Y01988027*
X01867918Y01987955*
X01867972Y01987886*
X0186803Y01987821*
X01868093Y0198776*
X0186816Y01987704*
X0186823Y01987653*
X01868304Y01987607*
X01868381Y01987566*
X01868461Y0198753*
X01868543Y019875*
X01868627Y01987477*
X01868712Y01987458*
X01868799Y01987446*
X01868886Y0198744*
X01868973*
X0186906Y01987446*
X01869146Y01987458*
X01869232Y01987477*
X01869316Y019875*
X01869398Y0198753*
X01869477Y01987566*
X01869554Y01987607*
X01869628Y01987653*
X01869699Y01987704*
X01869766Y0198776*
X01869829Y01987821*
X01869887Y01987886*
X01869941Y01987955*
X01869989Y01988027*
X01870033Y01988102*
X01870071Y01988181*
X01870104Y01988262*
X01870131Y01988345*
X01870152Y0198843*
X01870167Y01988515*
X01870176Y01988602*
X01870179Y01988689*
G54D83*
X01705719Y02089729D02*
Y02098729D01*
X01687719Y02089729D02*
Y02098729D01*
Y02089729D02*
X01705719D01*
X01687719Y02098729D02*
X01705719D01*
Y02102429D02*
Y02111429D01*
X01687719Y02102429D02*
Y02111429D01*
Y02102429D02*
X01705719D01*
X01687719Y02111429D02*
X01705719D01*
X01854728Y01919159D02*
X01863728D01*
X01854728Y01937159D02*
X01863728D01*
X01854728Y01919159D02*
Y01937159D01*
X01863728Y01919159D02*
Y01937159D01*
X01841869Y01919159D02*
X01850869D01*
X01841869Y01937159D02*
X01850869D01*
X01841869Y01919159D02*
Y01937159D01*
X01850869Y01919159D02*
Y01937159D01*
X01612054Y0203645D02*
X01621054D01*
X01612054Y0205445D02*
X01621054D01*
X01612054Y0203645D02*
Y0205445D01*
X01621054Y0203645D02*
Y0205445D01*
X01624649Y02036529D02*
X01633649D01*
X01624649Y02054529D02*
X01633649D01*
X01624649Y02036529D02*
Y02054529D01*
X01633649Y02036529D02*
Y02054529D01*
X01599373Y02054708D02*
X01608373D01*
X01599373Y02036708D02*
X01608373D01*
Y02054708*
X01599373Y02036708D02*
Y02054708D01*
X01619794Y01944259D02*
X01628794D01*
X01619794Y01962259D02*
X01628794D01*
X01619794Y01944259D02*
Y01962259D01*
X01628794Y01944259D02*
Y01962259D01*
X01598189Y01953219D02*
Y01962219D01*
X01616189Y01953219D02*
Y01962219D01*
X01598189D02*
X01616189D01*
X01598189Y01953219D02*
X01616189D01*
X01867428Y01913892D02*
X01876428D01*
X01867428Y01895893D02*
X01876428D01*
Y01913892*
X01867428Y01895893D02*
Y01913892D01*
X01853929Y01988129D02*
Y01997129D01*
X01835929Y01988129D02*
Y01997129D01*
Y01988129D02*
X01853929D01*
X01835929Y01997129D02*
X01853929D01*
Y02000789D02*
Y02009789D01*
X01835929Y02000789D02*
Y02009789D01*
Y02000789D02*
X01853929D01*
X01835929Y02009789D02*
X01853929D01*
X01842119Y01913999D02*
X01851119D01*
X01842119Y01895999D02*
X01851119D01*
Y01913999*
X01842119Y01895999D02*
Y01913999D01*
X01854728Y01913892D02*
X01863728D01*
X01854728Y01895893D02*
X01863728D01*
Y01913892*
X01854728Y01895893D02*
Y01913892D01*
X01575379Y0201295D02*
X01584379D01*
X01575379Y01994949D02*
X01584379D01*
Y0201295*
X01575379Y01994949D02*
Y0201295D01*
X01026134Y01947522D02*
Y01964522D01*
X01043134*
X01026134Y01947522D02*
X01043134D01*
Y01964522*
X00982954Y01947522D02*
Y01964522D01*
X00999954*
X00982954Y01947522D02*
X00999954D01*
Y01964522*
X01009966Y01925489D02*
X01021987Y0193751D01*
X01034008Y01925489*
X01009966D02*
X01021987Y01913469D01*
X01034008Y01925489*
X00982954Y01921342D02*
X00999954D01*
Y01904342D02*
Y01921342D01*
X00982954Y01904342D02*
Y01921342D01*
Y01904342D02*
X00999954D01*
X00960921Y0193751D02*
X00972942Y01925489D01*
X00960921Y01913469D02*
X00972942Y01925489D01*
X00948901D02*
X00960921Y0193751D01*
X00948901Y01925489D02*
X00960921Y01913469D01*
X00956774Y01947522D02*
Y01964522D01*
X00939774Y01947522D02*
X00956774D01*
X00939774Y01964522D02*
X00956774D01*
X00939774Y01947522D02*
Y01964522D01*
X00960921Y01974534D02*
X00972942Y01986555D01*
X00948901D02*
X00960921Y01974534D01*
Y01998576D02*
X00972942Y01986555D01*
X00948901D02*
X00960921Y01998576D01*
X00982954Y01990702D02*
X00999954D01*
X00982954D02*
Y02007702D01*
X00999954Y01990702D02*
Y02007702D01*
X00982954D02*
X00999954D01*
X01009966Y01986555D02*
X01021987Y01974534D01*
X01009966Y01986555D02*
X01021987Y01998576D01*
Y01974534D02*
X01034008Y01986555D01*
X01021987Y01998576D02*
X01034008Y01986555D01*
X01075798Y02000012D02*
X01082304Y01984306D01*
X01066598Y01977801D02*
X01082304Y01984306D01*
X01060092Y01993507D02*
X01075798Y02000012D01*
X01060092Y01993507D02*
X01066598Y01977801D01*
X01115691Y02016536D02*
X01122197Y0200083D01*
X01106491Y01994325D02*
X01122197Y0200083D01*
X01099985Y02010031D02*
X01115691Y02016536D01*
X01099985Y02010031D02*
X01106491Y01994325D01*
X01155584Y02033061D02*
X0116209Y02017355D01*
X01146384Y02010849D02*
X0116209Y02017355D01*
X01139878Y02026555D02*
X01155584Y02033061D01*
X01139878Y02026555D02*
X01146384Y02010849D01*
X01200785Y02037998D02*
X01206388Y02021948D01*
X01190339Y02016344D02*
X01206388Y02021948D01*
X01184734Y02032393D02*
X01200785Y02037998D01*
X01184734Y02032393D02*
X01190339Y02016344D01*
X01190156Y02061136D02*
X01197542Y02045824D01*
X0118223Y02038439D02*
X01197542Y02045824D01*
X01174845Y02053751D02*
X01190156Y02061136D01*
X01174845Y02053751D02*
X0118223Y02038439D01*
X0124155Y02052234D02*
X01247154Y02036184D01*
X01231105Y0203058D02*
X01247154Y02036184D01*
X012255Y02046629D02*
X0124155Y02052234D01*
X012255Y02046629D02*
X01231105Y0203058D01*
X01229049Y02079895D02*
X01236434Y02064584D01*
X01221122Y02057198D02*
X01236434Y02064584D01*
X01213737Y0207251D02*
X01229049Y02079895D01*
X01213737Y0207251D02*
X01221122Y02057198D01*
X01052489Y0202893D02*
X0106451Y02016909D01*
X01052489Y02004888D02*
X0106451Y02016909D01*
X01040469D02*
X01052489Y0202893D01*
X01040469Y02016909D02*
X01052489Y02004888D01*
X01083022Y02059463D02*
X01095043Y02047442D01*
X01083022Y02035421D02*
X01095043Y02047442D01*
X01071002D02*
X01083022Y02059463D01*
X01071002Y02047442D02*
X01083022Y02035421D01*
X01113555Y02089995D02*
X01125576Y02077975D01*
X01113555Y02065954D02*
X01125576Y02077975D01*
X01101534D02*
X01113555Y02089995D01*
X01101534Y02077975D02*
X01113555Y02065954D01*
X01153425Y02111854D02*
X01164744Y02099171D01*
X01152062Y02087851D02*
X01164744Y02099171D01*
X01140741Y02100534D02*
X01153425Y02111854D01*
X01140741Y02100534D02*
X01152062Y02087851D01*
X01134752Y02129164D02*
X01147435Y02117844D01*
X01136115Y02105161D02*
X01147435Y02117844D01*
X01123432Y02116481D02*
X01134752Y02129164D01*
X01123432Y02116481D02*
X01136115Y02105161D01*
X01185639Y02140607D02*
X01196959Y02127924D01*
X01184276Y02116604D02*
X01196959Y02127924D01*
X01172956Y02129287D02*
X01185639Y02140607D01*
X01172956Y02129287D02*
X01184276Y02116604D01*
X01163504Y02161379D02*
X01176187Y02150059D01*
X01164867Y02137376D02*
X01176187Y02150059D01*
X01152184Y02148696D02*
X01163504Y02161379D01*
X01152184Y02148696D02*
X01164867Y02137376D01*
X01019889Y02046726D02*
X01035595Y02040221D01*
X01029089Y02024515D02*
X01035595Y02040221D01*
X01013383Y0203102D02*
X01019889Y02046726D01*
X01013383Y0203102D02*
X01029089Y02024515D01*
X01036413Y02086619D02*
X01052119Y02080114D01*
X01045613Y02064408D02*
X01052119Y02080114D01*
X01029907Y02070913D02*
X01036413Y02086619D01*
X01029907Y02070913D02*
X01045613Y02064408D01*
X01052937Y02126513D02*
X01068643Y02120007D01*
X01062138Y02104301D02*
X01068643Y02120007D01*
X01046432Y02110807D02*
X01052937Y02126513D01*
X01046432Y02110807D02*
X01062138Y02104301D01*
X01081407Y02161965D02*
X01096719Y02154579D01*
X01089333Y02139267D02*
X01096719Y02154579D01*
X01074021Y02146653D02*
X01081407Y02161965D01*
X01074021Y02146653D02*
X01089333Y02139267D01*
X01057531Y02170811D02*
X0107358Y02165206D01*
X01067976Y02149157D02*
X0107358Y02165206D01*
X01051926Y02154762D02*
X01057531Y02170811D01*
X01051926Y02154762D02*
X01067976Y02149157D01*
X01100166Y02200857D02*
X01115478Y02193471D01*
X01108092Y02178159D02*
X01115478Y02193471D01*
X01092781Y02185545D02*
X01100166Y02200857D01*
X01092781Y02185545D02*
X01108092Y02178159D01*
X01071767Y02211578D02*
X01087817Y02205972D01*
X01082212Y02189923D02*
X01087817Y02205972D01*
X01066162Y02195527D02*
X01071767Y02211578D01*
X01066162Y02195527D02*
X01082212Y02189923D01*
X00982959Y02050693D02*
X00999959D01*
Y02033693D02*
Y02050693D01*
X00982959Y02033693D02*
Y02050693D01*
Y02033693D02*
X00999959D01*
X00982959Y02093872D02*
X00999959D01*
Y02076872D02*
Y02093872D01*
X00982959Y02076872D02*
Y02093872D01*
Y02076872D02*
X00999959D01*
X00982959Y02137053D02*
X00999959D01*
Y02120053D02*
Y02137053D01*
X00982959Y02120053D02*
Y02137053D01*
Y02120053D02*
X00999959D01*
X00995694Y02180701D02*
X01012667Y02179737D01*
X01011703Y02162764D02*
X01012667Y02179737D01*
X00994731Y02163728D02*
X00995694Y02180701D01*
X00994731Y02163728D02*
X01011703Y02162764D01*
X00970251Y02179737D02*
X00987224Y02180701D01*
X00988187Y02163728*
X00970251Y02179737D02*
X00971215Y02162764D01*
X00988187Y02163728*
X00998143Y02223811D02*
X01015115Y02222848D01*
X01014152Y02205875D02*
X01015115Y02222848D01*
X00997179Y02206839D02*
X00998143Y02223811D01*
X00997179Y02206839D02*
X01014152Y02205875D01*
X00967803Y02222848D02*
X00984776Y02223811D01*
X00985739Y02206839*
X00967803Y02222848D02*
X00968767Y02205875D01*
X00985739Y02206839*
X00947323Y02040224D02*
X00963029Y0204673D01*
X00969534Y02031024*
X00947323Y02040224D02*
X00953828Y02024519D01*
X00969534Y02031024*
X00930798Y02080118D02*
X00946504Y02086623D01*
X0095301Y02070917*
X00930798Y02080118D02*
X00937304Y02064412D01*
X0095301Y02070917*
X00914274Y02120011D02*
X0092998Y02126516D01*
X00936486Y0211081*
X00914274Y02120011D02*
X0092078Y02104305D01*
X00936486Y0211081*
X00909337Y0216521D02*
X00925386Y02170815D01*
X00930991Y02154765*
X00909337Y0216521D02*
X00914941Y02149161D01*
X00930991Y02154765*
X00886199Y02154583D02*
X00901511Y02161968D01*
X00908896Y02146657*
X00886199Y02154583D02*
X00893584Y02139271D01*
X00908896Y02146657*
X00895101Y02205976D02*
X0091115Y02211581D01*
X00916755Y02195531*
X00895101Y02205976D02*
X00900706Y02189926D01*
X00916755Y02195531*
X00867439Y02193475D02*
X00882751Y02200861D01*
X00890137Y02185549*
X00867439Y02193475D02*
X00874825Y02178163D01*
X00890137Y02185549*
X00918405Y02016916D02*
X00930426Y02028937D01*
X00942447Y02016916*
X00918405D02*
X00930426Y02004895D01*
X00942447Y02016916*
X00887872Y02047449D02*
X00899893Y02059469D01*
X00911914Y02047449*
X00887872D02*
X00899893Y02035429D01*
X00911914Y02047449*
X00857339Y02077981D02*
X0086936Y02090002D01*
X00881381Y02077981*
X00857339D02*
X0086936Y02065961D01*
X00881381Y02077981*
X00835481Y02117852D02*
X00848164Y02129171D01*
X00859484Y02116488*
X00835481Y02117852D02*
X00846801Y02105168D01*
X00859484Y02116488*
X00818171Y02099178D02*
X00829491Y02111861D01*
X00842174Y02100541*
X00818171Y02099178D02*
X00830854Y02087858D01*
X00842174Y02100541*
X00806728Y02150066D02*
X00819411Y02161386D01*
X00830731Y02148703*
X00806728Y02150066D02*
X00818048Y02137383D01*
X00830731Y02148703*
X00785956Y02127931D02*
X00797276Y02140614D01*
X00809959Y02129294*
X00785956Y02127931D02*
X00798639Y02116611D01*
X00809959Y02129294*
X00900608Y01984315D02*
X00907114Y02000021D01*
X0092282Y01993515*
X00900608Y01984315D02*
X00916314Y01977809D01*
X0092282Y01993515*
X00860715Y02000839D02*
X00867221Y02016545D01*
X00882927Y0201004*
X00860715Y02000839D02*
X00876421Y01994334D01*
X00882927Y0201004*
X00820822Y02017364D02*
X00827328Y0203307D01*
X00843034Y02026564*
X00820822Y02017364D02*
X00836528Y02010858D01*
X00843034Y02026564*
X0078537Y02045833D02*
X00792756Y02061145D01*
X00808067Y02053759*
X0078537Y02045833D02*
X00800682Y02038447D01*
X00808067Y02053759*
X00776524Y02021957D02*
X00782128Y02038007D01*
X00798178Y02032402*
X00776524Y02021957D02*
X00792573Y02016353D01*
X00798178Y02032402*
X00746478Y02064593D02*
X00753864Y02079904D01*
X00769175Y02072519*
X00746478Y02064593D02*
X0076179Y02057207D01*
X00769175Y02072519*
X00735758Y02036193D02*
X00741363Y02052243D01*
X00757412Y02046638*
X00735758Y02036193D02*
X00751807Y02030589D01*
X00757412Y02046638*
X00896642Y01947385D02*
Y01964385D01*
X00913642*
X00896642Y01947385D02*
X00913642D01*
Y01964385*
X00853462Y01947385D02*
Y01964385D01*
X00870462*
X00853462Y01947385D02*
X00870462D01*
Y01964385*
X00810282Y01947385D02*
Y01964385D01*
X00827282*
X00810282Y01947385D02*
X00827282D01*
Y01964385*
X00766634Y01960121D02*
X00767598Y01977094D01*
X0078457Y0197613*
X00766634Y01960121D02*
X00783607Y01959157D01*
X0078457Y0197613*
X00766634Y0195165D02*
X00767598Y01934677D01*
X00766634Y0195165D02*
X00783607Y01952614D01*
X00767598Y01934677D02*
X0078457Y01935641D01*
X00783607Y01952614D02*
X0078457Y01935641D01*
X00723523Y01962569D02*
X00724487Y01979542D01*
X0074146Y01978578*
X00723523Y01962569D02*
X00740496Y01961605D01*
X0074146Y01978578*
X00723523Y01949202D02*
X00724487Y01932229D01*
X00723523Y01949202D02*
X00740496Y01950166D01*
X00724487Y01932229D02*
X0074146Y01933194D01*
X00740496Y01950166D02*
X0074146Y01933194D01*
X00900605Y01927455D02*
X0090711Y01911749D01*
X00900605Y01927455D02*
X00916311Y01933961D01*
X0090711Y01911749D02*
X00922816Y01918255D01*
X00916311Y01933961D02*
X00922816Y01918255D01*
X00860712Y01910931D02*
X00867217Y01895225D01*
X00860712Y01910931D02*
X00876418Y01917436D01*
X00867217Y01895225D02*
X00882923Y0190173D01*
X00876418Y01917436D02*
X00882923Y0190173D01*
X00820818Y01894407D02*
X00827324Y018787D01*
X00820818Y01894407D02*
X00836524Y01900912D01*
X00827324Y018787D02*
X0084303Y01885206D01*
X00836524Y01900912D02*
X0084303Y01885206D01*
X0077652Y01889813D02*
X00782125Y01873763D01*
X0077652Y01889813D02*
X00792569Y01895417D01*
X00782125Y01873763D02*
X00798174Y01879368D01*
X00792569Y01895417D02*
X00798174Y01879368D01*
X00785366Y01865937D02*
X00792752Y01850625D01*
X00785366Y01865937D02*
X00800678Y01873323D01*
X00792752Y01850625D02*
X00808064Y01858011D01*
X00800678Y01873323D02*
X00808064Y01858011D01*
X00735754Y01875577D02*
X00741359Y01859527D01*
X00735754Y01875577D02*
X00751804Y01881181D01*
X00741359Y01859527D02*
X00757409Y01865132D01*
X00751804Y01881181D02*
X00757409Y01865132D01*
X00746474Y01847178D02*
X0075386Y01831866D01*
X00746474Y01847178D02*
X00761786Y01854563D01*
X0075386Y01831866D02*
X00769172Y01839251D01*
X00761786Y01854563D02*
X00769172Y01839251D01*
X00918344Y01894863D02*
X00930365Y01882842D01*
X00918344Y01894863D02*
X00930365Y01906884D01*
Y01882842D02*
X00942386Y01894863D01*
X00930365Y01906884D02*
X00942386Y01894863D01*
X00887811Y0186433D02*
X00899832Y01852309D01*
X00887811Y0186433D02*
X00899832Y01876351D01*
Y01852309D02*
X00911853Y0186433D01*
X00899832Y01876351D02*
X00911853Y0186433D01*
X00857333Y01833786D02*
X00869353Y01821766D01*
X00857333Y01833786D02*
X00869353Y01845807D01*
Y01821766D02*
X00881374Y01833786D01*
X00869353Y01845807D02*
X00881374Y01833786D01*
X00818164Y0181259D02*
X00829484Y01799907D01*
X00818164Y0181259D02*
X00830847Y0182391D01*
X00829484Y01799907D02*
X00842167Y01811227D01*
X00830847Y0182391D02*
X00842167Y01811227D01*
X00835474Y01793917D02*
X00848157Y01782597D01*
X00835474Y01793917D02*
X00846794Y018066D01*
X00848157Y01782597D02*
X00859477Y0179528D01*
X00846794Y018066D02*
X00859477Y0179528D01*
X00785949Y01783837D02*
X00797269Y01771154D01*
X00785949Y01783837D02*
X00798632Y01795157D01*
X00797269Y01771154D02*
X00809952Y01782474D01*
X00798632Y01795157D02*
X00809952Y01782474D01*
X00806721Y01761702D02*
X00819404Y01750382D01*
X00806721Y01761702D02*
X00818041Y01774385D01*
X00819404Y01750382D02*
X00830724Y01763065D01*
X00818041Y01774385D02*
X00830724Y01763065D01*
X0094726Y01871551D02*
X00962966Y01865046D01*
X0094726Y01871551D02*
X00953765Y01887257D01*
X00962966Y01865046D02*
X00969471Y01880752D01*
X00953765Y01887257D02*
X00969471Y01880752D01*
X00930735Y01831658D02*
X00946441Y01825153D01*
X00930735Y01831658D02*
X00937241Y01847364D01*
X00946441Y01825153D02*
X00952947Y01840858D01*
X00937241Y01847364D02*
X00952947Y01840858D01*
X00914265Y01791754D02*
X00929971Y01785248D01*
X00914265Y01791754D02*
X00920771Y0180746D01*
X00929971Y01785248D02*
X00936477Y01800955D01*
X00920771Y0180746D02*
X00936477Y01800955D01*
X0088619Y01757182D02*
X00901502Y01749796D01*
X0088619Y01757182D02*
X00893575Y01772494D01*
X00901502Y01749796D02*
X00908887Y01765108D01*
X00893575Y01772494D02*
X00908887Y01765108D01*
X00909328Y01746555D02*
X00925377Y0174095D01*
X00909328Y01746555D02*
X00914933Y01762604D01*
X00925377Y0174095D02*
X00930982Y01756999D01*
X00914933Y01762604D02*
X00930982Y01756999D01*
X0086743Y0171829D02*
X00882742Y01710904D01*
X0086743Y0171829D02*
X00874816Y01733602D01*
X00882742Y01710904D02*
X00890128Y01726216D01*
X00874816Y01733602D02*
X00890128Y01726216D01*
X00895092Y01705789D02*
X00911141Y01700184D01*
X00895092Y01705789D02*
X00900697Y01721838D01*
X00911141Y01700184D02*
X00916746Y01716234D01*
X00900697Y01721838D02*
X00916746Y01716234D01*
X00982949Y01861069D02*
X00999949D01*
X00982949D02*
Y01878069D01*
X00999949Y01861069D02*
Y01878069D01*
X00982949D02*
X00999949D01*
X00982946Y01817891D02*
X00999946D01*
X00982946D02*
Y01834891D01*
X00999946Y01817891D02*
Y01834891D01*
X00982946D02*
X00999946D01*
X00982949Y01774709D02*
X00999949D01*
X00982949D02*
Y01791709D01*
X00999949Y01774709D02*
Y01791709D01*
X00982949D02*
X00999949D01*
X00970241Y01732024D02*
X00987214Y0173106D01*
X00970241Y01732024D02*
X00971205Y01748997D01*
X00987214Y0173106D02*
X00988178Y01748033D01*
X00971205Y01748997D02*
X00988178Y01748033D01*
X00995685Y0173106D02*
X01012658Y01732024D01*
X00994721Y01748033D02*
X00995685Y0173106D01*
X01011694Y01748997D02*
X01012658Y01732024D01*
X00994721Y01748033D02*
X01011694Y01748997D01*
X00967793Y01688914D02*
X00984766Y0168795D01*
X00967793Y01688914D02*
X00968757Y01705886D01*
X00984766Y0168795D02*
X0098573Y01704923D01*
X00968757Y01705886D02*
X0098573Y01704923D01*
X00998133Y0168795D02*
X01015106Y01688914D01*
X00997169Y01704923D02*
X00998133Y0168795D01*
X01014142Y01705886D02*
X01015106Y01688914D01*
X00997169Y01704923D02*
X01014142Y01705886D01*
X0101988Y01865031D02*
X01035586Y01871537D01*
X01013374Y01880737D02*
X0101988Y01865031D01*
X01029081Y01887243D02*
X01035586Y01871537D01*
X01013374Y01880737D02*
X01029081Y01887243D01*
X01036404Y01825138D02*
X0105211Y01831644D01*
X01029898Y01840844D02*
X01036404Y01825138D01*
X01045604Y01847349D02*
X0105211Y01831644D01*
X01029898Y01840844D02*
X01045604Y01847349D01*
X01052928Y01785245D02*
X01068634Y01791751D01*
X01046423Y01800951D02*
X01052928Y01785245D01*
X01062129Y01807456D02*
X01068634Y01791751D01*
X01046423Y01800951D02*
X01062129Y01807456D01*
X01057522Y01740946D02*
X01073572Y01746551D01*
X01051917Y01756996D02*
X01057522Y01740946D01*
X01067967Y01762601D02*
X01073572Y01746551D01*
X01051917Y01756996D02*
X01067967Y01762601D01*
X01081398Y01749793D02*
X0109671Y01757178D01*
X01074012Y01765105D02*
X01081398Y01749793D01*
X01089324Y0177249D02*
X0109671Y01757178D01*
X01074012Y01765105D02*
X01089324Y0177249D01*
X01071758Y01700181D02*
X01087808Y01705785D01*
X01066153Y0171623D02*
X01071758Y01700181D01*
X01082203Y01721835D02*
X01087808Y01705785D01*
X01066153Y0171623D02*
X01082203Y01721835D01*
X01100157Y01710901D02*
X01115469Y01718286D01*
X01092772Y01726213D02*
X01100157Y01710901D01*
X01108083Y01733598D02*
X01115469Y01718286D01*
X01092772Y01726213D02*
X01108083Y01733598D01*
X01052483Y01882825D02*
X01064503Y01894845D01*
X01040462D02*
X01052483Y01882825D01*
Y01906866D02*
X01064503Y01894845D01*
X01040462D02*
X01052483Y01906866D01*
X01083016Y01852292D02*
X01095036Y01864313D01*
X01070995D02*
X01083016Y01852292D01*
Y01876333D02*
X01095036Y01864313D01*
X01070995D02*
X01083016Y01876333D01*
X01113548Y01821759D02*
X01125569Y0183378D01*
X01101527D02*
X01113548Y01821759D01*
Y018458D02*
X01125569Y0183378D01*
X01101527D02*
X01113548Y018458D01*
X01134745Y0178259D02*
X01147428Y0179391D01*
X01123425Y01795273D02*
X01134745Y0178259D01*
X01136108Y01806593D02*
X01147428Y0179391D01*
X01123425Y01795273D02*
X01136108Y01806593D01*
X01153418Y017999D02*
X01164738Y01812583D01*
X01140735Y0181122D02*
X01153418Y017999D01*
X01152055Y01823903D02*
X01164738Y01812583D01*
X01140735Y0181122D02*
X01152055Y01823903D01*
X01163498Y01750375D02*
X0117618Y01761695D01*
X01152177Y01763059D02*
X01163498Y01750375D01*
X01164861Y01774378D02*
X0117618Y01761695D01*
X01152177Y01763059D02*
X01164861Y01774378D01*
X01185632Y01771148D02*
X01196952Y0178383D01*
X0117295Y01782468D02*
X01185632Y01771148D01*
X01184269Y0179515D02*
X01196952Y0178383D01*
X0117295Y01782468D02*
X01184269Y0179515D01*
X01075794Y0191174D02*
X010823Y01927446D01*
X01060088Y01918246D02*
X01075794Y0191174D01*
X01066594Y01933952D02*
X010823Y01927446D01*
X01060088Y01918246D02*
X01066594Y01933952D01*
X01115687Y01895216D02*
X01122193Y01910922D01*
X01099982Y01901722D02*
X01115687Y01895216D01*
X01106487Y01917427D02*
X01122193Y01910922D01*
X01099982Y01901722D02*
X01106487Y01917427D01*
X01155581Y01878692D02*
X01162086Y01894398D01*
X01139875Y01885197D02*
X01155581Y01878692D01*
X0114638Y01900903D02*
X01162086Y01894398D01*
X01139875Y01885197D02*
X0114638Y01900903D01*
X01190153Y01850616D02*
X01197538Y01865928D01*
X01174841Y01858002D02*
X01190153Y01850616D01*
X01182226Y01873314D02*
X01197538Y01865928D01*
X01174841Y01858002D02*
X01182226Y01873314D01*
X0120078Y01873754D02*
X01206385Y01889804D01*
X01184731Y01879359D02*
X0120078Y01873754D01*
X01190335Y01895409D02*
X01206385Y01889804D01*
X01184731Y01879359D02*
X01190335Y01895409D01*
X01229045Y01831857D02*
X0123643Y01847169D01*
X01213733Y01839242D02*
X01229045Y01831857D01*
X01221119Y01854554D02*
X0123643Y01847169D01*
X01213733Y01839242D02*
X01221119Y01854554D01*
X01241546Y01859518D02*
X0124715Y01875568D01*
X01225496Y01865123D02*
X01241546Y01859518D01*
X01231101Y01881173D02*
X0124715Y01875568D01*
X01225496Y01865123D02*
X01231101Y01881173D01*
X01086266Y01947376D02*
Y01964376D01*
X01069266Y01947376D02*
X01086266D01*
X01069266Y01964376D02*
X01086266D01*
X01069266Y01947376D02*
Y01964376D01*
X01129446Y01947376D02*
Y01964376D01*
X01112446Y01947376D02*
X01129446D01*
X01112446Y01964376D02*
X01129446D01*
X01112446Y01947376D02*
Y01964376D01*
X01172626Y01947376D02*
Y01964376D01*
X01155626Y01947376D02*
X01172626D01*
X01155626Y01964376D02*
X01172626D01*
X01155626Y01947376D02*
Y01964376D01*
X01215311Y01934668D02*
X01216274Y0195164D01*
X01198338Y01935631D02*
X01215311Y01934668D01*
X01199302Y01952604D02*
X01216274Y0195164D01*
X01198338Y01935631D02*
X01199302Y01952604D01*
X01215311Y01977084D02*
X01216274Y01960111D01*
X01199302Y01959148D02*
X01216274Y01960111D01*
X01198338Y0197612D02*
X01215311Y01977084D01*
X01198338Y0197612D02*
X01199302Y01959148D01*
X01258421Y01932219D02*
X01259385Y01949192D01*
X01241449Y01933183D02*
X01258421Y01932219D01*
X01242412Y01950156D02*
X01259385Y01949192D01*
X01241449Y01933183D02*
X01242412Y01950156D01*
X01258421Y01979532D02*
X01259385Y01962559D01*
X01242412Y01961596D02*
X01259385Y01962559D01*
X01241449Y01978568D02*
X01258421Y01979532D01*
X01241449Y01978568D02*
X01242412Y01961596D01*
X01072431Y02127835D02*
X01075875Y0213615D01*
X01055801Y02134723D02*
X01059245Y02143038D01*
X01055801Y02134723D02*
X01072431Y02127835D01*
X01059245Y02143038D02*
X01075875Y0213615D01*
X01101245Y02162096D02*
X01105155Y02170202D01*
X01085033Y02169916D02*
X01088943Y02178022D01*
X01085033Y02169916D02*
X01101245Y02162096D01*
X01088943Y02178022D02*
X01105155Y02170202D01*
X01076604Y02173116D02*
X01079571Y02181612D01*
X0105961Y0217905D02*
X01062578Y02187547D01*
X0105961Y0217905D02*
X01076604Y02173116D01*
X01062578Y02187547D02*
X01079571Y02181612D01*
X01055907Y02087942D02*
X01059351Y02096257D01*
X01039277Y0209483D02*
X01042721Y02103145D01*
X01039277Y0209483D02*
X01055907Y02087942D01*
X01042721Y02103145D02*
X01059351Y02096257D01*
X01130411Y02003688D02*
X01138725Y02007132D01*
X01123522Y02020317D02*
X01131837Y02023762D01*
X01123522Y02020317D02*
X01130411Y02003688D01*
X01131837Y02023762D02*
X01138725Y02007132D01*
X00894146Y02177805D02*
X00898056Y02169699D01*
X00877933Y02169985D02*
X00881843Y02161879D01*
X00898056Y02169699*
X00877933Y02169985D02*
X00894146Y02177805D01*
X00857213Y02102861D02*
X00863577Y02096497D01*
X00844485Y02090133D02*
X00850849Y02083769D01*
X00863577Y02096497*
X00844485Y02090133D02*
X00857213Y02102861D01*
X00836959Y02142944D02*
X00842951Y0213623D01*
X0082353Y02130958D02*
X00829522Y02124244D01*
X00842951Y0213623*
X0082353Y02130958D02*
X00836959Y02142944D01*
X00923679Y02143045D02*
X00927123Y0213473D01*
X00907049Y02136157D02*
X00910493Y02127842D01*
X00927123Y0213473*
X00907049Y02136157D02*
X00923679Y02143045D01*
X00940203Y02103152D02*
X00943647Y02094837D01*
X00923573Y02096263D02*
X00927017Y02087949D01*
X00943647Y02094837*
X00923573Y02096263D02*
X00940203Y02103152D01*
X0098648Y02198151D02*
X0098699Y02189165D01*
X00968509Y0219713D02*
X00969019Y02188144D01*
X0098699Y02189165*
X00968509Y0219713D02*
X0098648Y02198151D01*
X00920305Y02187829D02*
X00923272Y02179331D01*
X00903311Y02181893D02*
X00906279Y02173396D01*
X00923272Y02179331*
X00903311Y02181893D02*
X00920305Y02187829D01*
X01071005Y02022692D02*
X01077369Y02029056D01*
X01058277Y0203542D02*
X01064641Y02041784D01*
X01058277Y0203542D02*
X01071005Y02022692D01*
X01064641Y02041784D02*
X01077369Y02029056D01*
X01039382Y02048049D02*
X01042826Y02056364D01*
X01022752Y02054937D02*
X01026197Y02063252D01*
X01022752Y02054937D02*
X01039382Y02048049D01*
X01026197Y02063252D02*
X01042826Y02056364D01*
X00816626Y02123674D02*
X00823341Y02117681D01*
X0080464Y02110245D02*
X00811355Y02104252D01*
X00823341Y02117681*
X0080464Y02110245D02*
X00816626Y02123674D01*
X00918279Y02041796D02*
X00924643Y02035432D01*
X00905551Y02029068D02*
X00911915Y02022704D01*
X00924643Y02035432*
X00905551Y02029068D02*
X00918279Y02041796D01*
X00956727Y02063259D02*
X00960172Y02054944D01*
X00940097Y0205637D02*
X00943542Y02048055D01*
X00960172Y02054944*
X00940097Y0205637D02*
X00956727Y02063259D01*
X00887746Y02072328D02*
X0089411Y02065965D01*
X00875018Y020596D02*
X00881382Y02053236D01*
X0089411Y02065965*
X00875018Y020596D02*
X00887746Y02072328D01*
X00851078Y02023777D02*
X00859393Y02020333D01*
X0084419Y02007147D02*
X00852504Y02003703D01*
X00859393Y02020333*
X0084419Y02007147D02*
X00851078Y02023777D01*
X00765722Y02043997D02*
X00774219Y0204103D01*
X00759788Y02027004D02*
X00768285Y02024037D01*
X00774219Y0204103*
X00759788Y02027004D02*
X00765722Y02043997D01*
X00777133Y02069582D02*
X00785239Y02065672D01*
X00769313Y02053369D02*
X00777419Y02049459D01*
X00785239Y02065672*
X00769313Y02053369D02*
X00777133Y02069582D01*
X00811185Y02040301D02*
X008195Y02036857D01*
X00804296Y02023671D02*
X00812611Y02020227D01*
X008195Y02036857*
X00804296Y02023671D02*
X00811185Y02040301D01*
X01000463Y02111554D02*
Y02102554D01*
X00982463D02*
Y02111554D01*
Y02102554D02*
X01000463D01*
X00982463Y02111554D02*
X01000463D01*
Y02154734D02*
Y02145734D01*
X00982463D02*
Y02154734D01*
Y02145734D02*
X01000463D01*
X00982463Y02154734D02*
X01000463D01*
Y02059374D02*
Y02068374D01*
X00982463Y02059374D02*
Y02068374D01*
Y02059374D02*
X01000463D01*
X00982463Y02068374D02*
X01000463D01*
X01101538Y02053225D02*
X01107902Y02059589D01*
X0108881Y02065953D02*
X01095174Y02072317D01*
X0108881Y02065953D02*
X01101538Y02053225D01*
X01095174Y02072317D02*
X01107902Y02059589D01*
X01090517Y01987163D02*
X01098832Y01990607D01*
X01083629Y02003793D02*
X01091944Y02007237D01*
X01083629Y02003793D02*
X01090517Y01987163D01*
X01091944Y02007237D02*
X01098832Y01990607D01*
X01170305Y02020212D02*
X01178619Y02023656D01*
X01163415Y02036842D02*
X0117173Y02040286D01*
X01163415Y02036842D02*
X01170305Y02020212D01*
X0117173Y02040286D02*
X01178619Y02023656D01*
X01214904Y02024063D02*
X01223401Y0202703D01*
X0120897Y02041056D02*
X01217467Y02044023D01*
X0120897Y02041056D02*
X01214904Y02024063D01*
X01217467Y02044023D02*
X01223401Y0202703D01*
X01132071Y02083758D02*
X01138435Y02090122D01*
X01119343Y02096486D02*
X01125707Y02102849D01*
X01119343Y02096486D02*
X01132071Y02083758D01*
X01125707Y02102849D02*
X01138435Y02090122D01*
X01205273Y02049279D02*
X01213379Y02053189D01*
X01197453Y02065492D02*
X01205559Y02069402D01*
X01197453Y02065492D02*
X01205273Y02049279D01*
X01205559Y02069402D02*
X01213379Y02053189D01*
X01153254Y02123994D02*
X01159247Y02130709D01*
X01139826Y0213598D02*
X01145818Y02142695D01*
X01139826Y0213598D02*
X01153254Y02123994D01*
X01145818Y02142695D02*
X01159247Y02130709D01*
X01171803Y02104383D02*
X01178518Y02110376D01*
X01159817Y02117812D02*
X01166532Y02123805D01*
X01159817Y02117812D02*
X01171803Y02104383D01*
X01166532Y02123805D02*
X01178518Y02110376D01*
X01171724Y0187146D02*
X01178612Y0188809D01*
X01163409Y01874904D02*
X01170297Y01891534D01*
X01178612Y0188809*
X01163409Y01874904D02*
X01171724Y0187146D01*
X01208689Y01870731D02*
X01217186Y01867764D01*
X01214624Y01887725D02*
X01223121Y01884757D01*
X01208689Y01870731D02*
X01214624Y01887725D01*
X01217186Y01867764D02*
X01223121Y01884757D01*
X01223987Y01933362D02*
X01232973Y01932852D01*
X01225008Y01951333D02*
X01233994Y01950823D01*
X01223987Y01933362D02*
X01225008Y01951333D01*
X01232973Y01932852D02*
X01233994Y01950823D01*
X01138128Y01946872D02*
X01147128D01*
X01138128Y01964872D02*
X01147128D01*
X01138128Y01946872D02*
Y01964872D01*
X01147128Y01946872D02*
Y01964872D01*
X01181308Y01946872D02*
X01190308D01*
X01181308Y01964872D02*
X01190308D01*
X01181308D02*
Y01946872D01*
X01190308D02*
Y01964872D01*
X01094948Y01946872D02*
X01103948D01*
X01094948Y01964872D02*
X01103948D01*
X01094948Y01946872D02*
Y01964872D01*
X01103948Y01946872D02*
Y01964872D01*
X01224739Y01960345D02*
X01233724Y01960855D01*
X01223718Y01978316D02*
X01232704Y01978826D01*
X01223718Y01978316D02*
X01224739Y01960345D01*
X01232704Y01978826D02*
X01233724Y01960855D01*
X01197669Y01846089D02*
X01205776Y01842179D01*
X01205489Y01862302D02*
X01213596Y01858392D01*
X01197669Y01846089D02*
X01205489Y01862302D01*
X01205776Y01842179D02*
X01213596Y01858392D01*
X01013973Y02188414D02*
X01014483Y02197399D01*
X00996002Y02189434D02*
X00996512Y0219842D01*
X00996002Y02189434D02*
X01013973Y02188414D01*
X00996512Y0219842D02*
X01014483Y02197399D01*
X01059636Y0173243D02*
X01062603Y01723933D01*
X0107663Y01738365D02*
X01079597Y01729868D01*
X01059636Y0173243D02*
X0107663Y01738365D01*
X01062603Y01723933D02*
X01079597Y01729868D01*
X01084853Y01742062D02*
X01088763Y01733956D01*
X01101065Y01749882D02*
X01104975Y01741776D01*
X01084853Y01742062D02*
X01101065Y01749882D01*
X01088763Y01733956D02*
X01104975Y01741776D01*
X01139957Y01775532D02*
X0114595Y01768817D01*
X01153386Y01787517D02*
X01159379Y01780803D01*
X01139957Y01775532D02*
X01153386Y01787517D01*
X0114595Y01768817D02*
X01159379Y01780803D01*
X01119331Y01815264D02*
X01125695Y018089D01*
X01132059Y01827992D02*
X01138423Y01821628D01*
X01119331Y01815264D02*
X01132059Y01827992D01*
X01125695Y018089D02*
X01138423Y01821628D01*
X01088798Y01845797D02*
X01095162Y01839433D01*
X01101526Y01858525D02*
X0110789Y01852161D01*
X01088798Y01845797D02*
X01101526Y01858525D01*
X01095162Y01839433D02*
X0110789Y01852161D01*
X01159568Y0179408D02*
X01166282Y01788087D01*
X01171554Y01807509D02*
X01178268Y01801516D01*
X01159568Y0179408D02*
X01171554Y01807509D01*
X01166282Y01788087D02*
X01178268Y01801516D01*
X01131831Y01887984D02*
X01138719Y01904614D01*
X01123516Y01891428D02*
X01130404Y01908058D01*
X01138719Y01904614*
X01123516Y01891428D02*
X01131831Y01887984D01*
X01058266Y0187633D02*
X01064629Y01869966D01*
X01070993Y01889058D02*
X01077357Y01882694D01*
X01058266Y0187633D02*
X01070993Y01889058D01*
X01064629Y01869966D02*
X01077357Y01882694D01*
X01091937Y01904508D02*
X01098826Y01921138D01*
X01083623Y01907953D02*
X01090511Y01924582D01*
X01098826Y01921138*
X01083623Y01907953D02*
X01091937Y01904508D01*
X00759507Y01884731D02*
X00768004Y01887699D01*
X00765442Y01867738D02*
X00773938Y01870705D01*
X00768004Y01887699D02*
X00773938Y01870705D01*
X00759507Y01884731D02*
X00765442Y01867738D01*
X00749184Y01950906D02*
X0075817Y01951416D01*
X00750205Y01932935D02*
X0075919Y01933445D01*
X0075817Y01951416D02*
X0075919Y01933445D01*
X00749184Y01950906D02*
X00750205Y01932935D01*
X0083578Y01964889D02*
X0084478D01*
X0083578Y01946889D02*
X0084478D01*
Y01964889*
X0083578D02*
Y01946889D01*
X00844183Y01904629D02*
X00852498Y01908074D01*
X00851071Y01888D02*
X00859386Y01891444D01*
X00852498Y01908074D02*
X00859386Y01891444D01*
X00844183Y01904629D02*
X00851071Y01888D01*
X00877753Y01741559D02*
X00881663Y01749665D01*
X00893966Y01733739D02*
X00897876Y01741845D01*
X00881663Y01749665D02*
X00897876Y01741845D01*
X00877753Y01741559D02*
X00893966Y01733739D01*
X00903337Y01730149D02*
X00906305Y01738645D01*
X00920331Y01724214D02*
X00923298Y01732711D01*
X00906305Y01738645D02*
X00923298Y01732711D01*
X00903337Y01730149D02*
X00920331Y01724214D01*
X00823661Y01781052D02*
X00829654Y01787767D01*
X0083709Y01769066D02*
X00843083Y01775781D01*
X00829654Y01787767D02*
X00843083Y01775781D01*
X00823661Y01781052D02*
X0083709Y01769066D01*
X00907034Y01775611D02*
X00910478Y01783926D01*
X00923663Y01768723D02*
X00927108Y01777038D01*
X00910478Y01783926D02*
X00927108Y01777038D01*
X00907034Y01775611D02*
X00923663Y01768723D01*
X00923558Y01815504D02*
X00927002Y01823819D01*
X00940188Y01808616D02*
X00943632Y01816931D01*
X00927002Y01823819D02*
X00943632Y01816931D01*
X00923558Y01815504D02*
X00940188Y01808616D01*
X00905539Y01882705D02*
X00911903Y01889069D01*
X00918267Y01869977D02*
X00924631Y01876341D01*
X00911903Y01889069D02*
X00924631Y01876341D01*
X00905539Y01882705D02*
X00918267Y01869977D01*
X00884076Y01921154D02*
X00892391Y01924598D01*
X00890964Y01904524D02*
X00899279Y01907968D01*
X00892391Y01924598D02*
X00899279Y01907968D01*
X00884076Y01921154D02*
X00890964Y01904524D01*
X00875006Y01852172D02*
X0088137Y01858536D01*
X00887734Y01839444D02*
X00894098Y01845808D01*
X0088137Y01858536D02*
X00894098Y01845808D01*
X00875006Y01852172D02*
X00887734Y01839444D01*
X0087896Y01964889D02*
X00887961D01*
X0087896Y01946889D02*
X00887961D01*
Y01964889D02*
Y01946889D01*
X0087896D02*
Y01964889D01*
X00968425Y01714362D02*
X00968935Y01723347D01*
X00986396Y01713341D02*
X00986907Y01722327D01*
X00968935Y01723347D02*
X00986907Y01722327D01*
X00968425Y01714362D02*
X00986396Y01713341D01*
X00982446Y01766027D02*
Y01757027D01*
X01000446D02*
Y01766027D01*
X00982446D02*
X01000446D01*
X00982446Y01757027D02*
X01000446D01*
X00995918Y01722596D02*
X00996429Y01713611D01*
X0101389Y01723617D02*
X010144Y01714631D01*
X00995918Y01722596D02*
X0101389Y01723617D01*
X00996429Y01713611D02*
X010144Y01714631D01*
X00982446Y01809207D02*
Y01800207D01*
X01000446D02*
Y01809207D01*
X00982446D02*
X01000446D01*
X00982446Y01800207D02*
X01000446D01*
X01039261Y01816924D02*
X01042705Y01808609D01*
X01055891Y01823813D02*
X01059335Y01815498D01*
X01039261Y01816924D02*
X01055891Y01823813D01*
X01042705Y01808609D02*
X01059335Y01815498D01*
X01055785Y01777031D02*
X0105923Y01768716D01*
X01072415Y01783919D02*
X0107586Y01775605D01*
X01055785Y01777031D02*
X01072415Y01783919D01*
X0105923Y01768716D02*
X0107586Y01775605D01*
X0076953Y01858572D02*
X00777636Y01862482D01*
X0077735Y01842359D02*
X00785456Y01846269D01*
X00777636Y01862482D02*
X00785456Y01846269D01*
X0076953Y01858572D02*
X0077735Y01842359D01*
X00804291Y01888105D02*
X00812605Y01891549D01*
X00811178Y01871475D02*
X00819493Y0187492D01*
X00812605Y01891549D02*
X00819493Y0187492D01*
X00804291Y01888105D02*
X00811178Y01871475D01*
X00844473Y0182164D02*
X00850837Y01828004D01*
X00857201Y01808912D02*
X00863565Y01815276D01*
X00850837Y01828004D02*
X00863565Y01815276D01*
X00844473Y0182164D02*
X00857201Y01808912D01*
X00804391Y01801385D02*
X00811105Y01807378D01*
X00816377Y01787956D02*
X00823091Y01793949D01*
X00811105Y01807378D02*
X00823091Y01793949D01*
X00804391Y01801385D02*
X00816377Y01787956D01*
X00940082Y01855397D02*
X00943526Y01863712D01*
X00956712Y01848509D02*
X00960156Y01856824D01*
X00943526Y01863712D02*
X00960156Y01856824D01*
X00940082Y01855397D02*
X00956712Y01848509D01*
X01022737Y01856818D02*
X01026181Y01848503D01*
X01039368Y01863706D02*
X01042811Y01855391D01*
X01022737Y01856818D02*
X01039368Y01863706D01*
X01026181Y01848503D02*
X01042811Y01855391D01*
X00982446Y01843387D02*
Y01852387D01*
X01000446Y01843387D02*
Y01852387D01*
X00982446D02*
X01000446D01*
X00982446Y01843387D02*
X01000446D01*
X00749935Y0197891D02*
X00758921Y01978399D01*
X00748915Y01960938D02*
X00757901Y01960428D01*
X00758921Y01978399*
X00748915Y01960938D02*
X00749935Y0197891D01*
X007926Y01964889D02*
X008016D01*
X007926Y01946889D02*
X008016D01*
Y01964889D02*
Y01946889D01*
X007926D02*
Y01964889D01*
X00890971Y02007253D02*
X00899287Y02003809D01*
X00884083Y01990623D02*
X00892398Y01987179D01*
X00899287Y02003809*
X00884083Y01990623D02*
X00890971Y02007253D01*
X02429534Y01964074D02*
Y01947074D01*
X02412534*
X02429534Y01964074D02*
X02412534D01*
Y01947074*
X02472714Y01964074D02*
Y01947074D01*
X02455714*
X02472714Y01964074D02*
X02455714D01*
Y01947074*
X02445702Y01986107D02*
X02433681Y01974086D01*
X0242166Y01986107*
X02445702D02*
X02433681Y01998128D01*
X0242166Y01986107*
X02472714Y01990254D02*
X02455714D01*
Y02007254D02*
Y01990254D01*
X02472714Y02007254D02*
Y01990254D01*
Y02007254D02*
X02455714D01*
X02494746Y01974086D02*
X02482726Y01986107D01*
X02494746Y01998128D02*
X02482726Y01986107D01*
X02506767D02*
X02494746Y01974086D01*
X02506767Y01986107D02*
X02494746Y01998128D01*
X02498894Y01964074D02*
Y01947074D01*
X02515894Y01964074D02*
X02498894D01*
X02515894Y01947074D02*
X02498894D01*
X02515894Y01964074D02*
Y01947074D01*
X02494746Y01937062D02*
X02482726Y01925042D01*
X02506767D02*
X02494746Y01937062D01*
Y01913021D02*
X02482726Y01925042D01*
X02506767D02*
X02494746Y01913021D01*
X02472714Y01920894D02*
X02455714D01*
X02472714D02*
Y01903894D01*
X02455714Y01920894D02*
Y01903894D01*
X02472714D02*
X02455714D01*
X02445702Y01925042D02*
X02433681Y01937062D01*
X02445702Y01925042D02*
X02433681Y01913021D01*
Y01937062D02*
X0242166Y01925042D01*
X02433681Y01913021D02*
X0242166Y01925042D01*
X0237987Y01911585D02*
X02373364Y01927291D01*
X0238907Y01933796D02*
X02373364Y01927291D01*
X02395576Y0191809D02*
X0237987Y01911585D01*
X02395576Y0191809D02*
X0238907Y01933796D01*
X02339977Y0189506D02*
X02333471Y01910766D01*
X02349177Y01917272D02*
X02333471Y01910766D01*
X02355683Y01901566D02*
X02339977Y0189506D01*
X02355683Y01901566D02*
X02349177Y01917272D01*
X02300084Y01878536D02*
X02293578Y01894242D01*
X02309284Y01900748D02*
X02293578Y01894242D01*
X0231579Y01885042D02*
X02300084Y01878536D01*
X0231579Y01885042D02*
X02309284Y01900748D01*
X02254885Y01873599D02*
X0224928Y01889648D01*
X02265329Y01895253D02*
X0224928Y01889648D01*
X02270934Y01879203D02*
X02254885Y01873599D01*
X02270934Y01879203D02*
X02265329Y01895253D01*
X02265512Y01850461D02*
X02258126Y01865772D01*
X02273438Y01873158D02*
X02258126Y01865772D01*
X02280823Y01857846D02*
X02265512Y01850461D01*
X02280823Y01857846D02*
X02273438Y01873158D01*
X02214119Y01859363D02*
X02208514Y01875412D01*
X02224563Y01881017D02*
X02208514Y01875412D01*
X02230168Y01864967D02*
X02214119Y01859363D01*
X02230168Y01864967D02*
X02224563Y01881017D01*
X02226619Y01831701D02*
X02219234Y01847013D01*
X02234546Y01854399D02*
X02219234Y01847013D01*
X02241931Y01839087D02*
X02226619Y01831701D01*
X02241931Y01839087D02*
X02234546Y01854399D01*
X02403179Y01882667D02*
X02391158Y01894688D01*
X02403179Y01906708D02*
X02391158Y01894688D01*
X02415199D02*
X02403179Y01882667D01*
X02415199Y01894688D02*
X02403179Y01906708D01*
X02372646Y01852134D02*
X02360625Y01864155D01*
X02372646Y01876176D02*
X02360625Y01864155D01*
X02384667D02*
X02372646Y01852134D01*
X02384667Y01864155D02*
X02372646Y01876176D01*
X02342113Y01821601D02*
X02330092Y01833622D01*
X02342113Y01845643D02*
X02330092Y01833622D01*
X02354134D02*
X02342113Y01821601D01*
X02354134Y01833622D02*
X02342113Y01845643D01*
X02302244Y01799742D02*
X02290924Y01812425D01*
X02303606Y01823745D02*
X02290924Y01812425D01*
X02314927Y01811063D02*
X02302244Y01799742D01*
X02314927Y01811063D02*
X02303606Y01823745D01*
X02320916Y01782433D02*
X02308233Y01793753D01*
X02319553Y01806435D02*
X02308233Y01793753D01*
X02332236Y01795116D02*
X02320916Y01782433D01*
X02332236Y01795116D02*
X02319553Y01806435D01*
X02270029Y0177099D02*
X02258709Y01783673D01*
X02271392Y01794993D02*
X02258709Y01783673D01*
X02282712Y0178231D02*
X02270029Y0177099D01*
X02282712Y0178231D02*
X02271392Y01794993D01*
X02292164Y01750218D02*
X02279481Y01761538D01*
X02290801Y01774221D02*
X02279481Y01761538D01*
X02303484Y01762901D02*
X02292164Y01750218D01*
X02303484Y01762901D02*
X02290801Y01774221D01*
X02435779Y0186487D02*
X02420073Y01871376D01*
X02426579Y01887082D02*
X02420073Y01871376D01*
X02442285Y01880576D02*
X02435779Y0186487D01*
X02442285Y01880576D02*
X02426579Y01887082D01*
X02419255Y01824977D02*
X02403549Y01831483D01*
X02410055Y01847189D02*
X02403549Y01831483D01*
X02425761Y01840683D02*
X02419255Y01824977D01*
X02425761Y01840683D02*
X02410055Y01847189D01*
X02402731Y01785084D02*
X02387025Y0179159D01*
X0239353Y01807296D02*
X02387025Y0179159D01*
X02409236Y0180079D02*
X02402731Y01785084D01*
X02409236Y0180079D02*
X0239353Y01807296D01*
X02374261Y01749632D02*
X02358949Y01757017D01*
X02366335Y01772329D02*
X02358949Y01757017D01*
X02381647Y01764944D02*
X02374261Y01749632D01*
X02381647Y01764944D02*
X02366335Y01772329D01*
X02398137Y01740785D02*
X02382087Y0174639D01*
X02387692Y0176244D02*
X02382087Y0174639D01*
X02403742Y01756835D02*
X02398137Y01740785D01*
X02403742Y01756835D02*
X02387692Y0176244D01*
X02355502Y0171074D02*
X0234019Y01718125D01*
X02347576Y01733437D02*
X0234019Y01718125D01*
X02362887Y01726052D02*
X02355502Y0171074D01*
X02362887Y01726052D02*
X02347576Y01733437D01*
X02383901Y0170002D02*
X02367851Y01705624D01*
X02373456Y01721674D02*
X02367851Y01705624D01*
X02389506Y01716069D02*
X02383901Y0170002D01*
X02389506Y01716069D02*
X02373456Y01721674D01*
X02472709Y01860904D02*
X02455709D01*
Y01877904D02*
Y01860904D01*
X02472709Y01877904D02*
Y01860904D01*
Y01877904D02*
X02455709D01*
X02472709Y01817724D02*
X02455709D01*
Y01834724D02*
Y01817724D01*
X02472709Y01834724D02*
Y01817724D01*
Y01834724D02*
X02455709D01*
X02472709Y01774544D02*
X02455709D01*
Y01791544D02*
Y01774544D01*
X02472709Y01791544D02*
Y01774544D01*
Y01791544D02*
X02455709D01*
X02459974Y01730896D02*
X02443001Y0173186D01*
X02443965Y01748832D02*
X02443001Y0173186D01*
X02460937Y01747869D02*
X02459974Y01730896D01*
X02460937Y01747869D02*
X02443965Y01748832D01*
X02485417Y0173186D02*
X02468444Y01730896D01*
X02467481Y01747869*
X02485417Y0173186D02*
X02484453Y01748832D01*
X02467481Y01747869*
X02457525Y01687785D02*
X02440553Y01688749D01*
X02441516Y01705722D02*
X02440553Y01688749D01*
X02458489Y01704758D02*
X02457525Y01687785D01*
X02458489Y01704758D02*
X02441516Y01705722D01*
X02487865Y01688749D02*
X02470893Y01687785D01*
X02469929Y01704758*
X02487865Y01688749D02*
X02486901Y01705722D01*
X02469929Y01704758*
X02508345Y01871372D02*
X02492639Y01864868D01*
X02486134Y01880572*
X02508345Y01871372D02*
X0250184Y01887078D01*
X02486134Y01880572*
X02524869Y01831479D02*
X02509164Y01824974D01*
X02502658Y01840679*
X02524869Y01831479D02*
X02518364Y01847185D01*
X02502658Y01840679*
X02541394Y01791586D02*
X02525688Y0178508D01*
X02519182Y01800786*
X02541394Y01791586D02*
X02534888Y01807292D01*
X02519182Y01800786*
X02546331Y01746387D02*
X02530282Y01740782D01*
X02524677Y01756831*
X02546331Y01746387D02*
X02540727Y01762436D01*
X02524677Y01756831*
X02569469Y01757014D02*
X02554157Y01749628D01*
X02546772Y0176494*
X02569469Y01757014D02*
X02562084Y01772326D01*
X02546772Y0176494*
X02560567Y01705621D02*
X02544518Y01700016D01*
X02538913Y01716066*
X02560567Y01705621D02*
X02554962Y0172167D01*
X02538913Y01716066*
X02588229Y01718122D02*
X02572917Y01710736D01*
X02565531Y01726048*
X02588229Y01718122D02*
X02580843Y01733434D01*
X02565531Y01726048*
X02537263Y01894681D02*
X02525242Y0188266D01*
X02513221Y01894681*
X02537263D02*
X02525242Y01906702D01*
X02513221Y01894681*
X02567796Y01864148D02*
X02555775Y01852127D01*
X02543754Y01864148*
X02567796D02*
X02555775Y01876169D01*
X02543754Y01864148*
X02598329Y01833615D02*
X02586308Y01821594D01*
X02574287Y01833615*
X02598329D02*
X02586308Y01845636D01*
X02574287Y01833615*
X02620187Y01793746D02*
X02607504Y01782426D01*
X02596184Y01795109*
X02620187Y01793746D02*
X02608867Y01806429D01*
X02596184Y01795109*
X02637497Y01812419D02*
X02626177Y01799736D01*
X02613494Y01811056*
X02637497Y01812419D02*
X02624814Y01823739D01*
X02613494Y01811056*
X0264894Y01761531D02*
X02636257Y01750211D01*
X02624937Y01762894*
X0264894Y01761531D02*
X0263762Y01774214D01*
X02624937Y01762894*
X02669712Y01783666D02*
X02658392Y01770983D01*
X02645709Y01782303*
X02669712Y01783666D02*
X02657029Y01794986D01*
X02645709Y01782303*
X0255506Y01927282D02*
X02548554Y01911576D01*
X02532848Y01918081*
X0255506Y01927282D02*
X02539354Y01933787D01*
X02532848Y01918081*
X02594953Y01910757D02*
X02588447Y01895051D01*
X02572741Y01901557*
X02594953Y01910757D02*
X02579247Y01917263D01*
X02572741Y01901557*
X02634846Y01894233D02*
X0262834Y01878527D01*
X02612634Y01885033*
X02634846Y01894233D02*
X0261914Y01900739D01*
X02612634Y01885033*
X02670298Y01865764D02*
X02662912Y01850452D01*
X02647601Y01857837*
X02670298Y01865764D02*
X02654986Y01873149D01*
X02647601Y01857837*
X02679144Y01889639D02*
X0267354Y0187359D01*
X0265749Y01879195*
X02679144Y01889639D02*
X02663095Y01895244D01*
X0265749Y01879195*
X0270919Y01847004D02*
X02701804Y01831692D01*
X02686493Y01839078*
X0270919Y01847004D02*
X02693878Y0185439D01*
X02686493Y01839078*
X0271991Y01875403D02*
X02714305Y01859354D01*
X02698256Y01864959*
X0271991Y01875403D02*
X02703861Y01881008D01*
X02698256Y01864959*
X02559026Y01964211D02*
Y01947211D01*
X02542026*
X02559026Y01964211D02*
X02542026D01*
Y01947211*
X02602206Y01964211D02*
Y01947211D01*
X02585206*
X02602206Y01964211D02*
X02585206D01*
Y01947211*
X02645386Y01964211D02*
Y01947211D01*
X02628386*
X02645386Y01964211D02*
X02628386D01*
Y01947211*
X02689034Y01951476D02*
X0268807Y01934503D01*
X02671098Y01935467*
X02689034Y01951476D02*
X02672061Y0195244D01*
X02671098Y01935467*
X02689034Y01959947D02*
X0268807Y01976919D01*
X02689034Y01959947D02*
X02672061Y01958983D01*
X0268807Y01976919D02*
X02671098Y01975956D01*
X02672061Y01958983D02*
X02671098Y01975956D01*
X02732144Y01949028D02*
X02731181Y01932055D01*
X02714208Y01933019*
X02732144Y01949028D02*
X02715172Y01949992D01*
X02714208Y01933019*
X02732144Y01962395D02*
X02731181Y01979367D01*
X02732144Y01962395D02*
X02715172Y01961431D01*
X02731181Y01979367D02*
X02714208Y01978404D01*
X02715172Y01961431D02*
X02714208Y01978404D01*
X02555063Y01984142D02*
X02548558Y01999848D01*
X02555063Y01984142D02*
X02539357Y01977636D01*
X02548558Y01999848D02*
X02532852Y01993342D01*
X02539357Y01977636D02*
X02532852Y01993342D01*
X02594956Y02000666D02*
X02588451Y02016372D01*
X02594956Y02000666D02*
X0257925Y0199416D01*
X02588451Y02016372D02*
X02572745Y02009866D01*
X0257925Y0199416D02*
X02572745Y02009866D01*
X02634849Y0201719D02*
X02628344Y02032896D01*
X02634849Y0201719D02*
X02619144Y02010684D01*
X02628344Y02032896D02*
X02612638Y0202639D01*
X02619144Y02010684D02*
X02612638Y0202639D01*
X02679148Y02021784D02*
X02673543Y02037833D01*
X02679148Y02021784D02*
X02663098Y02016179D01*
X02673543Y02037833D02*
X02657494Y02032229D01*
X02663098Y02016179D02*
X02657494Y02032229D01*
X02670302Y0204566D02*
X02662916Y02060972D01*
X02670302Y0204566D02*
X0265499Y02038274D01*
X02662916Y02060972D02*
X02647604Y02053586D01*
X0265499Y02038274D02*
X02647604Y02053586D01*
X02719914Y0203602D02*
X02714309Y02052069D01*
X02719914Y0203602D02*
X02703864Y02030415D01*
X02714309Y02052069D02*
X02698259Y02046465D01*
X02703864Y02030415D02*
X02698259Y02046465D01*
X02709194Y02064419D02*
X02701808Y02079731D01*
X02709194Y02064419D02*
X02693882Y02057033D01*
X02701808Y02079731D02*
X02686496Y02072345D01*
X02693882Y02057033D02*
X02686496Y02072345D01*
X02537324Y02016734D02*
X02525303Y02028754D01*
X02537324Y02016734D02*
X02525303Y02004713D01*
Y02028754D02*
X02513282Y02016734D01*
X02525303Y02004713D02*
X02513282Y02016734D01*
X02567857Y02047266D02*
X02555836Y02059287D01*
X02567857Y02047266D02*
X02555836Y02035246D01*
Y02059287D02*
X02543815Y02047266D01*
X02555836Y02035246D02*
X02543815Y02047266D01*
X02598335Y0207781D02*
X02586315Y02089831D01*
X02598335Y0207781D02*
X02586315Y02065789D01*
Y02089831D02*
X02574294Y0207781D01*
X02586315Y02065789D02*
X02574294Y0207781D01*
X02637504Y02099007D02*
X02626184Y0211169D01*
X02637504Y02099007D02*
X02624821Y02087687D01*
X02626184Y0211169D02*
X02613501Y0210037D01*
X02624821Y02087687D02*
X02613501Y0210037D01*
X02620194Y0211768D02*
X02607511Y02129D01*
X02620194Y0211768D02*
X02608874Y02104997D01*
X02607511Y02129D02*
X02596191Y02116317D01*
X02608874Y02104997D02*
X02596191Y02116317D01*
X02669719Y02127759D02*
X02658399Y02140442D01*
X02669719Y02127759D02*
X02657036Y02116439D01*
X02658399Y02140442D02*
X02645716Y02129122D01*
X02657036Y02116439D02*
X02645716Y02129122D01*
X02648947Y02149894D02*
X02636264Y02161214D01*
X02648947Y02149894D02*
X02637627Y02137211D01*
X02636264Y02161214D02*
X02624944Y02148531D01*
X02637627Y02137211D02*
X02624944Y02148531D01*
X02508408Y02040045D02*
X02492702Y02046551D01*
X02508408Y02040045D02*
X02501903Y0202434D01*
X02492702Y02046551D02*
X02486197Y02030845D01*
X02501903Y0202434D02*
X02486197Y02030845D01*
X02524933Y02079939D02*
X02509227Y02086444D01*
X02524933Y02079939D02*
X02518427Y02064233D01*
X02509227Y02086444D02*
X02502721Y02070738D01*
X02518427Y02064233D02*
X02502721Y02070738D01*
X02541403Y02119842D02*
X02525697Y02126348D01*
X02541403Y02119842D02*
X02534897Y02104137D01*
X02525697Y02126348D02*
X02519191Y02110642D01*
X02534897Y02104137D02*
X02519191Y02110642D01*
X02569478Y02154415D02*
X02554166Y021618D01*
X02569478Y02154415D02*
X02562093Y02139103D01*
X02554166Y021618D02*
X02546781Y02146488D01*
X02562093Y02139103D02*
X02546781Y02146488D01*
X0254634Y02165042D02*
X02530291Y02170647D01*
X0254634Y02165042D02*
X02540735Y02148992D01*
X02530291Y02170647D02*
X02524686Y02154597D01*
X02540735Y02148992D02*
X02524686Y02154597D01*
X02588238Y02193307D02*
X02572926Y02200692D01*
X02588238Y02193307D02*
X02580852Y02177995D01*
X02572926Y02200692D02*
X0256554Y0218538D01*
X02580852Y02177995D02*
X0256554Y0218538D01*
X02560576Y02205808D02*
X02544527Y02211412D01*
X02560576Y02205808D02*
X02554971Y02189758D01*
X02544527Y02211412D02*
X02538922Y02195363D01*
X02554971Y02189758D02*
X02538922Y02195363D01*
X02472719Y02050528D02*
X02455718D01*
X02472719D02*
Y02033528D01*
X02455718Y02050528D02*
Y02033528D01*
X02472719D02*
X02455718D01*
X02472722Y02093706D02*
X02455722D01*
X02472722D02*
Y02076706D01*
X02455722Y02093706D02*
Y02076706D01*
X02472722D02*
X02455722D01*
X02472719Y02136888D02*
X02455719D01*
X02472719D02*
Y02119888D01*
X02455719Y02136888D02*
Y02119888D01*
X02472719D02*
X02455719D01*
X02485427Y02179574D02*
X02468454Y02180536D01*
X02485427Y02179574D02*
X02484463Y021626D01*
X02468454Y02180536D02*
X0246749Y02163564D01*
X02484463Y021626D02*
X0246749Y02163564D01*
X02459983Y02180536D02*
X0244301Y02179574D01*
X02460947Y02163564D02*
X02459983Y02180536D01*
X02443974Y021626D02*
X0244301Y02179574D01*
X02460947Y02163564D02*
X02443974Y021626D01*
X02487875Y02222683D02*
X02470902Y02223647D01*
X02487875Y02222683D02*
X02486911Y0220571D01*
X02470902Y02223647D02*
X02469938Y02206674D01*
X02486911Y0220571D02*
X02469938Y02206674D01*
X02457535Y02223647D02*
X02440562Y02222683D01*
X02458499Y02206674D02*
X02457535Y02223647D01*
X02441526Y0220571D02*
X02440562Y02222683D01*
X02458499Y02206674D02*
X02441526Y0220571D01*
X02435788Y02046565D02*
X02420082Y0204006D01*
X02442294Y0203086D02*
X02435788Y02046565D01*
X02426589Y02024354D02*
X02420082Y0204006D01*
X02442294Y0203086D02*
X02426589Y02024354D01*
X02419264Y02086459D02*
X02403558Y02079953D01*
X0242577Y02070753D02*
X02419264Y02086459D01*
X02410064Y02064247D02*
X02403558Y02079953D01*
X0242577Y02070753D02*
X02410064Y02064247D01*
X0240274Y02126352D02*
X02387034Y02119846D01*
X02409245Y02110646D02*
X0240274Y02126352D01*
X02393539Y0210414D02*
X02387034Y02119846D01*
X02409245Y02110646D02*
X02393539Y0210414D01*
X02398146Y0217065D02*
X02382096Y02165046D01*
X02403751Y02154601D02*
X02398146Y0217065D01*
X02387701Y02148996D02*
X02382096Y02165046D01*
X02403751Y02154601D02*
X02387701Y02148996D01*
X0237427Y02161804D02*
X02358958Y02154418D01*
X02381656Y02146492D02*
X0237427Y02161804D01*
X02366344Y02139106D02*
X02358958Y02154418D01*
X02381656Y02146492D02*
X02366344Y02139106D01*
X0238391Y02211416D02*
X0236786Y02205811D01*
X02389515Y02195367D02*
X0238391Y02211416D01*
X02373465Y02189762D02*
X0236786Y02205811D01*
X02389515Y02195367D02*
X02373465Y02189762D01*
X02355511Y02200696D02*
X02340199Y0219331D01*
X02362896Y02185384D02*
X02355511Y02200696D01*
X02347584Y02177999D02*
X02340199Y0219331D01*
X02362896Y02185384D02*
X02347584Y02177999D01*
X02403185Y02028772D02*
X02391165Y02016751D01*
X02415206D02*
X02403185Y02028772D01*
Y0200473D02*
X02391165Y02016751D01*
X02415206D02*
X02403185Y0200473D01*
X02372653Y02059305D02*
X02360632Y02047284D01*
X02384673D02*
X02372653Y02059305D01*
Y02035263D02*
X02360632Y02047284D01*
X02384673D02*
X02372653Y02035263D01*
X0234212Y02089838D02*
X02330099Y02077817D01*
X0235414D02*
X0234212Y02089838D01*
Y02065796D02*
X02330099Y02077817D01*
X0235414D02*
X0234212Y02065796D01*
X02320923Y02129006D02*
X0230824Y02117686D01*
X02332243Y02116323D02*
X02320923Y02129006D01*
X0231956Y02105003D02*
X0230824Y02117686D01*
X02332243Y02116323D02*
X0231956Y02105003D01*
X0230225Y02111696D02*
X0229093Y02099013D01*
X02314933Y02100376D02*
X0230225Y02111696D01*
X02303613Y02087694D02*
X0229093Y02099013D01*
X02314933Y02100376D02*
X02303613Y02087694D01*
X0229217Y02161221D02*
X02279488Y02149901D01*
X0230349Y02148538D02*
X0229217Y02161221D01*
X02290808Y02137218D02*
X02279488Y02149901D01*
X0230349Y02148538D02*
X02290808Y02137218D01*
X02270036Y02140449D02*
X02258716Y02127766D01*
X02282719Y02129129D02*
X02270036Y02140449D01*
X02271399Y02116446D02*
X02258716Y02127766D01*
X02282719Y02129129D02*
X02271399Y02116446D01*
X02379874Y01999856D02*
X02373368Y0198415D01*
X02395579Y01993351D02*
X02379874Y01999856D01*
X02389074Y01977645D02*
X02373368Y0198415D01*
X02395579Y01993351D02*
X02389074Y01977645D01*
X02339981Y02016381D02*
X02333475Y02000675D01*
X02355686Y02009875D02*
X02339981Y02016381D01*
X02349181Y01994169D02*
X02333475Y02000675D01*
X02355686Y02009875D02*
X02349181Y01994169D01*
X02300087Y02032905D02*
X02293582Y02017199D01*
X02315793Y02026399D02*
X02300087Y02032905D01*
X02309288Y02010693D02*
X02293582Y02017199D01*
X02315793Y02026399D02*
X02309288Y02010693D01*
X02265515Y0206098D02*
X0225813Y02045669D01*
X02280827Y02053595D02*
X02265515Y0206098D01*
X02273442Y02038283D02*
X0225813Y02045669D01*
X02280827Y02053595D02*
X02273442Y02038283D01*
X02254888Y02037842D02*
X02249283Y02021793D01*
X02270937Y02032238D02*
X02254888Y02037842D01*
X02265333Y02016188D02*
X02249283Y02021793D01*
X02270937Y02032238D02*
X02265333Y02016188D01*
X02226623Y0207974D02*
X02219237Y02064428D01*
X02241935Y02072354D02*
X02226623Y0207974D01*
X02234549Y02057042D02*
X02219237Y02064428D01*
X02241935Y02072354D02*
X02234549Y02057042D01*
X02214122Y02052078D02*
X02208517Y02036029D01*
X02230172Y02046474D02*
X02214122Y02052078D01*
X02224567Y02030424D02*
X02208517Y02036029D01*
X02230172Y02046474D02*
X02224567Y02030424D01*
X02369402Y01964221D02*
Y01947221D01*
X02386402Y01964221D02*
X02369402D01*
X02386402Y01947221D02*
X02369402D01*
X02386402Y01964221D02*
Y01947221D01*
X02326222Y01964221D02*
Y01947221D01*
X02343222Y01964221D02*
X02326222D01*
X02343222Y01947221D02*
X02326222D01*
X02343222Y01964221D02*
Y01947221D01*
X02283042Y01964221D02*
Y01947221D01*
X02300042Y01964221D02*
X02283042D01*
X02300042Y01947221D02*
X02283042D01*
X02300042Y01964221D02*
Y01947221D01*
X02240357Y01976929D02*
X02239394Y01959956D01*
X0225733Y01975965D02*
X02240357Y01976929D01*
X02256366Y01958993D02*
X02239394Y01959956D01*
X0225733Y01975965D02*
X02256366Y01958993D01*
X02240357Y01934513D02*
X02239394Y01951485D01*
X02256366Y01952449D02*
X02239394Y01951485D01*
X0225733Y01935476D02*
X02240357Y01934513D01*
X0225733Y01935476D02*
X02256366Y01952449D01*
X02197247Y01979377D02*
X02196283Y01962404D01*
X02214219Y01978413D02*
X02197247Y01979377D01*
X02213256Y01961441D02*
X02196283Y01962404D01*
X02214219Y01978413D02*
X02213256Y01961441D01*
X02197247Y01932065D02*
X02196283Y01949037D01*
X02213256Y01950001D02*
X02196283Y01949037D01*
X02214219Y01933028D02*
X02197247Y01932065D01*
X02214219Y01933028D02*
X02213256Y01950001D01*
X02383237Y01783761D02*
X02379793Y01775447D01*
X02399867Y01776873D02*
X02396423Y01768558D01*
X02399867Y01776873D02*
X02383237Y01783761D01*
X02396423Y01768558D02*
X02379793Y01775447D01*
X02354423Y01749501D02*
X02350512Y01741395D01*
X02370635Y01741681D02*
X02366725Y01733575D01*
X02370635Y01741681D02*
X02354423Y01749501D01*
X02366725Y01733575D02*
X02350512Y01741395D01*
X02379064Y01738481D02*
X02376097Y01729984D01*
X02396058Y01732546D02*
X0239309Y0172405D01*
X02396058Y01732546D02*
X02379064Y01738481D01*
X0239309Y0172405D02*
X02376097Y01729984D01*
X02399762Y01823655D02*
X02396317Y0181534D01*
X02416391Y01816766D02*
X02412947Y01808451D01*
X02416391Y01816766D02*
X02399762Y01823655D01*
X02412947Y01808451D02*
X02396317Y0181534D01*
X02325257Y01907909D02*
X02316943Y01904465D01*
X02332146Y01891279D02*
X02323831Y01887835D01*
X02332146Y01891279D02*
X02325257Y01907909D01*
X02323831Y01887835D02*
X02316943Y01904465D01*
X02561522Y01733791D02*
X02557612Y01741898D01*
X02577735Y01741612D02*
X02573825Y01749718D01*
X02557612Y01741898*
X02577735Y01741612D02*
X02561522Y01733791D01*
X02598455Y01808735D02*
X02592091Y01815099D01*
X02611183Y01821463D02*
X02604819Y01827827D01*
X02592091Y01815099*
X02611183Y01821463D02*
X02598455Y01808735D01*
X02618709Y01768653D02*
X02612716Y01775367D01*
X02632139Y01780638D02*
X02626146Y01787353D01*
X02612716Y01775367*
X02632139Y01780638D02*
X02618709Y01768653D01*
X02531989Y01768552D02*
X02528545Y01776867D01*
X02548619Y0177544D02*
X02545175Y01783755D01*
X02528545Y01776867*
X02548619Y0177544D02*
X02531989Y01768552D01*
X02515465Y01808445D02*
X02512021Y0181676D01*
X02532095Y01815333D02*
X02528651Y01823648D01*
X02512021Y0181676*
X02532095Y01815333D02*
X02515465Y01808445D01*
X02469188Y01713446D02*
X02468678Y01722432D01*
X02487159Y01714466D02*
X02486649Y01723452D01*
X02468678Y01722432*
X02487159Y01714466D02*
X02469188Y01713446D01*
X02535363Y01723769D02*
X02532396Y01732266D01*
X02552357Y01729703D02*
X02549389Y017382D01*
X02532396Y01732266*
X02552357Y01729703D02*
X02535363Y01723769D01*
X02384663Y01888905D02*
X02378299Y01882541D01*
X02397391Y01876177D02*
X02391027Y01869813D01*
X02397391Y01876177D02*
X02384663Y01888905D01*
X02391027Y01869813D02*
X02378299Y01882541D01*
X02416286Y01863548D02*
X02412842Y01855233D01*
X02432916Y01856659D02*
X02429471Y01848344D01*
X02432916Y01856659D02*
X02416286Y01863548D01*
X02429471Y01848344D02*
X02412842Y01855233D01*
X02639042Y01787923D02*
X02632327Y01793916D01*
X02651028Y01801352D02*
X02644313Y01807345D01*
X02632327Y01793916*
X02651028Y01801352D02*
X02639042Y01787923D01*
X02537389Y01869801D02*
X02531025Y01876165D01*
X02550117Y01882529D02*
X02543753Y01888893D01*
X02531025Y01876165*
X02550117Y01882529D02*
X02537389Y01869801D01*
X02498941Y01848338D02*
X02495496Y01856653D01*
X0251557Y01855226D02*
X02512126Y01863541D01*
X02495496Y01856653*
X0251557Y01855226D02*
X02498941Y01848338D01*
X02567922Y01839268D02*
X02561558Y01845632D01*
X0258065Y01851996D02*
X02574286Y0185836D01*
X02561558Y01845632*
X0258065Y01851996D02*
X02567922Y01839268D01*
X0260459Y0188782D02*
X02596275Y01891264D01*
X02611478Y0190445D02*
X02603164Y01907894D01*
X02596275Y01891264*
X02611478Y0190445D02*
X0260459Y0188782D01*
X02689946Y01867599D02*
X02681449Y01870566D01*
X0269588Y01884593D02*
X02687383Y0188756D01*
X02681449Y01870566*
X0269588Y01884593D02*
X02689946Y01867599D01*
X02678535Y01842015D02*
X02670429Y01845925D01*
X02686355Y01858227D02*
X02678249Y01862138D01*
X02670429Y01845925*
X02686355Y01858227D02*
X02678535Y01842015D01*
X02644483Y01871295D02*
X02636168Y01874739D01*
X02651372Y01887925D02*
X02643057Y01891369D01*
X02636168Y01874739*
X02651372Y01887925D02*
X02644483Y01871295D01*
X02455205Y01800042D02*
Y01809042D01*
X02473205D02*
Y01800042D01*
Y01809042D02*
X02455205D01*
X02473205Y01800042D02*
X02455205D01*
Y01756862D02*
Y01765862D01*
X02473205D02*
Y01756862D01*
Y01765862D02*
X02455205D01*
X02473205Y01756862D02*
X02455205D01*
Y01852222D02*
Y01843222D01*
X02473205Y01852222D02*
Y01843222D01*
Y01852222D02*
X02455205D01*
X02473205Y01843222D02*
X02455205D01*
X0235413Y01858372D02*
X02347766Y01852008D01*
X02366858Y01845644D02*
X02360494Y0183928D01*
X02366858Y01845644D02*
X0235413Y01858372D01*
X02360494Y0183928D02*
X02347766Y01852008D01*
X02365151Y01924433D02*
X02356836Y01920989D01*
X02372039Y01907804D02*
X02363724Y01904359D01*
X02372039Y01907804D02*
X02365151Y01924433D01*
X02363724Y01904359D02*
X02356836Y01920989D01*
X02285365Y01891385D02*
X02277049Y01887941D01*
X02292253Y01874755D02*
X02283938Y01871311D01*
X02292253Y01874755D02*
X02285365Y01891385D01*
X02283938Y01871311D02*
X02277049Y01887941D01*
X02240763Y01887534D02*
X02232267Y01884567D01*
X02246698Y0187054D02*
X02238201Y01867573D01*
X02246698Y0187054D02*
X02240763Y01887534D01*
X02238201Y01867573D02*
X02232267Y01884567D01*
X02323597Y01827839D02*
X02317233Y01821475D01*
X02336325Y01815111D02*
X02329961Y01808747D01*
X02336325Y01815111D02*
X02323597Y01827839D01*
X02329961Y01808747D02*
X02317233Y01821475D01*
X02250395Y01862318D02*
X02242289Y01858407D01*
X02258215Y01846105D02*
X02250109Y01842195D01*
X02258215Y01846105D02*
X02250395Y01862318D01*
X02250109Y01842195D02*
X02242289Y01858407D01*
X02302413Y01787602D02*
X02296421Y01780888D01*
X02315843Y01775617D02*
X02309849Y01768902D01*
X02315843Y01775617D02*
X02302413Y01787602D01*
X02309849Y01768902D02*
X02296421Y01780888D01*
X02283865Y01807213D02*
X0227715Y0180122D01*
X02295851Y01793784D02*
X02289136Y01787791D01*
X02295851Y01793784D02*
X02283865Y01807213D01*
X02289136Y01787791D02*
X0227715Y0180122D01*
X02283944Y02040137D02*
X02277056Y02023507D01*
X02292259Y02036693D02*
X02285371Y02020063D01*
X02277056Y02023507*
X02292259Y02036693D02*
X02283944Y02040137D01*
X02246979Y02040866D02*
X02238482Y02043833D01*
X02241044Y02023872D02*
X02232547Y02026839D01*
X02246979Y02040866D02*
X02241044Y02023872D01*
X02238482Y02043833D02*
X02232547Y02026839D01*
X02231681Y01978235D02*
X02222695Y01978745D01*
X0223066Y01960264D02*
X02221675Y01960774D01*
X02231681Y01978235D02*
X0223066Y01960264D01*
X02222695Y01978745D02*
X02221675Y01960774D01*
X0231754Y01964724D02*
X0230854D01*
X0231754Y01946724D02*
X0230854D01*
X0231754Y01964724D02*
Y01946724D01*
X0230854Y01964724D02*
Y01946724D01*
X0227436Y01964724D02*
X0226536D01*
X0227436Y01946724D02*
X0226536D01*
X0227436D02*
Y01964724D01*
X0226536D02*
Y01946724D01*
X0236072Y01964724D02*
X0235172D01*
X0236072Y01946724D02*
X0235172D01*
X0236072Y01964724D02*
Y01946724D01*
X0235172Y01964724D02*
Y01946724D01*
X02230929Y01951252D02*
X02221944Y01950741D01*
X0223195Y01933281D02*
X02222964Y0193277D01*
X0223195Y01933281D02*
X02230929Y01951252D01*
X02222964Y0193277D02*
X02221944Y01950741D01*
X02257999Y02065507D02*
X02249892Y02069417D01*
X02250178Y02049295D02*
X02242072Y02053205D01*
X02257999Y02065507D02*
X02250178Y02049295D01*
X02249892Y02069417D02*
X02242072Y02053205D01*
X02441695Y01723183D02*
X02441185Y01714197D01*
X02459666Y01722162D02*
X02459156Y01713177D01*
X02459666Y01722162D02*
X02441695Y01723183D01*
X02459156Y01713177D02*
X02441185Y01714197D01*
X02396032Y02179166D02*
X02393064Y02187663D01*
X02379038Y02173232D02*
X02376071Y02181729D01*
X02396032Y02179166D02*
X02379038Y02173232D01*
X02393064Y02187663D02*
X02376071Y02181729D01*
X02370815Y02169534D02*
X02366905Y02177641D01*
X02354603Y02161714D02*
X02350693Y02169821D01*
X02370815Y02169534D02*
X02354603Y02161714D01*
X02366905Y02177641D02*
X02350693Y02169821D01*
X02315711Y02136065D02*
X02309718Y0214278D01*
X02302282Y02124079D02*
X02296289Y02130794D01*
X02315711Y02136065D02*
X02302282Y02124079D01*
X02309718Y0214278D02*
X02296289Y02130794D01*
X02336337Y02096333D02*
X02329973Y02102697D01*
X02323609Y02083605D02*
X02317245Y02089969D01*
X02336337Y02096333D02*
X02323609Y02083605D01*
X02329973Y02102697D02*
X02317245Y02089969D01*
X0236687Y020658D02*
X02360506Y02072164D01*
X02354142Y02053072D02*
X02347778Y02059436D01*
X0236687Y020658D02*
X02354142Y02053072D01*
X02360506Y02072164D02*
X02347778Y02059436D01*
X022961Y02117516D02*
X02289385Y02123509D01*
X02284114Y02104087D02*
X022774Y0211008D01*
X022961Y02117516D02*
X02284114Y02104087D01*
X02289385Y02123509D02*
X022774Y0211008D01*
X02323837Y02023612D02*
X02316949Y02006983D01*
X02332152Y02020168D02*
X02325264Y02003538D01*
X02316949Y02006983*
X02332152Y02020168D02*
X02323837Y02023612D01*
X02397403Y02035267D02*
X02391039Y02041631D01*
X02384675Y02022539D02*
X02378311Y02028903D01*
X02397403Y02035267D02*
X02384675Y02022539D01*
X02391039Y02041631D02*
X02378311Y02028903D01*
X0236373Y02007088D02*
X02356842Y01990458D01*
X02372045Y02003644D02*
X02365157Y01987014D01*
X02356842Y01990458*
X02372045Y02003644D02*
X0236373Y02007088D01*
X02696161Y02026865D02*
X02687664Y02023898D01*
X02690226Y02043859D02*
X0268173Y02040892D01*
X02687664Y02023898D02*
X0268173Y02040892D01*
X02696161Y02026865D02*
X02690226Y02043859D01*
X02706484Y01960691D02*
X02697498Y0196018D01*
X02705463Y01978662D02*
X02696478Y01978152D01*
X02697498Y0196018D02*
X02696478Y01978152D01*
X02706484Y01960691D02*
X02705463Y01978662D01*
X02619888Y01946708D02*
X02610887D01*
X02619888Y01964708D02*
X02610887D01*
Y01946708*
X02619888D02*
Y01964708D01*
X02611485Y02006967D02*
X0260317Y02003523D01*
X02604596Y02023597D02*
X02596282Y02020153D01*
X0260317Y02003523D02*
X02596282Y02020153D01*
X02611485Y02006967D02*
X02604596Y02023597D01*
X02577915Y02170037D02*
X02574005Y02161931D01*
X02561702Y02177858D02*
X02557792Y02169751D01*
X02574005Y02161931D02*
X02557792Y02169751D01*
X02577915Y02170037D02*
X02561702Y02177858D01*
X02552331Y02181448D02*
X02549363Y02172951D01*
X02535337Y02187383D02*
X0253237Y02178886D01*
X02549363Y02172951D02*
X0253237Y02178886D01*
X02552331Y02181448D02*
X02535337Y02187383D01*
X02632007Y02130544D02*
X02626014Y0212383D01*
X02618578Y0214253D02*
X02612585Y02135816D01*
X02626014Y0212383D02*
X02612585Y02135816D01*
X02632007Y02130544D02*
X02618578Y0214253D01*
X02548634Y02135986D02*
X0254519Y02127671D01*
X02532005Y02142874D02*
X0252856Y02134559D01*
X0254519Y02127671D02*
X0252856Y02134559D01*
X02548634Y02135986D02*
X02532005Y02142874D01*
X0253211Y02096092D02*
X02528666Y02087778D01*
X0251548Y02102981D02*
X02512036Y02094666D01*
X02528666Y02087778D02*
X02512036Y02094666D01*
X0253211Y02096092D02*
X0251548Y02102981D01*
X02550129Y02028891D02*
X02543765Y02022527D01*
X02537401Y02041619D02*
X02531037Y02035255D01*
X02543765Y02022527D02*
X02531037Y02035255D01*
X02550129Y02028891D02*
X02537401Y02041619D01*
X02571592Y01990443D02*
X02563277Y01986999D01*
X02564704Y02007073D02*
X02556388Y02003629D01*
X02563277Y01986999D02*
X02556388Y02003629D01*
X02571592Y01990443D02*
X02564704Y02007073D01*
X02580662Y02059424D02*
X02574298Y0205306D01*
X02567934Y02072152D02*
X0256157Y02065788D01*
X02574298Y0205306D02*
X0256157Y02065788D01*
X02580662Y02059424D02*
X02567934Y02072152D01*
X02576707Y01946708D02*
X02567707D01*
X02576707Y01964708D02*
X02567707D01*
Y01946708D02*
Y01964708D01*
X02576707D02*
Y01946708D01*
X02487243Y02197235D02*
X02486733Y02188249D01*
X02469272Y02198255D02*
X02468761Y0218927D01*
X02486733Y02188249D02*
X02468761Y0218927D01*
X02487243Y02197235D02*
X02469272Y02198255D01*
X02473222Y0214557D02*
Y0215457D01*
X02455222D02*
Y0214557D01*
X02473222D02*
X02455222D01*
X02473222Y0215457D02*
X02455222D01*
X0245975Y02189D02*
X02459239Y02197986D01*
X02441778Y0218798D02*
X02441268Y02196966D01*
X0245975Y02189D02*
X02441778Y0218798D01*
X02459239Y02197986D02*
X02441268Y02196966D01*
X02473222Y0210239D02*
Y0211139D01*
X02455222D02*
Y0210239D01*
X02473222D02*
X02455222D01*
X02473222Y0211139D02*
X02455222D01*
X02416407Y02094672D02*
X02412963Y02102987D01*
X02399777Y02087784D02*
X02396333Y02096099D01*
X02416407Y02094672D02*
X02399777Y02087784D01*
X02412963Y02102987D02*
X02396333Y02096099D01*
X02399883Y02134565D02*
X02396438Y0214288D01*
X02383253Y02127677D02*
X02379809Y02135992D01*
X02399883Y02134565D02*
X02383253Y02127677D01*
X02396438Y0214288D02*
X02379809Y02135992D01*
X02686139Y02053025D02*
X02678032Y02049115D01*
X02678318Y02069237D02*
X02670212Y02065327D01*
X02678032Y02049115D02*
X02670212Y02065327D01*
X02686139Y02053025D02*
X02678318Y02069237D01*
X02651379Y02023491D02*
X02643063Y02020047D01*
X0264449Y02040121D02*
X02636175Y02036677D01*
X02643063Y02020047D02*
X02636175Y02036677D01*
X02651379Y02023491D02*
X0264449Y02040121D01*
X02611194Y02089957D02*
X02604831Y02083593D01*
X02598466Y02102685D02*
X02592103Y02096321D01*
X02604831Y02083593D02*
X02592103Y02096321D01*
X02611194Y02089957D02*
X02598466Y02102685D01*
X02651277Y02110212D02*
X02644563Y02104219D01*
X02639291Y02123641D02*
X02632577Y02117648D01*
X02644563Y02104219D02*
X02632577Y02117648D01*
X02651277Y02110212D02*
X02639291Y02123641D01*
X02515586Y02056199D02*
X02512142Y02047884D01*
X02498956Y02063088D02*
X02495512Y02054773D01*
X02512142Y02047884D02*
X02495512Y02054773D01*
X02515586Y02056199D02*
X02498956Y02063088D01*
X02432931Y02054779D02*
X02429487Y02063094D01*
X02416302Y02047891D02*
X02412857Y02056206D01*
X02432931Y02054779D02*
X02416302Y02047891D01*
X02429487Y02063094D02*
X02412857Y02056206D01*
X02473222Y0206821D02*
Y0205921D01*
X02455222Y0206821D02*
Y0205921D01*
X02473222D02*
X02455222D01*
X02473222Y0206821D02*
X02455222D01*
X02705733Y01932687D02*
X02696747Y01933197D01*
X02706753Y01950658D02*
X02697768Y01951168D01*
X02696747Y01933197*
X02706753Y01950658D02*
X02705733Y01932687D01*
X02663068Y01946708D02*
X02654068D01*
X02663068Y01964708D02*
X02654068D01*
Y01946708D02*
Y01964708D01*
X02663068D02*
Y01946708D01*
X02564697Y01904344D02*
X02556383Y01907788D01*
X02571585Y01920974D02*
X0256327Y01924418D01*
X02556383Y01907788*
X02571585Y01920974D02*
X02564697Y01904344D01*
G54D84*
X01038114Y01956022D02*
X01040654D01*
X01039384Y01957292D02*
X01040654Y01956022D01*
X01038114D02*
X01039384Y01957292D01*
X00994934Y01956022D02*
X00997474D01*
X00996204Y01957292D02*
X00997474Y01956022D01*
X00994934D02*
X00996204Y01957292D01*
X01024448Y01923029D02*
X01026244Y01921233D01*
Y01923029*
X01024448D02*
X01026244D01*
X00991454Y01906822D02*
Y01909362D01*
Y01906822D02*
X00992724Y01908092D01*
X00991454Y01909362D02*
X00992724Y01908092D01*
X00956665Y01921233D02*
X00958461Y01923029D01*
X00956665Y01921233D02*
X00958461D01*
Y01923029*
X00942254Y01956022D02*
X00944794D01*
X00942254D02*
X00943524Y01954752D01*
X00944794Y01956022*
X00956665Y01990812D02*
X00958461Y01989016D01*
X00956665D02*
Y01990812D01*
Y01989016D02*
X00958461D01*
X00991454Y02002682D02*
Y02005222D01*
X00990184Y02003952D02*
X00991454Y02005222D01*
X00990184Y02003952D02*
X00991454Y02002682D01*
X01024448Y01989016D02*
X01026244Y01990812D01*
X01024448D02*
X01026244D01*
X01024448Y01989016D02*
Y01990812D01*
X01065636Y01986603D02*
X01067983Y01987575D01*
X01065636Y01986603D02*
X01067296Y01985915D01*
X01067983Y01987575*
X01105529Y02003127D02*
X01107876Y02004099D01*
X01105529Y02003127D02*
X01107189Y02002439D01*
X01107876Y02004099*
X01145422Y02019651D02*
X01147769Y02020623D01*
X01145422Y02019651D02*
X01147082Y02018964D01*
X01147769Y02020623*
X01189878Y02025186D02*
X01192276Y02026024D01*
X01189878Y02025186D02*
X01191496Y02024406D01*
X01192276Y02026024*
X01180771Y02047172D02*
X01183059Y02048276D01*
X01180771Y02047172D02*
X01182467Y0204658D01*
X01183059Y02048276*
X01230644Y02039422D02*
X01233043Y02040259D01*
X01230644Y02039422D02*
X01232261Y02038642D01*
X01233043Y02040259*
X01219663Y02065931D02*
X01221951Y02067035D01*
X01219663Y02065931D02*
X01221359Y02065339D01*
X01221951Y02067035*
X01048233Y02012652D02*
X01050029Y02014448D01*
X01048233Y02012652D02*
X01050029D01*
Y02014448*
X01078765Y02043185D02*
X01080562Y02044981D01*
X01078765Y02043185D02*
X01080562D01*
Y02044981*
X01109298Y02073718D02*
X01111094Y02075514D01*
X01109298Y02073718D02*
X01111094D01*
Y02075514*
X01148252Y02095844D02*
X01150147Y02097535D01*
X01148252Y02095844D02*
X01150045Y02095742D01*
X01150147Y02097535*
X01131424Y02112671D02*
X01133116Y02114566D01*
X01131424Y02112671D02*
X01133218Y02112773D01*
X01133116Y02114566D02*
X01133218Y02112773D01*
X01180467Y02124597D02*
X01182362Y02126288D01*
X01180467Y02124597D02*
X0118226Y02124495D01*
X01182362Y02126288*
X01160177Y02144886D02*
X01161869Y02146781D01*
X01160177Y02144886D02*
X0116197Y02144988D01*
X01161869Y02146781D02*
X0116197Y02144988D01*
X01022185Y02030059D02*
X01023157Y02032405D01*
X01022185Y02030059D02*
X01023844Y02030746D01*
X01023157Y02032405D02*
X01023844Y02030746D01*
X01038709Y02069952D02*
X01039681Y02072299D01*
X01038709Y02069952D02*
X01040369Y02070639D01*
X01039681Y02072299D02*
X01040369Y02070639D01*
X01055234Y02109845D02*
X01056206Y02112192D01*
X01055234Y02109845D02*
X01056894Y02110532D01*
X01056206Y02112192D02*
X01056894Y02110532D01*
X01082755Y02145194D02*
X01083858Y02147481D01*
X01082755Y02145194D02*
X0108445Y02145786D01*
X01083858Y02147481D02*
X0108445Y02145786D01*
X01060769Y02154301D02*
X01061606Y02156699D01*
X01060769Y02154301D02*
X01062386Y02155081D01*
X01061606Y02156699D02*
X01062386Y02155081D01*
X01101514Y02184086D02*
X01102617Y02186374D01*
X01101514Y02184086D02*
X0110321Y02184678D01*
X01102617Y02186374D02*
X0110321Y02184678D01*
X01075005Y02195066D02*
X01075842Y02197464D01*
X01075005Y02195066D02*
X01076622Y02195847D01*
X01075842Y02197464D02*
X01076622Y02195847D01*
X00991459Y02036173D02*
Y02038713D01*
Y02036173D02*
X00992729Y02037443D01*
X00991459Y02038713D02*
X00992729Y02037443D01*
X00991459Y02079352D02*
Y02081892D01*
Y02079352D02*
X00992729Y02080622D01*
X00991459Y02081892D02*
X00992729Y02080622D01*
X00991459Y02122533D02*
Y02125073D01*
Y02122533D02*
X00992729Y02123803D01*
X00991459Y02125073D02*
X00992729Y02123803D01*
X01003358Y02165722D02*
X01003502Y02168258D01*
X01003358Y02165722D02*
X01004698Y02166918D01*
X01003502Y02168258D02*
X01004698Y02166918D01*
X00979416Y02168258D02*
X0097956Y02165722D01*
X00980756Y02167062*
X00979416Y02168258D02*
X00980756Y02167062D01*
X01005806Y02208833D02*
X0100595Y02211369D01*
X01005806Y02208833D02*
X01007146Y02210029D01*
X0100595Y02211369D02*
X01007146Y02210029D01*
X00976968Y02211369D02*
X00977112Y02208833D01*
X00978308Y02210173*
X00976968Y02211369D02*
X00978308Y02210173D01*
X0095976Y02032409D02*
X00960732Y02030062D01*
X0096142Y02031722*
X0095976Y02032409D02*
X0096142Y02031722D01*
X00943236Y02072302D02*
X00944208Y02069956D01*
X00944895Y02071615*
X00943236Y02072302D02*
X00944895Y02071615D01*
X00926712Y02112195D02*
X00927684Y02109849D01*
X00928371Y02111508*
X00926712Y02112195D02*
X00928371Y02111508D01*
X00921311Y02156702D02*
X00922149Y02154304D01*
X00922929Y02155922*
X00921311Y02156702D02*
X00922929Y02155922D01*
X00899059Y02147485D02*
X00900163Y02145197D01*
X00900755Y02146893*
X00899059Y02147485D02*
X00900755Y02146893D01*
X00907075Y02197468D02*
X00907913Y0219507D01*
X00908693Y02196688*
X00907075Y02197468D02*
X00908693Y02196688D01*
X008803Y02186377D02*
X00881403Y0218409D01*
X00881996Y02185785*
X008803Y02186377D02*
X00881996Y02185785D01*
X00932887Y02014455D02*
X00934683Y02012659D01*
Y02014455*
X00932887D02*
X00934683D01*
X00902354Y02044988D02*
X0090415Y02043192D01*
Y02044988*
X00902354D02*
X0090415D01*
X00871821Y02075521D02*
X00873617Y02073725D01*
Y02075521*
X00871821D02*
X00873617D01*
X00849799Y02114573D02*
X00851491Y02112678D01*
X00851592Y02114471*
X00849799Y02114573D02*
X00851592Y02114471D01*
X00832768Y02097542D02*
X00834664Y02095851D01*
X00834562Y02097644D02*
X00834664Y02095851D01*
X00832768Y02097542D02*
X00834562Y02097644D01*
X00821047Y02146788D02*
X00822738Y02144893D01*
X0082284Y02146686*
X00821047Y02146788D02*
X0082284Y02146686D01*
X00800554Y02126295D02*
X00802449Y02124603D01*
X00802347Y02126397D02*
X00802449Y02124603D01*
X00800554Y02126295D02*
X00802347Y02126397D01*
X00914929Y01987583D02*
X00917276Y01986611D01*
X00916589Y01988271D02*
X00917276Y01986611D01*
X00914929Y01987583D02*
X00916589Y01988271D01*
X00875036Y02004108D02*
X00877383Y02003136D01*
X00876695Y02004795D02*
X00877383Y02003136D01*
X00875036Y02004108D02*
X00876695Y02004795D01*
X00835143Y02020632D02*
X0083749Y0201966D01*
X00836803Y02021319D02*
X0083749Y0201966D01*
X00835143Y02020632D02*
X00836803Y02021319D01*
X00799853Y02048284D02*
X00802141Y02047181D01*
X00801549Y02048877D02*
X00802141Y02047181D01*
X00799853Y02048284D02*
X00801549Y02048877D01*
X00790636Y02026032D02*
X00793034Y02025195D01*
X00792254Y02026813D02*
X00793034Y02025195D01*
X00790636Y02026032D02*
X00792254Y02026813D01*
X00760961Y02067044D02*
X00763249Y0206594D01*
X00762657Y02067636D02*
X00763249Y0206594D01*
X00760961Y02067044D02*
X00762657Y02067636D01*
X00749871Y02040268D02*
X00752269Y02039431D01*
X00751488Y02041049D02*
X00752269Y02039431D01*
X00749871Y02040268D02*
X00751488Y02041049D01*
X00908622Y01955885D02*
X00911162D01*
X00909892Y01957155D02*
X00911162Y01955885D01*
X00908622D02*
X00909892Y01957155D01*
X00865442Y01955885D02*
X00867982D01*
X00866712Y01957155D02*
X00867982Y01955885D01*
X00865442D02*
X00866712Y01957155D01*
X00822262Y01955885D02*
X00824802D01*
X00823532Y01957155D02*
X00824802Y01955885D01*
X00822262D02*
X00823532Y01957155D01*
X00779077Y01967928D02*
X00781612Y01967784D01*
X00780417Y01969124D02*
X00781612Y01967784D01*
X00779077Y01967928D02*
X00780417Y01969124D01*
X00779077Y01943843D02*
X00781612Y01943987D01*
X00780273Y01945183D02*
X00781612Y01943987D01*
X00779077Y01943843D02*
X00780273Y01945183D01*
X00735966Y01970376D02*
X00738502Y01970232D01*
X00737306Y01971572D02*
X00738502Y01970232D01*
X00735966Y01970376D02*
X00737306Y01971572D01*
X00735966Y01941395D02*
X00738502Y01941539D01*
X00737162Y01942735D02*
X00738502Y01941539D01*
X00735966Y01941395D02*
X00737162Y01942735D01*
X00914926Y01924187D02*
X00917272Y01925159D01*
X00915613Y01925846D02*
X00917272Y01925159D01*
X00914926Y01924187D02*
X00915613Y01925846D01*
X00875032Y01907662D02*
X00877379Y01908634D01*
X0087572Y01909322D02*
X00877379Y01908634D01*
X00875032Y01907662D02*
X0087572Y01909322D01*
X00835139Y01891138D02*
X00837486Y0189211D01*
X00835827Y01892797D02*
X00837486Y0189211D01*
X00835139Y01891138D02*
X00835827Y01892797D01*
X00790632Y01885738D02*
X0079303Y01886575D01*
X00791413Y01887355D02*
X0079303Y01886575D01*
X00790632Y01885738D02*
X00791413Y01887355D01*
X0079985Y01863486D02*
X00802137Y01864589D01*
X00800442Y01865181D02*
X00802137Y01864589D01*
X0079985Y01863486D02*
X00800442Y01865181D01*
X00749867Y01871502D02*
X00752265Y01872339D01*
X00750647Y01873119D02*
X00752265Y01872339D01*
X00749867Y01871502D02*
X00750647Y01873119D01*
X00760957Y01844726D02*
X00763245Y0184583D01*
X0076155Y01846422D02*
X00763245Y0184583D01*
X00760957Y01844726D02*
X0076155Y01846422D01*
X00932826Y01897324D02*
X00934622Y0189912D01*
X00932826D02*
X00934622D01*
X00932826Y01897324D02*
Y0189912D01*
X00902293Y01866791D02*
X00904089Y01868587D01*
X00902293D02*
X00904089D01*
X00902293Y01866791D02*
Y01868587D01*
X00871814Y01836247D02*
X0087361Y01838043D01*
X00871814D02*
X0087361D01*
X00871814Y01836247D02*
Y01838043D01*
X00832762Y01814226D02*
X00834657Y01815917D01*
X00832864Y01816019D02*
X00834657Y01815917D01*
X00832762Y01814226D02*
X00832864Y01816019D01*
X00849793Y01797195D02*
X00851484Y0179909D01*
X00849691Y01798988D02*
X00851484Y0179909D01*
X00849691Y01798988D02*
X00849793Y01797195D01*
X00800547Y01785473D02*
X00802442Y01787164D01*
X00800649Y01787266D02*
X00802442Y01787164D01*
X00800547Y01785473D02*
X00800649Y01787266D01*
X0082104Y0176498D02*
X00822731Y01766875D01*
X00820938Y01766773D02*
X00822731Y01766875D01*
X00820938Y01766773D02*
X0082104Y0176498D01*
X00959697Y01879367D02*
X00960669Y01881713D01*
X0095901Y01881026D02*
X00960669Y01881713D01*
X0095901Y01881026D02*
X00959697Y01879367D01*
X00943173Y01839473D02*
X00944145Y0184182D01*
X00942486Y01841133D02*
X00944145Y0184182D01*
X00942486Y01841133D02*
X00943173Y01839473D01*
X00926703Y01799569D02*
X00927675Y01801916D01*
X00926015Y01801229D02*
X00927675Y01801916D01*
X00926015Y01801229D02*
X00926703Y01799569D01*
X0089905Y0176428D02*
X00900154Y01766567D01*
X00898458Y01765975D02*
X00900154Y01766567D01*
X00898458Y01765975D02*
X0089905Y0176428D01*
X00921302Y01755062D02*
X0092214Y01757461D01*
X00920522Y0175668D02*
X0092214Y01757461D01*
X00920522Y0175668D02*
X00921302Y01755062D01*
X00880291Y01725387D02*
X00881394Y01727675D01*
X00879699Y01727083D02*
X00881394Y01727675D01*
X00879699Y01727083D02*
X00880291Y01725387D01*
X00907066Y01714297D02*
X00907904Y01716695D01*
X00906286Y01715915D02*
X00907904Y01716695D01*
X00906286Y01715915D02*
X00907066Y01714297D01*
X00991449Y01873049D02*
Y01875589D01*
X00990179Y01874319D02*
X00991449Y01875589D01*
X00990179Y01874319D02*
X00991449Y01873049D01*
X00991446Y01829871D02*
Y01832411D01*
X00990176Y01831141D02*
X00991446Y01832411D01*
X00990176Y01831141D02*
X00991446Y01829871D01*
X00991449Y01786689D02*
Y01789229D01*
X00990179Y01787959D02*
X00991449Y01789229D01*
X00990179Y01787959D02*
X00991449Y01786689D01*
X00979407Y01743503D02*
X00979551Y01746039D01*
X00978211Y01744843D02*
X00979551Y01746039D01*
X00978211Y01744843D02*
X00979407Y01743503D01*
X01003348Y01746039D02*
X01003492Y01743503D01*
X01002152Y01744699D02*
X01003348Y01746039D01*
X01002152Y01744699D02*
X01003492Y01743503D01*
X00976959Y01700392D02*
X00977103Y01702928D01*
X00975763Y01701732D02*
X00977103Y01702928D01*
X00975763Y01701732D02*
X00976959Y01700392D01*
X01005796Y01702928D02*
X0100594Y01700392D01*
X010046Y01701588D02*
X01005796Y01702928D01*
X010046Y01701588D02*
X0100594Y01700392D01*
X01022176Y01881699D02*
X01023148Y01879352D01*
X01021489Y01880039D02*
X01022176Y01881699D01*
X01021489Y01880039D02*
X01023148Y01879352D01*
X010387Y01841805D02*
X01039672Y01839459D01*
X01038013Y01840146D02*
X010387Y01841805D01*
X01038013Y01840146D02*
X01039672Y01839459D01*
X01055225Y01801912D02*
X01056197Y01799566D01*
X01054537Y01800253D02*
X01055225Y01801912D01*
X01054537Y01800253D02*
X01056197Y01799566D01*
X0106076Y01757457D02*
X01061597Y01755059D01*
X0105998Y01755839D02*
X0106076Y01757457D01*
X0105998Y01755839D02*
X01061597Y01755059D01*
X01082746Y01766564D02*
X01083849Y01764276D01*
X01082153Y01764868D02*
X01082746Y01766564D01*
X01082153Y01764868D02*
X01083849Y01764276D01*
X01074996Y01716691D02*
X01075833Y01714293D01*
X01074216Y01715073D02*
X01074996Y01716691D01*
X01074216Y01715073D02*
X01075833Y01714293D01*
X01101505Y01727672D02*
X01102608Y01725384D01*
X01100913Y01725976D02*
X01101505Y01727672D01*
X01100913Y01725976D02*
X01102608Y01725384D01*
X01048226Y01899102D02*
X01050022Y01897306D01*
X01048226D02*
Y01899102D01*
Y01897306D02*
X01050022D01*
X01078759Y01868569D02*
X01080555Y01866773D01*
X01078759D02*
Y01868569D01*
Y01866773D02*
X01080555D01*
X01109292Y01838036D02*
X01111088Y0183624D01*
X01109292D02*
Y01838036D01*
Y0183624D02*
X01111088D01*
X01131418Y01799083D02*
X01133109Y01797188D01*
X01131316Y0179729D02*
X01131418Y01799083D01*
X01131316Y0179729D02*
X01133109Y01797188D01*
X01148245Y0181591D02*
X0115014Y01814219D01*
X01148245Y0181591D02*
X01148347Y01814117D01*
X0115014Y01814219*
X0116017Y01766868D02*
X01161862Y01764973D01*
X01160069Y01765075D02*
X0116017Y01766868D01*
X01160069Y01765075D02*
X01161862Y01764973D01*
X0118046Y01787158D02*
X01182355Y01785466D01*
X0118046Y01787158D02*
X01180562Y01785364D01*
X01182355Y01785466*
X01065632Y0192515D02*
X01067979Y01924178D01*
X01065632Y0192515D02*
X0106632Y0192349D01*
X01067979Y01924178*
X01105526Y01908626D02*
X01107872Y01907654D01*
X01105526Y01908626D02*
X01106213Y01906966D01*
X01107872Y01907654*
X01145419Y01892101D02*
X01147765Y01891129D01*
X01145419Y01892101D02*
X01146106Y01890442D01*
X01147765Y01891129*
X01180767Y0186458D02*
X01183055Y01863477D01*
X01180767Y0186458D02*
X0118136Y01862885D01*
X01183055Y01863477*
X01189874Y01886566D02*
X01192272Y01885729D01*
X01189874Y01886566D02*
X01190655Y01884948D01*
X01192272Y01885729*
X01219659Y01845821D02*
X01221947Y01844717D01*
X01219659Y01845821D02*
X01220252Y01844125D01*
X01221947Y01844717*
X0123064Y0187233D02*
X01233038Y01871493D01*
X0123064Y0187233D02*
X0123142Y01870712D01*
X01233038Y01871493*
X01071746Y01955876D02*
X01074286D01*
X01071746D02*
X01073016Y01954606D01*
X01074286Y01955876*
X01114926D02*
X01117466D01*
X01114926D02*
X01116196Y01954606D01*
X01117466Y01955876*
X01158106D02*
X01160646D01*
X01158106D02*
X01159376Y01954606D01*
X01160646Y01955876*
X01201296Y01943977D02*
X01203833Y01943833D01*
X01201296Y01943977D02*
X01202492Y01942637D01*
X01203833Y01943833*
X01201296Y01967774D02*
X01203833Y01967918D01*
X01201296Y01967774D02*
X01202636Y01966578D01*
X01203833Y01967918*
X01244406Y01941529D02*
X01246942Y01941385D01*
X01244406Y01941529D02*
X01245602Y01940189D01*
X01246942Y01941385*
X01244406Y01970222D02*
X01246942Y01970366D01*
X01244406Y01970222D02*
X01245746Y01969027D01*
X01246942Y01970366*
X02417554Y01955574D02*
X02415014D01*
X02416284Y01954304D02*
X02415014Y01955574D01*
X02417554D02*
X02416284Y01954304D01*
X02460734Y01955574D02*
X02458194D01*
X02459464Y01954304D02*
X02458194Y01955574D01*
X02460734D02*
X02459464Y01954304D01*
X0243122Y01988568D02*
X02429424Y01990364D01*
Y01988568*
X0243122D02*
X02429424D01*
X02464214Y02004774D02*
Y02002234D01*
Y02004774D02*
X02462944Y02003504D01*
X02464214Y02002234D02*
X02462944Y02003504D01*
X02499003Y01990364D02*
X02497207Y01988568D01*
X02499003Y01990364D02*
X02497207D01*
Y01988568*
X02513414Y01955574D02*
X02510874D01*
X02513414D02*
X02512144Y01956844D01*
X02510874Y01955574*
X02499003Y01920785D02*
X02497207Y01922581D01*
X02499003D02*
Y01920785D01*
Y01922581D02*
X02497207D01*
X02464214Y01908914D02*
Y01906374D01*
X02465484Y01907644D02*
X02464214Y01906374D01*
X02465484Y01907644D02*
X02464214Y01908914D01*
X0243122Y01922581D02*
X02429424Y01920785D01*
X0243122D02*
X02429424D01*
X0243122Y01922581D02*
Y01920785D01*
X02390032Y01924994D02*
X02387685Y01924022D01*
X02390032Y01924994D02*
X02388373Y01925681D01*
X02387685Y01924022*
X02350139Y0190847D02*
X02347792Y01907498D01*
X02350139Y0190847D02*
X02348479Y01909157D01*
X02347792Y01907498*
X02310246Y01891946D02*
X02307899Y01890973D01*
X02310246Y01891946D02*
X02308586Y01892633D01*
X02307899Y01890973*
X0226579Y0188641D02*
X02263392Y01885573D01*
X0226579Y0188641D02*
X02264172Y01887191D01*
X02263392Y01885573*
X02274897Y01864425D02*
X02272609Y01863321D01*
X02274897Y01864425D02*
X02273201Y01865017D01*
X02272609Y01863321*
X02225024Y01872174D02*
X02222627Y01871337D01*
X02225024Y01872174D02*
X02223407Y01872955D01*
X02222627Y01871337*
X02236005Y01845665D02*
X02233717Y01844562D01*
X02236005Y01845665D02*
X02234309Y01846257D01*
X02233717Y01844562*
X02407435Y01898944D02*
X02405639Y01897148D01*
X02407435Y01898944D02*
X02405639D01*
Y01897148*
X02376903Y01868412D02*
X02375107Y01866616D01*
X02376903Y01868412D02*
X02375107D01*
Y01866616*
X0234637Y01837879D02*
X02344574Y01836083D01*
X0234637Y01837879D02*
X02344574D01*
Y01836083*
X02307416Y01815753D02*
X02305521Y01814061D01*
X02307416Y01815753D02*
X02305623Y01815854D01*
X02305521Y01814061*
X02324244Y01798925D02*
X02322552Y0179703D01*
X02324244Y01798925D02*
X0232245Y01798823D01*
X02322552Y0179703D02*
X0232245Y01798823D01*
X02275201Y01787D02*
X02273306Y01785308D01*
X02275201Y01787D02*
X02273408Y01787102D01*
X02273306Y01785308*
X02295491Y01766711D02*
X02293799Y01764816D01*
X02295491Y01766711D02*
X02293698Y01766609D01*
X02293799Y01764816D02*
X02293698Y01766609D01*
X02433483Y01881538D02*
X02432511Y01879191D01*
X02433483Y01881538D02*
X02431824Y0188085D01*
X02432511Y01879191D02*
X02431824Y0188085D01*
X02416959Y01841645D02*
X02415987Y01839298D01*
X02416959Y01841645D02*
X02415299Y01840957D01*
X02415987Y01839298D02*
X02415299Y01840957D01*
X02400434Y01801752D02*
X02399462Y01799405D01*
X02400434Y01801752D02*
X02398776Y01801064D01*
X02399462Y01799405D02*
X02398776Y01801064D01*
X02372913Y01766403D02*
X0237181Y01764115D01*
X02372913Y01766403D02*
X02371218Y01765811D01*
X0237181Y01764115D02*
X02371218Y01765811D01*
X02394899Y01757296D02*
X02394062Y01754898D01*
X02394899Y01757296D02*
X02393282Y01756516D01*
X02394062Y01754898D02*
X02393282Y01756516D01*
X02354154Y01727511D02*
X02353051Y01725223D01*
X02354154Y01727511D02*
X02352459Y01726919D01*
X02353051Y01725223D02*
X02352459Y01726919D01*
X02380663Y0171653D02*
X02379826Y01714132D01*
X02380663Y0171653D02*
X02379046Y0171575D01*
X02379826Y01714132D02*
X02379046Y0171575D01*
X02464209Y01875424D02*
Y01872884D01*
Y01875424D02*
X02462939Y01874154D01*
X02464209Y01872884D02*
X02462939Y01874154D01*
X02464209Y01832244D02*
Y01829704D01*
Y01832244D02*
X02462939Y01830974D01*
X02464209Y01829704D02*
X02462939Y01830974D01*
X02464209Y01789064D02*
Y01786524D01*
Y01789064D02*
X02462939Y01787794D01*
X02464209Y01786524D02*
X02462939Y01787794D01*
X0245231Y01745874D02*
X02452166Y01743339D01*
X0245231Y01745874D02*
X0245097Y01744678D01*
X02452166Y01743339D02*
X0245097Y01744678D01*
X02476252Y01743339D02*
X02476108Y01745874D01*
X02474912Y01744534*
X02476252Y01743339D02*
X02474912Y01744534D01*
X02449862Y01702764D02*
X02449718Y01700228D01*
X02449862Y01702764D02*
X02448522Y01701568D01*
X02449718Y01700228D02*
X02448522Y01701568D01*
X024787Y01700228D02*
X02478556Y01702764D01*
X0247736Y01701424*
X024787Y01700228D02*
X0247736Y01701424D01*
X02495908Y01879188D02*
X02494936Y01881534D01*
X02494248Y01879875*
X02495908Y01879188D02*
X02494248Y01879875D01*
X02512432Y01839294D02*
X0251146Y01841641D01*
X02510773Y01839982*
X02512432Y01839294D02*
X02510773Y01839982D01*
X02528956Y01799401D02*
X02527984Y01801749D01*
X02527297Y01800089*
X02528956Y01799401D02*
X02527297Y01800089D01*
X02534357Y01754894D02*
X02533519Y01757292D01*
X02532739Y01755675*
X02534357Y01754894D02*
X02532739Y01755675D01*
X02556609Y01764111D02*
X02555505Y01766399D01*
X02554913Y01764704*
X02556609Y01764111D02*
X02554913Y01764704D01*
X02548593Y01714129D02*
X02547755Y01716527D01*
X02546975Y01714909*
X02548593Y01714129D02*
X02546975Y01714909D01*
X02575368Y01725219D02*
X02574264Y01727507D01*
X02573672Y01725812*
X02575368Y01725219D02*
X02573672Y01725812D01*
X02522781Y01897142D02*
X02520985Y01898938D01*
Y01897142*
X02522781D02*
X02520985D01*
X02553314Y01866609D02*
X02551518Y01868405D01*
Y01866609*
X02553314D02*
X02551518D01*
X02583847Y01836076D02*
X02582051Y01837872D01*
Y01836076*
X02583847D02*
X02582051D01*
X02605869Y01797024D02*
X02604177Y01798919D01*
X02604076Y01797125*
X02605869Y01797024D02*
X02604076Y01797125D01*
X02622899Y01814054D02*
X02621005Y01815746D01*
X02621106Y01813953D02*
X02621005Y01815746D01*
X02622899Y01814054D02*
X02621106Y01813953D01*
X02634621Y01764809D02*
X0263293Y01766704D01*
X02632828Y01764911*
X02634621Y01764809D02*
X02632828Y01764911D01*
X02655114Y01785302D02*
X02653219Y01786993D01*
X02653321Y017852D02*
X02653219Y01786993D01*
X02655114Y01785302D02*
X02653321Y017852D01*
X02540739Y01924013D02*
X02538392Y01924985D01*
X02539079Y01923326D02*
X02538392Y01924985D01*
X02540739Y01924013D02*
X02539079Y01923326D01*
X02580632Y01907489D02*
X02578285Y01908461D01*
X02578972Y01906802D02*
X02578285Y01908461D01*
X02580632Y01907489D02*
X02578972Y01906802D01*
X02620525Y01890965D02*
X02618178Y01891937D01*
X02618867Y01890277D02*
X02618178Y01891937D01*
X02620525Y01890965D02*
X02618867Y01890277D01*
X02655815Y01863312D02*
X02653527Y01864416D01*
X02654119Y0186272D02*
X02653527Y01864416D01*
X02655815Y01863312D02*
X02654119Y0186272D01*
X02665032Y01885564D02*
X02662634Y01886402D01*
X02663414Y01884784D02*
X02662634Y01886402D01*
X02665032Y01885564D02*
X02663414Y01884784D01*
X02694707Y01844553D02*
X02692419Y01845656D01*
X02693011Y01843961D02*
X02692419Y01845656D01*
X02694707Y01844553D02*
X02693011Y01843961D01*
X02705798Y01871328D02*
X027034Y01872166D01*
X0270418Y01870548D02*
X027034Y01872166D01*
X02705798Y01871328D02*
X0270418Y01870548D01*
X02547046Y01955711D02*
X02544506D01*
X02545776Y01954441D02*
X02544506Y01955711D01*
X02547046D02*
X02545776Y01954441D01*
X02590226Y01955711D02*
X02587686D01*
X02588956Y01954441D02*
X02587686Y01955711D01*
X02590226D02*
X02588956Y01954441D01*
X02633406Y01955711D02*
X02630866D01*
X02632136Y01954441D02*
X02630866Y01955711D01*
X02633406D02*
X02632136Y01954441D01*
X02676591Y01943669D02*
X02674055Y01943813D01*
X02675251Y01942473D02*
X02674055Y01943813D01*
X02676591Y01943669D02*
X02675251Y01942473D01*
X02676591Y01967754D02*
X02674055Y01967611D01*
X02675395Y01966414D02*
X02674055Y01967611D01*
X02676591Y01967754D02*
X02675395Y01966414D01*
X02719702Y01941221D02*
X02717166Y01941365D01*
X02718362Y01940025D02*
X02717166Y01941365D01*
X02719702Y01941221D02*
X02718362Y01940025D01*
X02719702Y01970202D02*
X02717166Y01970058D01*
X02718506Y01968862D02*
X02717166Y01970058D01*
X02719702Y01970202D02*
X02718506Y01968862D01*
X02540742Y0198741D02*
X02538396Y01986438D01*
X02540055Y01985751D02*
X02538396Y01986438D01*
X02540742Y0198741D02*
X02540055Y01985751D01*
X02580635Y02003934D02*
X02578289Y02002962D01*
X02579948Y02002275D02*
X02578289Y02002962D01*
X02580635Y02003934D02*
X02579948Y02002275D01*
X02620528Y02020459D02*
X02618182Y02019487D01*
X02619841Y02018799D02*
X02618182Y02019487D01*
X02620528Y02020459D02*
X02619841Y02018799D01*
X02665035Y02025859D02*
X02662638Y02025022D01*
X02664255Y02024241D02*
X02662638Y02025022D01*
X02665035Y02025859D02*
X02664255Y02024241D01*
X02655818Y02048111D02*
X0265353Y02047008D01*
X02655226Y02046415D02*
X0265353Y02047008D01*
X02655818Y02048111D02*
X02655226Y02046415D01*
X02705801Y02040095D02*
X02703403Y02039258D01*
X02705021Y02038477D02*
X02703403Y02039258D01*
X02705801Y02040095D02*
X02705021Y02038477D01*
X02694711Y0206687D02*
X02692423Y02065767D01*
X02694118Y02065175D02*
X02692423Y02065767D01*
X02694711Y0206687D02*
X02694118Y02065175D01*
X02522842Y02014273D02*
X02521046Y02012477D01*
X02522842D02*
X02521046D01*
X02522842Y02014273D02*
Y02012477D01*
X02553375Y02044806D02*
X02551579Y0204301D01*
X02553375D02*
X02551579D01*
X02553375Y02044806D02*
Y0204301D01*
X02583854Y02075349D02*
X02582058Y02073553D01*
X02583854D02*
X02582058D01*
X02583854Y02075349D02*
Y02073553D01*
X02622906Y02097371D02*
X02621011Y0209568D01*
X02622804Y02095578D02*
X02621011Y0209568D01*
X02622906Y02097371D02*
X02622804Y02095578D01*
X02605875Y02114402D02*
X02604184Y02112507D01*
X02605977Y02112609D02*
X02604184Y02112507D01*
X02605977Y02112609D02*
X02605875Y02114402D01*
X02655121Y02126124D02*
X02653226Y02124432D01*
X02655019Y0212433D02*
X02653226Y02124432D01*
X02655121Y02126124D02*
X02655019Y0212433D01*
X02634628Y02146616D02*
X02632937Y02144721D01*
X0263473Y02144823D02*
X02632937Y02144721D01*
X0263473Y02144823D02*
X02634628Y02146616D01*
X02495971Y0203223D02*
X02494999Y02029883D01*
X02496658Y02030571D02*
X02494999Y02029883D01*
X02496658Y02030571D02*
X02495971Y0203223D01*
X02512495Y02072123D02*
X02511523Y02069777D01*
X02513182Y02070464D02*
X02511523Y02069777D01*
X02513182Y02070464D02*
X02512495Y02072123D01*
X02528965Y02112027D02*
X02527993Y02109681D01*
X02529652Y02110368D02*
X02527993Y02109681D01*
X02529652Y02110368D02*
X02528965Y02112027D01*
X02556617Y02147317D02*
X02555514Y0214503D01*
X0255721Y02145621D02*
X02555514Y0214503D01*
X0255721Y02145621D02*
X02556617Y02147317D01*
X02534366Y02156534D02*
X02533528Y02154136D01*
X02535146Y02154916D02*
X02533528Y02154136D01*
X02535146Y02154916D02*
X02534366Y02156534D01*
X02575377Y02186209D02*
X02574273Y02183921D01*
X02575969Y02184513D02*
X02574273Y02183921D01*
X02575969Y02184513D02*
X02575377Y02186209D01*
X02548602Y021973D02*
X02547764Y02194902D01*
X02549382Y02195682D02*
X02547764Y02194902D01*
X02549382Y02195682D02*
X02548602Y021973D01*
X02464219Y02038548D02*
Y02036008D01*
X02465489Y02037278D02*
X02464219Y02036008D01*
X02465489Y02037278D02*
X02464219Y02038548D01*
X02464222Y02081726D02*
Y02079186D01*
X02465492Y02080456D02*
X02464222Y02079186D01*
X02465492Y02080456D02*
X02464222Y02081726D01*
X02464219Y02124908D02*
Y02122368D01*
X02465489Y02123638D02*
X02464219Y02122368D01*
X02465489Y02123638D02*
X02464219Y02124908D01*
X02476261Y02168094D02*
X02476117Y02165558D01*
X02477457Y02166754D02*
X02476117Y02165558D01*
X02477457Y02166754D02*
X02476261Y02168094D01*
X0245232Y02165558D02*
X02452176Y02168094D01*
X02453516Y02166898D02*
X0245232Y02165558D01*
X02453516Y02166898D02*
X02452176Y02168094D01*
X02478709Y02211204D02*
X02478565Y02208668D01*
X02479905Y02209864D02*
X02478565Y02208668D01*
X02479905Y02209864D02*
X02478709Y02211204D01*
X02449872Y02208668D02*
X02449728Y02211204D01*
X02451068Y02210008D02*
X02449872Y02208668D01*
X02451068Y02210008D02*
X02449728Y02211204D01*
X02433492Y02029898D02*
X0243252Y02032245D01*
X02434179Y02031557D02*
X02433492Y02029898D01*
X02434179Y02031557D02*
X0243252Y02032245D01*
X02416968Y02069791D02*
X02415996Y02072138D01*
X02417655Y0207145D02*
X02416968Y02069791D01*
X02417655Y0207145D02*
X02415996Y02072138D01*
X02400443Y02109684D02*
X02399471Y02112031D01*
X02401131Y02111344D02*
X02400443Y02109684D01*
X02401131Y02111344D02*
X02399471Y02112031D01*
X02394908Y0215414D02*
X02394071Y02156538D01*
X02395688Y02155758D02*
X02394908Y0215414D01*
X02395688Y02155758D02*
X02394071Y02156538D01*
X02372922Y02145033D02*
X02371819Y02147321D01*
X02373514Y02146728D02*
X02372922Y02145033D01*
X02373514Y02146728D02*
X02371819Y02147321D01*
X02380672Y02194905D02*
X02379835Y02197304D01*
X02381453Y02196523D02*
X02380672Y02194905D01*
X02381453Y02196523D02*
X02379835Y02197304D01*
X02354163Y02183925D02*
X02353059Y02186213D01*
X02354755Y02185621D02*
X02354163Y02183925D01*
X02354755Y02185621D02*
X02353059Y02186213D01*
X02407442Y02012494D02*
X02405646Y02014291D01*
X02407442D02*
Y02012494D01*
Y02014291D02*
X02405646D01*
X02376909Y02043027D02*
X02375113Y02044823D01*
X02376909D02*
Y02043027D01*
Y02044823D02*
X02375113D01*
X02346376Y0207356D02*
X0234458Y02075356D01*
X02346376D02*
Y0207356D01*
Y02075356D02*
X0234458D01*
X0232425Y02112513D02*
X02322559Y02114408D01*
X02324352Y02114307D02*
X0232425Y02112513D01*
X02324352Y02114307D02*
X02322559Y02114408D01*
X02307423Y02095686D02*
X02305528Y02097378D01*
X02307423Y02095686D02*
X02307321Y02097479D01*
X02305528Y02097378*
X02295498Y02144728D02*
X02293806Y02146623D01*
X02295599Y02146522D02*
X02295498Y02144728D01*
X02295599Y02146522D02*
X02293806Y02146623D01*
X02275208Y02124439D02*
X02273313Y0212613D01*
X02275208Y02124439D02*
X02275107Y02126232D01*
X02273313Y0212613*
X02390035Y01986447D02*
X02387689Y01987419D01*
X02390035Y01986447D02*
X02389348Y01988106D01*
X02387689Y01987419*
X02350142Y02002971D02*
X02347796Y02003943D01*
X02350142Y02002971D02*
X02349455Y02004631D01*
X02347796Y02003943*
X02310249Y02019495D02*
X02307903Y02020467D01*
X02310249Y02019495D02*
X02309562Y02021155D01*
X02307903Y02020467*
X02274901Y02047016D02*
X02272613Y0204812D01*
X02274901Y02047016D02*
X02274308Y02048712D01*
X02272613Y0204812*
X02265794Y0202503D02*
X02263396Y02025868D01*
X02265794Y0202503D02*
X02265013Y02026648D01*
X02263396Y02025868*
X02236009Y02065776D02*
X02233721Y02066879D01*
X02236009Y02065776D02*
X02235416Y02067471D01*
X02233721Y02066879*
X02225028Y02039266D02*
X0222263Y02040104D01*
X02225028Y02039266D02*
X02224248Y02040884D01*
X0222263Y02040104*
X02383922Y01955721D02*
X02381382D01*
X02383922D02*
X02382652Y01956991D01*
X02381382Y01955721*
X02340742D02*
X02338202D01*
X02340742D02*
X02339472Y01956991D01*
X02338202Y01955721*
X02297562D02*
X02295022D01*
X02297562D02*
X02296292Y01956991D01*
X02295022Y01955721*
X02254372Y0196762D02*
X02251837Y01967763D01*
X02254372Y0196762D02*
X02253176Y0196896D01*
X02251837Y01967763*
X02254372Y01943822D02*
X02251837Y01943678D01*
X02254372Y01943822D02*
X02253032Y01945018D01*
X02251837Y01943678*
X02211262Y01970068D02*
X02208726Y01970212D01*
X02211262Y01970068D02*
X02210066Y01971408D01*
X02208726Y01970212*
X02211262Y01941374D02*
X02208726Y0194123D01*
X02211262Y01941374D02*
X02209922Y0194257D01*
X02208726Y0194123*
M02*