%FSTAX44Y44*%
%MOMM*%
%SFA1B1*%

%IPPOS*%
%ADD22C,0.253999*%
%ADD84C,0.100000*%
%LNpcb1-1*%
%LPD*%
G54D22*
X01471232Y01890181D02*
X0147447Y0187452D01*
X01402703Y01828859D02*
Y01813624D01*
X01410321*
X0141286Y01816163*
Y01818703*
X01410321Y01821242*
X01402703*
X01410321*
X0141286Y01823781*
Y0182632*
X01410321Y01828859*
X01402703*
X01425556D02*
X01420478D01*
X01417938Y0182632*
Y01816163*
X01420478Y01813624*
X01425556*
X01428095Y01816163*
Y0182632*
X01425556Y01828859*
X01433173D02*
X0144333D01*
X01438252*
Y01813624*
X01448408Y01828859D02*
X01458565D01*
X01453487*
Y01813624*
X01471261Y01828859D02*
X01466183D01*
X01463644Y0182632*
Y01816163*
X01466183Y01813624*
X01471261*
X014738Y01816163*
Y0182632*
X01471261Y01828859*
X01478879Y01813624D02*
Y01828859D01*
X01483957Y01823781*
X01489035Y01828859*
Y01813624*
X01509349Y0182632D02*
X01511888Y01828859D01*
X01516966*
X01519506Y0182632*
Y01823781*
X01516966Y01821242*
X01514427*
X01516966*
X01519506Y01818703*
Y01816163*
X01516966Y01813624*
X01511888*
X01509349Y01816163*
X01524584Y01813624D02*
Y01828859D01*
X01529662Y01823781*
X01534741Y01828859*
Y01813624*
X01555054Y01828859D02*
X01565211D01*
X01560132*
Y01813624*
X01570289D02*
Y01823781D01*
X01575367Y01828859*
X01580446Y01823781*
Y01813624*
Y01821242*
X01570289*
X01585524Y01813624D02*
Y01828859D01*
X01593142*
X01595681Y0182632*
Y01821242*
X01593142Y01818703*
X01585524*
X01610916Y01828859D02*
X01600759D01*
Y01813624*
X01610916*
X01600759Y01821242D02*
X01605838D01*
X01258252Y02114628D02*
Y02099393D01*
X0126587*
X01268409Y02101932*
Y02104471*
X0126587Y02107011*
X01258252*
X0126587*
X01268409Y0210955*
Y02112089*
X0126587Y02114628*
X01258252*
X01281105D02*
X01276027D01*
X01273487Y02112089*
Y02101932*
X01276027Y02099393*
X01281105*
X01283644Y02101932*
Y02112089*
X01281105Y02114628*
X01288722D02*
X01298879D01*
X01293801*
Y02099393*
X01303957Y02114628D02*
X01314114D01*
X01309036*
Y02099393*
X0132681Y02114628D02*
X01321732D01*
X01319193Y02112089*
Y02101932*
X01321732Y02099393*
X0132681*
X01329349Y02101932*
Y02112089*
X0132681Y02114628*
X01334428Y02099393D02*
Y02114628D01*
X01339506Y0210955*
X01344584Y02114628*
Y02099393*
X01364898Y02112089D02*
X01367437Y02114628D01*
X01372515*
X01375055Y02112089*
Y0210955*
X01372515Y02107011*
X01369976*
X01372515*
X01375055Y02104471*
Y02101932*
X01372515Y02099393*
X01367437*
X01364898Y02101932*
X01380133Y02099393D02*
Y02114628D01*
X01385211Y0210955*
X0139029Y02114628*
Y02099393*
X01410603Y02114628D02*
X0142076D01*
X01415681*
Y02099393*
X01425838D02*
Y0210955D01*
X01430916Y02114628*
X01435995Y0210955*
Y02099393*
Y02107011*
X01425838*
X01441073Y02099393D02*
Y02114628D01*
X01448691*
X0145123Y02112089*
Y02107011*
X01448691Y02104471*
X01441073*
X01466465Y02114628D02*
X01456309D01*
Y02099393*
X01466465*
X01456309Y02107011D02*
X01461386D01*
X02197416Y01796969D02*
Y01812204D01*
X02189798*
X02187259Y01809665*
Y01807125*
X02189798Y01804586*
X02197416*
X02189798*
X02187259Y01802047*
Y01799508*
X02189798Y01796969*
X02197416*
X02174563D02*
X02179641D01*
X02182181Y01799508*
Y01809665*
X02179641Y01812204*
X02174563*
X02172024Y01809665*
Y01799508*
X02174563Y01796969*
X02166946D02*
X02156789D01*
X02161867*
Y01812204*
X0215171Y01796969D02*
X02141554D01*
X02146632*
Y01812204*
X02128858Y01796969D02*
X02133936D01*
X02136475Y01799508*
Y01809665*
X02133936Y01812204*
X02128858*
X02126319Y01809665*
Y01799508*
X02128858Y01796969*
X0212124Y01812204D02*
Y01796969D01*
X02116162Y01802047*
X02111084Y01796969*
Y01812204*
X0209077Y01799508D02*
X02088231Y01796969D01*
X02083153*
X02080613Y01799508*
Y01802047*
X02083153Y01804586*
X02085692*
X02083153*
X02080613Y01807125*
Y01809665*
X02083153Y01812204*
X02088231*
X0209077Y01809665*
X02075535Y01812204D02*
Y01796969D01*
X02070457Y01802047*
X02065378Y01796969*
Y01812204*
X02045065Y01796969D02*
X02034908D01*
X02039987*
Y01812204*
X0202983D02*
Y01802047D01*
X02024752Y01796969*
X02019673Y01802047*
Y01812204*
Y01804586*
X0202983*
X02014595Y01812204D02*
Y01796969D01*
X02006977*
X02004438Y01799508*
Y01804586*
X02006977Y01807125*
X02014595*
X01989203Y01796969D02*
X01999361D01*
Y01812204*
X01989203*
X01999361Y01804586D02*
X01994281D01*
G54D84*
X0140154Y01871686D02*
D01*
X01400644Y01872594*
X01399687Y01873438*
X01398673Y01874212*
X01397608Y01874914*
X01396496Y0187554*
X01395343Y01876087*
X01394155Y01876552*
X01392937Y01876933*
X01391696Y01877228*
X01390437Y01877436*
X01389167Y01877556*
X01387892Y01877586*
X01386617Y01877528*
X01385497Y01877402*
X01394075Y01842037D02*
D01*
X01395265Y01842497*
X01396421Y01843038*
X01397535Y01843659*
X01398604Y01844356*
X01399622Y01845126*
X01400583Y01845965*
X01401483Y01846869*
X01402318Y01847833*
X01403084Y01848854*
X01403777Y01849925*
X01404393Y01851042*
X0140493Y018522*
X01405385Y01853392*
X01405755Y01854612*
X0140604Y01855856*
X01406237Y01857116*
X01406237Y01857121*
X01360373Y0186925D02*
D01*
X01359202Y0186898*
X01358052Y01868628*
X01356929Y01868197*
X0135584Y01867689*
X01354788Y01867106*
X01353779Y01866451*
X01352819Y01865727*
X01351911Y01864938*
X01351061Y01864088*
X01350272Y0186318*
X01349549Y0186222*
X01348894Y01861212*
X01348311Y0186016*
X01347803Y0185907*
X01347372Y01857947*
X0134702Y01856797*
X0134675Y01855626*
X01346562Y01854438*
X01346457Y0185324*
X01346436Y01852038*
X01346499Y01850837*
X01346646Y01849644*
X01346875Y01848463*
X01347187Y01847302*
X01347578Y01846165*
X01348048Y01845058*
X01348594Y01843986*
X01349213Y01842956*
X01349903Y01841971*
X0135066Y01841036*
X0135148Y01840157*
X0135236Y01839337*
X01353294Y0183858*
X01354279Y01837891*
X0135531Y01837271*
X01356381Y01836726*
X01357488Y01836256*
X01358625Y01835864*
X01359787Y01835553*
X01360967Y01835324*
X01362161Y01835177*
X01363362Y01835114*
X01364564Y01835135*
X01365762Y0183524*
X01366913Y0183542*
X01366908Y01835448D02*
D01*
X01380919Y01838356*
X01394075Y01842037*
X01406237Y01857121D02*
X0147447Y0187452D01*
X0140154Y01871686D02*
X01471232Y01890181D01*
X01360373Y0186925D02*
X01385497Y01877402D01*
X01125913Y02199201D02*
D01*
X01108613Y02207988*
X01090741Y02215547*
X01072386Y0222184*
X01068429Y02223011*
X01208793Y02129224D02*
D01*
X01196172Y02143963*
X01182553Y02157785*
X01168004Y02170624*
X01164796Y0217322*
X01258584Y02032857D02*
D01*
X01252564Y02051304*
X01245272Y02069285*
X01236743Y02086715*
X01234774Y02090341*
X01269032Y01940566D02*
D01*
X01269424Y01959967*
X01268463Y01979347*
X01267708Y01986991*
X01076261Y01976183D02*
D01*
X01076033Y01976129*
X01075808Y0197606*
X01075589Y01975975*
X01075377Y01975874*
X01075172Y0197576*
X01074976Y01975631*
X01074789Y01975489*
X01074612Y01975334*
X01074447Y01975167*
X01074293Y01974989*
X01074153Y019748*
X01074026Y01974603*
X01073913Y01974397*
X01073814Y01974184*
X01073731Y01973964*
X01073663Y01973739*
X01073612Y0197351*
X01073576Y01973277*
X01073556Y01973044*
X01073553Y01972809*
X01073567Y01972574*
X01073597Y01972341*
X01073642Y01972111*
X01073704Y01971884*
X01073782Y01971662*
X01073874Y01971446*
X01073982Y01971237*
X01074104Y01971037*
X01074239Y01970845*
X01074388Y01970663*
X01074549Y01970492*
X01074722Y01970332*
X01074905Y01970185*
X01075098Y01970051*
X010753Y01969931*
X0107551Y01969826*
X01075726Y01969735*
X01075949Y01969659*
X01076176Y019696*
X01076407Y01969556*
X0107664Y01969528*
X01076875Y01969517*
X0107711Y01969522*
X01077344Y01969544*
X01077575Y01969581*
X01005155Y02041999D02*
D01*
X01005118Y02041768*
X01005096Y02041534*
X01005091Y02041299*
X01005102Y02041064*
X0100513Y02040831*
X01005174Y020406*
X01005234Y02040373*
X01005309Y0204015*
X010054Y02039934*
X01005506Y02039724*
X01005626Y02039522*
X0100576Y02039329*
X01005907Y02039146*
X01006067Y02038974*
X01006238Y02038813*
X0100642Y02038664*
X01006612Y02038529*
X01006812Y02038407*
X01007021Y02038299*
X01007237Y02038206*
X01007459Y02038129*
X01007686Y02038067*
X01007916Y02038022*
X01008149Y02037992*
X01008384Y02037979*
X01008619Y02037982*
X01008852Y02038001*
X01009085Y02038037*
X01009314Y02038089*
X01009539Y02038157*
X01009758Y0203824*
X01009972Y02038338*
X01010178Y02038451*
X01010375Y02038578*
X01010563Y02038719*
X01010741Y02038872*
X01010908Y02039038*
X01011063Y02039214*
X01011205Y02039402*
X01011334Y02039598*
X01011449Y02039803*
X01011549Y02040015*
X01011634Y02040234*
X01011704Y02040459*
X01011757Y02040687*
X01011758*
X01037068Y02030202D02*
D01*
X01036945Y02030003*
X01036835Y02029795*
X01036741Y0202958*
X01036661Y02029358*
X01036598Y02029132*
X0103655Y02028902*
X01036518Y0202867*
X01036503Y02028435*
X01036504Y020282*
X01036521Y02027966*
X01036555Y02027733*
X01036605Y02027504*
X01036671Y02027278*
X01036752Y02027058*
X01036848Y02026843*
X0103696Y02026636*
X01037085Y02026438*
X01037224Y02026248*
X01037376Y02026069*
X0103754Y02025901*
X01037715Y02025744*
X01037901Y020256*
X01038096Y0202547*
X010383Y02025353*
X01038512Y02025251*
X0103873Y02025164*
X01038954Y02025092*
X01039182Y02025037*
X01039414Y02024997*
X01039647Y02024973*
X01039882Y02024966*
X01040117Y02024975*
X0104035Y02025001*
X01040582Y02025043*
X01040809Y02025101*
X01041033Y02025174*
X0104125Y02025263*
X01041461Y02025367*
X01041664Y02025486*
X01041858Y02025618*
X01042043Y02025763*
X01042216Y02025921*
X01042379Y02026091*
X01042529Y02026272*
X01042666Y02026462*
Y02026463*
X01062037Y02007091D02*
D01*
X01061847Y02006954*
X01061666Y02006804*
X01061496Y02006641*
X01061338Y02006467*
X01061193Y02006283*
X01061061Y02006089*
X01060942Y02005886*
X01060838Y02005675*
X01060749Y02005458*
X01060676Y02005235*
X01060618Y02005007*
X01060576Y02004776*
X0106055Y02004542*
X01060541Y02004307*
X01060548Y02004072*
X01060572Y02003839*
X01060612Y02003607*
X01060667Y02003379*
X01060739Y02003155*
X01060826Y02002937*
X01060928Y02002725*
X01061045Y02002521*
X01061175Y02002326*
X01061319Y0200214*
X01061476Y02001965*
X01061644Y02001801*
X01061823Y02001649*
X01062013Y0200151*
X01062211Y02001385*
X01062418Y02001273*
X01062633Y02001177*
X01062853Y02001096*
X01063079Y0200103*
X01063308Y0200098*
X01063541Y02000946*
X01063775Y02000929*
X0106401Y02000928*
X01064245Y02000943*
X01064477Y02000975*
X01064707Y02001023*
X01064933Y02001086*
X01065155Y02001166*
X0106537Y0200126*
X01065578Y0200137*
X01065777Y02001493*
X01065778Y02001494*
X01062037Y02007091D02*
D01*
X01061847Y02006954*
X01061666Y02006804*
X01061496Y02006641*
X01061338Y02006467*
X01061193Y02006283*
X01061061Y02006089*
X01060942Y02005886*
X01060838Y02005675*
X01060749Y02005458*
X01060676Y02005235*
X01060618Y02005007*
X01060576Y02004776*
X0106055Y02004542*
X01060541Y02004307*
X01060548Y02004072*
X01060572Y02003839*
X01060612Y02003607*
X01060667Y02003379*
X01060739Y02003155*
X01060826Y02002937*
X01060928Y02002725*
X01061045Y02002521*
X01061175Y02002326*
X01061319Y0200214*
X01061476Y02001965*
X01061644Y02001801*
X01061823Y02001649*
X01062013Y0200151*
X01062211Y02001385*
X01062418Y02001273*
X01062633Y02001177*
X01062853Y02001096*
X01063079Y0200103*
X01063308Y0200098*
X01063541Y02000946*
X01063775Y02000929*
X0106401Y02000928*
X01064245Y02000943*
X01064477Y02000975*
X01064707Y02001023*
X01064933Y02001086*
X01065155Y02001166*
X0106537Y0200126*
X01065578Y0200137*
X01065777Y02001493*
X01065778Y02001494*
X01042428Y0198753D02*
D01*
X01040096Y01991009*
X01037528Y01994317*
X01034734Y01997437*
X0103173Y02000355*
X0102853Y02003056*
X01025149Y02005527*
X01023102Y02006855*
X01058234Y01969422D02*
D01*
X01057127Y01974038*
X01055701Y01978565*
X01053963Y01982981*
X0105192Y01987266*
X01049584Y01991397*
X01046965Y01995356*
X01044077Y01999122*
X01040932Y02002677*
X01037548Y02006005*
X0103394Y02009088*
X01030125Y02011912*
X01026122Y02014463*
X01021951Y02016729*
X01017633Y02018698*
X01013188Y02020361*
X01008637Y02021711*
X01005085Y02022529*
X01049809Y01969565D02*
D01*
X0104982Y01969271*
X0104985Y01968979*
X01049901Y01968689*
X01049973Y01968404*
X01050063Y01968124*
X01050174Y01967851*
X01050303Y01967587*
X0105045Y01967332*
X01050614Y01967089*
X01050795Y01966857*
X01050992Y01966638*
X01051204Y01966434*
X01051429Y01966245*
X01051667Y01966072*
X01051916Y01965916*
X01052176Y01965778*
X01052445Y01965658*
X01052721Y01965558*
X01053004Y01965477*
X01053292Y01965415*
X01053583Y01965375*
X01053876Y01965354*
X0105417*
X01054464Y01965375*
X01054755Y01965415*
X01055043Y01965477*
X01055326Y01965558*
X01055602Y01965658*
X01055871Y01965778*
X0105613Y01965916*
X0105638Y01966072*
X01056618Y01966245*
X01056843Y01966434*
X01057055Y01966638*
X01057251Y01966857*
X01057432Y01967089*
X01057597Y01967332*
X01057744Y01967587*
X01057873Y01967851*
X01057983Y01968124*
X01058074Y01968404*
X01058145Y01968689*
X01058196Y01968979*
X01058227Y01969271*
X01058234Y01969422*
X01008827Y01965808D02*
D01*
X01009025Y0196552*
X01009241Y01965247*
X01009477Y01964989*
X0100973Y01964748*
X01009998Y01964526*
X01010282Y01964323*
X0101058Y0196414*
X01010889Y01963978*
X01011209Y01963839*
X01011538Y01963722*
X01011874Y01963628*
X01012216Y01963557*
X01012562Y01963511*
X0101291Y0196349*
X01013259Y01963492*
X01013607Y01963519*
X01013953Y0196357*
X01014294Y01963645*
X01014628Y01963743*
X01014956Y01963865*
X01015273Y01964009*
X0101558Y01964175*
X01015875Y01964363*
X01016156Y0196457*
X01016422Y01964796*
X01016671Y0196504*
X01016903Y01965301*
X01017116Y01965578*
X01017309Y01965869*
X01017481Y01966172*
X01017632Y01966487*
X0101776Y01966811*
X01017866Y01967144*
X01017948Y01967483*
X01018006Y01967827*
X0101804Y01968175*
X0101805Y01968524*
X01018035Y01968873*
X01017996Y01969219*
X01017933Y01969563*
X01017847Y01969901*
X01017736Y01970232*
X01017603Y01970555*
X01017448Y01970867*
X01017271Y01971168*
X0101711Y01971406*
X01017316Y01940672D02*
D01*
X01017488Y01940977*
X01017637Y01941292*
X01017765Y01941617*
X01017869Y0194195*
X0101795Y01942289*
X01018007Y01942634*
X0101804Y01942981*
X01018048Y0194333*
X01018032Y01943679*
X01017992Y01944026*
X01017928Y01944369*
X0101784Y01944707*
X01017728Y01945038*
X01017594Y0194536*
X01017438Y01945672*
X0101726Y01945972*
X01017062Y0194626*
X01016844Y01946533*
X01016608Y01946789*
X01016354Y01947029*
X01016084Y01947251*
X010158Y01947453*
X01015502Y01947635*
X01015192Y01947795*
X01014871Y01947934*
X01014542Y0194805*
X01014206Y01948142*
X01013864Y01948211*
X01013517Y01948256*
X01013169Y01948277*
X0101282Y01948273*
X01012472Y01948245*
X01012127Y01948193*
X01011786Y01948117*
X01011452Y01948017*
X01011125Y01947894*
X01010807Y01947749*
X01010501Y01947582*
X01010207Y01947394*
X01009927Y01947185*
X01009662Y01946958*
X01009413Y01946713*
X01009182Y01946451*
X01008971Y01946174*
X01008778Y01945882*
X01008679Y01945713*
X01058106Y01942252D02*
D01*
X01058096Y01942546*
X01058065Y01942839*
X01058014Y01943128*
X01057943Y01943414*
X01057852Y01943694*
X01057742Y01943966*
X01057613Y01944231*
X01057466Y01944486*
X01057302Y01944729*
X01057121Y01944961*
X01056924Y0194518*
X01056712Y01945384*
X01056487Y01945573*
X01056249Y01945746*
X01055999Y01945902*
X0105574Y0194604*
X01055471Y01946159*
X01055194Y0194626*
X01054912Y01946341*
X01054624Y01946402*
X01054333Y01946443*
X0105404Y01946464*
X01053745*
X01053452Y01946443*
X01053161Y01946402*
X01052873Y01946341*
X0105259Y0194626*
X01052314Y01946159*
X01052045Y0194604*
X01051785Y01945902*
X01051536Y01945746*
X01051298Y01945573*
X01051073Y01945384*
X01050861Y0194518*
X01050664Y01944961*
X01050483Y01944729*
X01050319Y01944486*
X01050172Y01944231*
X01050043Y01943966*
X01049933Y01943694*
X01049842Y01943414*
X01049771Y01943128*
X01049719Y01942839*
X01049689Y01942546*
X01049681Y01942395*
X01077574Y01942185D02*
D01*
X01077343Y01942223*
X01077109Y01942245*
X01076874Y0194225*
X01076639Y01942238*
X01076406Y01942211*
X01076175Y01942167*
X01075948Y01942107*
X01075725Y01942031*
X01075509Y0194194*
X01075299Y01941835*
X01075097Y01941715*
X01074904Y01941581*
X01074721Y01941434*
X01074549Y01941274*
X01074388Y01941103*
X01074239Y01940921*
X01074104Y01940729*
X01073982Y01940528*
X01073874Y01940319*
X01073781Y01940104*
X01073704Y01939882*
X01073642Y01939655*
X01073597Y01939425*
X01073567Y01939192*
X01073554Y01938957*
X01073557Y01938722*
X01073576Y01938488*
X01073612Y01938256*
X01073664Y01938027*
X01073732Y01937802*
X01073815Y01937582*
X01073913Y01937369*
X01074026Y01937163*
X01074153Y01936966*
X01074294Y01936777*
X01074447Y01936599*
X01074613Y01936433*
X01074789Y01936278*
X01074977Y01936136*
X01075173Y01936007*
X01075378Y01935892*
X0107559Y01935792*
X01075809Y01935707*
X01076034Y01935637*
X01076262Y01935583*
X01267712Y01924774D02*
D01*
X01268076Y01928192*
X01268397Y01931614*
X01268676Y01935039*
X01268912Y01938468*
X01269106Y01941899*
X01065777Y01910273D02*
D01*
X01065578Y01910397*
X0106537Y01910506*
X01065155Y01910601*
X01064933Y0191068*
X01064707Y01910744*
X01064477Y01910792*
X01064245Y01910824*
X0106401Y01910839*
X01063775Y01910838*
X01063541Y0191082*
X01063308Y01910787*
X01063079Y01910737*
X01062853Y01910671*
X01062633Y0191059*
X01062418Y01910493*
X01062211Y01910382*
X01062013Y01910257*
X01061823Y01910118*
X01061644Y01909966*
X01061476Y01909802*
X01061319Y01909627*
X01061175Y01909441*
X01061045Y01909246*
X01060928Y01909042*
X01060826Y0190883*
X01060739Y01908612*
X01060667Y01908388*
X01060612Y0190816*
X01060572Y01907928*
X01060548Y01907694*
X01060541Y01907459*
X0106055Y01907225*
X01060576Y01906991*
X01060618Y0190676*
X01060676Y01906532*
X01060749Y01906309*
X01060838Y01906092*
X01060942Y01905881*
X01061061Y01905678*
X01061193Y01905484*
X01061338Y01905299*
X01061496Y01905125*
X01061666Y01904963*
X01061847Y01904813*
X01062037Y01904675*
X01062038*
X01065777Y01910273D02*
D01*
X01065578Y01910397*
X0106537Y01910506*
X01065155Y01910601*
X01064933Y0191068*
X01064707Y01910744*
X01064477Y01910792*
X01064245Y01910824*
X0106401Y01910839*
X01063775Y01910838*
X01063541Y0191082*
X01063308Y01910787*
X01063079Y01910737*
X01062853Y01910671*
X01062633Y0191059*
X01062418Y01910493*
X01062211Y01910382*
X01062013Y01910257*
X01061823Y01910118*
X01061644Y01909966*
X01061476Y01909802*
X01061319Y01909627*
X01061175Y01909441*
X01061045Y01909246*
X01060928Y01909042*
X01060826Y0190883*
X01060739Y01908612*
X01060667Y01908388*
X01060612Y0190816*
X01060572Y01907928*
X01060548Y01907694*
X01060541Y01907459*
X0106055Y01907225*
X01060576Y01906991*
X01060618Y0190676*
X01060676Y01906532*
X01060749Y01906309*
X01060838Y01906092*
X01060942Y01905881*
X01061061Y01905678*
X01061193Y01905484*
X01061338Y01905299*
X01061496Y01905125*
X01061666Y01904963*
X01061847Y01904813*
X01062037Y01904675*
X01062038*
X01234775Y01821422D02*
D01*
X01243562Y01838723*
X0125112Y01856595*
X01257414Y0187495*
X01258585Y01878906*
X01164798Y01738542D02*
D01*
X01179537Y01751164*
X01193359Y01764782*
X01206197Y01779332*
X01208794Y01782538*
X01068431Y0168875D02*
D01*
X01086878Y01694771*
X0110486Y01702063*
X01122289Y01710592*
X01125915Y01712561*
X01042666Y01885304D02*
D01*
X01042529Y01885495*
X01042379Y01885676*
X01042216Y01885845*
X01042043Y01886003*
X01041858Y01886149*
X01041664Y01886281*
X01041461Y018864*
X0104125Y01886503*
X01041033Y01886592*
X01040809Y01886666*
X01040582Y01886724*
X0104035Y01886766*
X01040117Y01886791*
X01039882Y01886801*
X01039647Y01886793*
X01039414Y0188677*
X01039182Y0188673*
X01038954Y01886674*
X0103873Y01886603*
X01038512Y01886516*
X010383Y01886414*
X01038096Y01886297*
X01037901Y01886166*
X01037715Y01886023*
X0103754Y01885866*
X01037376Y01885698*
X01037224Y01885518*
X01037085Y01885329*
X0103696Y0188513*
X01036848Y01884923*
X01036752Y01884709*
X01036671Y01884489*
X01036605Y01884263*
X01036555Y01884034*
X01036521Y01883801*
X01036504Y01883567*
X01036503Y01883332*
X01036518Y01883097*
X0103655Y01882864*
X01036598Y01882635*
X01036661Y01882408*
X01036741Y01882187*
X01036835Y01881972*
X01036945Y01881764*
X01037068Y01881564*
X01037069Y01881563*
X01042666Y01885304D02*
D01*
X01042529Y01885495*
X01042379Y01885676*
X01042216Y01885845*
X01042043Y01886003*
X01041858Y01886149*
X01041664Y01886281*
X01041461Y018864*
X0104125Y01886503*
X01041033Y01886592*
X01040809Y01886666*
X01040582Y01886724*
X0104035Y01886766*
X01040117Y01886791*
X01039882Y01886801*
X01039647Y01886793*
X01039414Y0188677*
X01039182Y0188673*
X01038954Y01886674*
X0103873Y01886603*
X01038512Y01886516*
X010383Y01886414*
X01038096Y01886297*
X01037901Y01886166*
X01037715Y01886023*
X0103754Y01885866*
X01037376Y01885698*
X01037224Y01885518*
X01037085Y01885329*
X0103696Y0188513*
X01036848Y01884923*
X01036752Y01884709*
X01036671Y01884489*
X01036605Y01884263*
X01036555Y01884034*
X01036521Y01883801*
X01036504Y01883567*
X01036503Y01883332*
X01036518Y01883097*
X0103655Y01882864*
X01036598Y01882635*
X01036661Y01882408*
X01036741Y01882187*
X01036835Y01881972*
X01036945Y01881764*
X01037068Y01881564*
X01037069Y01881563*
X01023107Y01904909D02*
D01*
X01026586Y01907241*
X01029894Y0190981*
X01033014Y01912603*
X01035932Y01915608*
X01038633Y01918808*
X01041104Y01922189*
X01042433Y01924235*
X01004999Y01889103D02*
D01*
X01009615Y0189021*
X01014142Y01891637*
X01018558Y01893375*
X01022843Y01895418*
X01026974Y01897754*
X01030933Y01900373*
X01034699Y01903261*
X01038254Y01906405*
X01041582Y0190979*
X01044665Y01913398*
X01047489Y01917213*
X0105004Y01921216*
X01052306Y01925386*
X01054275Y01929705*
X01055938Y0193415*
X01057288Y01938701*
X01058106Y01942252*
X01011758Y0187108D02*
D01*
X01011705Y01871309*
X01011635Y01871533*
X0101155Y01871752*
X01011449Y01871965*
X01011335Y0187217*
X01011206Y01872366*
X01011064Y01872553*
X01010909Y0187273*
X01010742Y01872895*
X01010564Y01873049*
X01010375Y01873189*
X01010178Y01873316*
X01009972Y01873429*
X01009758Y01873527*
X01009539Y01873611*
X01009314Y01873678*
X01009085Y0187373*
X01008853Y01873766*
X01008619Y01873785*
X01008384Y01873788*
X01008149Y01873775*
X01007916Y01873745*
X01007686Y01873699*
X01007459Y01873638*
X01007237Y0187356*
X01007021Y01873467*
X01006813Y0187336*
X01006612Y01873238*
X0100642Y01873102*
X01006238Y01872954*
X01006067Y01872793*
X01005907Y0187262*
X0100576Y01872437*
X01005626Y01872244*
X01005506Y01872042*
X01005401Y01871832*
X0100531Y01871616*
X01005234Y01871393*
X01005175Y01871166*
X01005131Y01870935*
X01005103Y01870702*
X01005092Y01870467*
X01005097Y01870232*
X01005119Y01869998*
X01005156Y01869766*
X01022563Y02232134D02*
D01*
X01003217Y02233632*
X00983813Y02233775*
X00964447Y02232566*
X00960343Y02232134*
X00971158Y02040686D02*
D01*
X00971212Y02040458*
X00971282Y02040233*
X00971367Y02040014*
X00971467Y02039802*
X00971582Y02039597*
X00971711Y02039401*
X00971853Y02039214*
X00972008Y02039037*
X00972175Y02038871*
X00972353Y02038718*
X00972541Y02038578*
X00972739Y02038451*
X00972945Y02038338*
X00973158Y02038239*
X00973378Y02038156*
X00973603Y02038088*
X00973832Y02038037*
X00974064Y02038001*
X00974298Y02037981*
X00974533Y02037978*
X00974768Y02037992*
X00975001Y02038021*
X00975231Y02038067*
X00975458Y02038129*
X0097568Y02038206*
X00975895Y02038299*
X00976104Y02038407*
X00976305Y02038529*
X00976497Y02038664*
X00976679Y02038813*
X0097685Y02038974*
X00977009Y02039147*
X00977156Y0203933*
X0097729Y02039523*
X0097741Y02039725*
X00977516Y02039935*
X00977607Y02040151*
X00977682Y02040374*
X00977742Y02040601*
X00977786Y02040832*
X00977814Y02041065*
X00977825Y020413*
X0097782Y02041535*
X00977798Y02041769*
X0097776Y02042*
X0094025Y02026462D02*
D01*
X00940388Y02026272*
X00940538Y02026091*
X009407Y02025921*
X00940874Y02025763*
X00941059Y02025618*
X00941253Y02025486*
X00941456Y02025367*
X00941667Y02025263*
X00941884Y02025174*
X00942107Y02025101*
X00942335Y02025043*
X00942566Y02025001*
X009428Y02024975*
X00943034Y02024966*
X00943269Y02024973*
X00943503Y02024997*
X00943735Y02025037*
X00943963Y02025092*
X00944187Y02025164*
X00944405Y02025251*
X00944617Y02025353*
X00944821Y0202547*
X00945016Y020256*
X00945202Y02025744*
X00945377Y02025901*
X00945541Y02026069*
X00945693Y02026248*
X00945832Y02026438*
X00945957Y02026636*
X00946068Y02026843*
X00946165Y02027058*
X00946246Y02027278*
X00946312Y02027504*
X00946362Y02027733*
X00946396Y02027966*
X00946413Y020282*
X00946414Y02028435*
X00946399Y0202867*
X00946367Y02028902*
X00946319Y02029132*
X00946255Y02029358*
X00946176Y0202958*
X00946081Y02029795*
X00945972Y02030003*
X00945848Y02030202*
X00945847Y02030203*
X0097777Y02014235D02*
D01*
X00978064Y02014246*
X00978357Y02014276*
X00978647Y02014327*
X00978932Y02014399*
X00979212Y0201449*
X00979484Y020146*
X00979749Y02014729*
X00980003Y02014876*
X00980247Y0201504*
X00980479Y02015221*
X00980698Y02015418*
X00980902Y0201563*
X00981091Y02015855*
X00981264Y02016093*
X0098142Y02016342*
X00981558Y02016602*
X00981677Y02016871*
X00981778Y02017147*
X00981859Y0201743*
X0098192Y02017718*
X00981961Y02018009*
X00981982Y02018302*
Y02018596*
X00981961Y0201889*
X0098192Y02019181*
X00981859Y02019469*
X00981778Y02019752*
X00981677Y02020028*
X00981558Y02020297*
X0098142Y02020556*
X00981264Y02020806*
X00981091Y02021044*
X00980902Y02021269*
X00980698Y02021481*
X00980479Y02021677*
X00980247Y02021859*
X00980003Y02022023*
X00979749Y0202217*
X00979484Y02022299*
X00979212Y02022409*
X00978932Y020225*
X00978647Y02022571*
X00978357Y02022622*
X00978064Y02022653*
X00977913Y0202266*
X01005085Y02022529D02*
D01*
X01004791Y02022519*
X01004499Y02022488*
X01004209Y02022437*
X01003924Y02022366*
X01003644Y02022275*
X01003371Y02022165*
X01003107Y02022036*
X01002852Y02021889*
X01002608Y02021725*
X01002377Y02021544*
X01002158Y02021347*
X01001954Y02021135*
X01001765Y0202091*
X01001592Y02020672*
X01001436Y02020422*
X01001298Y02020163*
X01001178Y02019894*
X01001078Y02019618*
X01000996Y02019335*
X01000935Y02019047*
X01000894Y02018756*
X01000874Y02018462*
Y02018168*
X01000894Y02017875*
X01000935Y02017584*
X01000996Y02017296*
X01001078Y02017013*
X01001178Y02016737*
X01001298Y02016468*
X01001436Y02016208*
X01001592Y02015959*
X01001765Y02015721*
X01001954Y02015496*
X01002158Y02015284*
X01002377Y02015087*
X01002608Y02014906*
X01002852Y02014742*
X01003107Y02014595*
X01003371Y02014466*
X01003644Y02014355*
X01003924Y02014265*
X01004209Y02014193*
X01004499Y02014142*
X01004791Y02014112*
X01004942Y02014104*
X00959805Y02006854D02*
D01*
X00956327Y02004523*
X00953019Y02001954*
X00949899Y0199916*
X00946981Y01996156*
X0094428Y01992956*
X00941809Y01989575*
X00940479Y01987528*
X00977913Y0202266D02*
D01*
X00973298Y02021553*
X00968771Y02020127*
X00964354Y02018389*
X0096007Y02016346*
X00955938Y0201401*
X0095198Y02011391*
X00948214Y02008503*
X00944658Y02005358*
X00941331Y02001974*
X00938248Y01998365*
X00935423Y01994551*
X00932872Y01990548*
X00930607Y01986378*
X00928637Y01982059*
X00926974Y01977614*
X00925625Y01973063*
X00924806Y01969512*
X01017365Y01971009D02*
D01*
X01016247Y0197278*
X01015008Y01974468*
X01013654Y01976065*
X01012193Y01977565*
X01010629Y01978958*
X01008973Y01980239*
X01007232Y01981402*
X01005413Y0198244*
X01003527Y01983349*
X01001581Y01984124*
X00999587Y01984761*
X00997552Y01985258*
X00995488Y01985612*
X00993405Y01985821*
X00991312Y01985883*
X0098922Y019858*
X00987138Y01985571*
X00985078Y01985197*
X00983048Y01984681*
X0098106Y01984024*
X00979122Y0198323*
X00977245Y01982303*
X00975436Y01981248*
X00973706Y01980068*
X00972062Y01978771*
X00970513Y01977363*
X00969066Y01975849*
X00967728Y01974239*
X00966505Y01972539*
X009656Y01971094*
X01008819Y01965803D02*
D01*
X01008085Y0196699*
X01007269Y01968124*
X01006377Y01969197*
X01005412Y01970205*
X01004378Y01971144*
X01003282Y01972009*
X01002128Y01972794*
X01000922Y01973498*
X0099967Y01974115*
X00998378Y01974644*
X00997053Y01975081*
X009957Y01975425*
X00994326Y01975673*
X00992938Y01975825*
X00991543Y0197588*
X00990148Y01975838*
X00988759Y01975698*
X00987383Y01975462*
X00986027Y0197513*
X00984698Y01974705*
X00983401Y01974188*
X00982143Y01973581*
X00980931Y01972888*
X00979771Y01972113*
X00978667Y01971258*
X00977625Y01970329*
X00976651Y01969329*
X00975749Y01968264*
X00974923Y01967138*
X00974178Y01965957*
X00974104Y01965828*
X009656Y01971094D02*
D01*
X00965429Y0197079*
X00965279Y01970475*
X00965152Y0197015*
X00965048Y01969817*
X00964967Y01969477*
X0096491Y01969133*
X00964877Y01968785*
X00964869Y01968436*
X00964885Y01968088*
X00964925Y01967741*
X00964989Y01967398*
X00965077Y0196706*
X00965188Y01966729*
X00965322Y01966407*
X00965479Y01966095*
X00965657Y01965794*
X00965855Y01965507*
X00966073Y01965234*
X00966309Y01964977*
X00966563Y01964738*
X00966832Y01964516*
X00967117Y01964314*
X00967415Y01964132*
X00967725Y01963971*
X00968045Y01963833*
X00968375Y01963717*
X00968711Y01963624*
X00969053Y01963555*
X00969399Y0196351*
X00969748Y0196349*
X00970097Y01963493*
X00970445Y01963522*
X0097079Y01963574*
X00971131Y0196365*
X00971465Y0196375*
X00971792Y01963873*
X00972109Y01964018*
X00972416Y01964185*
X0097271Y01964373*
X0097299Y01964581*
X00973255Y01964809*
X00973504Y01965054*
X00973734Y01965316*
X00973946Y01965593*
X00974138Y01965884*
X00974236Y01966052*
X0097409Y01945958D02*
D01*
X00973892Y01946246*
X00973675Y0194652*
X0097344Y01946778*
X00973187Y01947018*
X00972918Y01947241*
X00972634Y01947444*
X00972337Y01947627*
X00972028Y01947788*
X00971708Y01947928*
X00971379Y01948045*
X00971043Y01948139*
X00970701Y01948209*
X00970355Y01948255*
X00970006Y01948277*
X00969657Y01948275*
X00969309Y01948248*
X00968964Y01948197*
X00968623Y01948122*
X00968288Y01948023*
X00967961Y01947902*
X00967643Y01947757*
X00967336Y01947591*
X00967042Y01947404*
X00966761Y01947197*
X00966495Y01946971*
X00966245Y01946727*
X00966014Y01946466*
X00965801Y01946189*
X00965608Y01945898*
X00965435Y01945595*
X00965285Y0194528*
X00965156Y01944955*
X00965051Y01944623*
X00964969Y01944283*
X0096491Y01943939*
X00964876Y01943592*
X00964867Y01943243*
X00964881Y01942894*
X0096492Y01942547*
X00964983Y01942204*
X0096507Y01941866*
X0096518Y01941535*
X00965314Y01941212*
X00965469Y01940899*
X00965645Y01940598*
X00965806Y0194036*
X00974093Y0194596D02*
D01*
X00974828Y01944773*
X00975643Y0194364*
X00976536Y01942567*
X00977501Y01941558*
X00978535Y0194062*
X00979631Y01939755*
X00980784Y01938969*
X0098199Y01938266*
X00983242Y01937649*
X00984534Y0193712*
X0098586Y01936683*
X00987213Y01936339*
X00988587Y0193609*
X00989974Y01935938*
X00991369Y01935883*
X00992765Y01935926*
X00994154Y01936065*
X0099553Y01936302*
X00996886Y01936634*
X00998215Y01937059*
X00999512Y01937576*
X01000769Y01938183*
X01001981Y01938875*
X01003142Y01939651*
X01004246Y01940505*
X01005288Y01941435*
X01006262Y01942435*
X01007164Y019435*
X01007989Y01944626*
X01008679Y01945713*
X00914477Y02223011D02*
D01*
X00896031Y02216991*
X00878049Y02209699*
X0086062Y0220117*
X00856994Y021992*
X0081811Y02173219D02*
D01*
X00803372Y02160598*
X0078955Y02146979*
X00776711Y0213243*
X00774115Y02129223*
X00748134Y02090339D02*
D01*
X00739348Y02073039*
X00731789Y02055167*
X00725496Y02036812*
X00724323Y02032856*
X00917139Y02001493D02*
D01*
X00917339Y0200137*
X00917547Y0200126*
X00917762Y02001166*
X00917983Y02001086*
X0091821Y02001023*
X0091844Y02000975*
X00918672Y02000943*
X00918907Y02000928*
X00919142Y02000929*
X00919376Y02000946*
X00919609Y0200098*
X00919838Y0200103*
X00920064Y02001096*
X00920284Y02001177*
X00920498Y02001273*
X00920705Y02001385*
X00920904Y0200151*
X00921093Y02001649*
X00921273Y02001801*
X00921441Y02001965*
X00921598Y0200214*
X00921741Y02002326*
X00921872Y02002521*
X00921989Y02002725*
X00922091Y02002937*
X00922178Y02003155*
X00922249Y02003379*
X00922305Y02003607*
X00922345Y02003839*
X00922368Y02004072*
X00922376Y02004307*
X00922366Y02004542*
X00922341Y02004776*
X00922299Y02005007*
X00922241Y02005235*
X00922167Y02005458*
X00922078Y02005675*
X00921975Y02005886*
X00921856Y02006089*
X00921724Y02006283*
X00921579Y02006467*
X00921421Y02006641*
X00921251Y02006804*
X0092107Y02006954*
X00920879Y02007091*
X00920878*
X00905341Y0196958D02*
D01*
X00905573Y01969543*
X00905807Y01969521*
X00906042Y01969516*
X00906277Y01969527*
X0090651Y01969555*
X00906741Y01969599*
X00906968Y01969659*
X0090719Y01969734*
X00907407Y01969825*
X00907617Y01969931*
X00907819Y01970051*
X00908012Y01970185*
X00908195Y01970332*
X00908367Y01970492*
X00908528Y01970663*
X00908677Y01970845*
X00908812Y01971036*
X00908934Y01971237*
X00909042Y01971446*
X00909134Y01971662*
X00909212Y01971884*
X00909274Y01972111*
X00909319Y01972341*
X00909349Y01972574*
X00909362Y01972809*
X00909359Y01973044*
X0090934Y01973277*
X00909304Y0197351*
X00909252Y01973739*
X00909184Y01973964*
X00909101Y01974184*
X00909003Y01974397*
X00908889Y01974603*
X00908762Y019748*
X00908622Y01974988*
X00908468Y01975166*
X00908303Y01975333*
X00908126Y01975488*
X00907939Y0197563*
X00907743Y01975759*
X00907538Y01975874*
X00907325Y01975974*
X00907106Y01976059*
X00906882Y01976129*
X00906654Y01976183*
X00924806Y01969512D02*
D01*
X00924817Y01969218*
X00924847Y01968926*
X00924898Y01968636*
X0092497Y01968351*
X0092506Y01968071*
X00925171Y01967798*
X009253Y01967534*
X00925447Y01967279*
X00925611Y01967035*
X00925792Y01966804*
X00925989Y01966585*
X00926201Y01966381*
X00926426Y01966192*
X00926664Y01966019*
X00926913Y01965863*
X00927173Y01965725*
X00927442Y01965605*
X00927718Y01965505*
X00928001Y01965424*
X00928289Y01965362*
X0092858Y01965321*
X00928873Y01965301*
X00929167*
X00929461Y01965321*
X00929752Y01965362*
X0093004Y01965424*
X00930323Y01965505*
X00930599Y01965605*
X00930868Y01965725*
X00931127Y01965863*
X00931377Y01966019*
X00931615Y01966192*
X0093184Y01966381*
X00932052Y01966585*
X00932249Y01966804*
X0093243Y01967035*
X00932594Y01967279*
X00932741Y01967534*
X0093287Y01967798*
X0093298Y01968071*
X00933071Y01968351*
X00933142Y01968636*
X00933193Y01968926*
X00933224Y01969218*
X00933231Y01969369*
X007152Y0198699D02*
D01*
X00713703Y01967644*
X00713559Y0194824*
X00714769Y01928874*
X007152Y0192477*
X00933099Y01942196D02*
D01*
X00933089Y0194249*
X00933058Y01942783*
X00933007Y01943073*
X00932936Y01943358*
X00932845Y01943638*
X00932735Y0194391*
X00932606Y01944175*
X00932459Y01944429*
X00932295Y01944673*
X00932113Y01944905*
X00931917Y01945124*
X00931705Y01945328*
X0093148Y01945517*
X00931242Y0194569*
X00930992Y01945846*
X00930733Y01945984*
X00930464Y01946104*
X00930188Y01946204*
X00929905Y01946285*
X00929617Y01946346*
X00929326Y01946387*
X00929032Y01946408*
X00928738*
X00928445Y01946387*
X00928154Y01946346*
X00927866Y01946285*
X00927583Y01946204*
X00927307Y01946104*
X00927038Y01945984*
X00926778Y01945846*
X00926529Y0194569*
X00926291Y01945517*
X00926066Y01945328*
X00925854Y01945124*
X00925657Y01944905*
X00925476Y01944673*
X00925312Y01944429*
X00925165Y01944175*
X00925036Y0194391*
X00924926Y01943638*
X00924835Y01943358*
X00924763Y01943073*
X00924712Y01942783*
X00924682Y0194249*
X00924675Y01942339*
X00906655Y01935582D02*
D01*
X00906884Y01935636*
X00907108Y01935706*
X00907327Y01935791*
X0090754Y01935891*
X00907745Y01936006*
X00907941Y01936135*
X00908128Y01936277*
X00908305Y01936432*
X0090847Y01936599*
X00908624Y01936777*
X00908764Y01936965*
X00908891Y01937163*
X00909004Y01937369*
X00909102Y01937582*
X00909186Y01937802*
X00909253Y01938027*
X00909305Y01938256*
X00909341Y01938488*
X0090936Y01938722*
X00909363Y01938957*
X0090935Y01939192*
X0090932Y01939425*
X00909275Y01939655*
X00909213Y01939882*
X00909135Y01940104*
X00909042Y01940319*
X00908935Y01940528*
X00908813Y01940729*
X00908677Y01940921*
X00908529Y01941103*
X00908368Y01941274*
X00908195Y01941434*
X00908012Y0194158*
X00907819Y01941714*
X00907617Y01941834*
X00907407Y0194194*
X0090719Y01942031*
X00906968Y01942106*
X00906741Y01942166*
X0090651Y0194221*
X00906277Y01942238*
X00906042Y01942249*
X00905807Y01942244*
X00905573Y01942222*
X00905341Y01942185*
X00965472Y01940892D02*
D01*
X00966582Y01939116*
X00967812Y01937422*
X00969157Y01935817*
X00970611Y0193431*
X00972167Y01932909*
X00973816Y01931619*
X00975552Y01930448*
X00977365Y019294*
X00979247Y01928481*
X00981188Y01927696*
X00983179Y01927048*
X00985211Y01926541*
X00987273Y01926177*
X00989355Y01925957*
X00991448Y01925883*
X00993541Y01925956*
X00995623Y01926174*
X00997686Y01926537*
X00999718Y01927043*
X01001709Y01927689*
X01003651Y01928473*
X01005533Y0192939*
X01007347Y01930436*
X01009084Y01931607*
X01010734Y01932895*
X01012291Y01934296*
X01013746Y01935802*
X01015092Y01937405*
X01016324Y01939099*
X01017316Y01940672*
X00924675Y01942339D02*
D01*
X00925782Y01937724*
X00927208Y01933197*
X00928947Y01928781*
X0093099Y01924496*
X00933326Y01920364*
X00935945Y01916406*
X00938833Y0191264*
X00941977Y01909084*
X00945362Y01905757*
X0094897Y01902674*
X00952785Y01899849*
X00956788Y01897298*
X00960958Y01895033*
X00965277Y01893063*
X00969722Y018914*
X00974273Y01890051*
X00977823Y01889232*
X0094048Y01924231D02*
D01*
X00942812Y01920753*
X00945381Y01917445*
X00948174Y01914325*
X00951179Y01911407*
X00954379Y01908706*
X0095776Y01906235*
X00959807Y01904906*
X00920879Y01904675D02*
D01*
X0092107Y01904813*
X00921251Y01904963*
X00921421Y01905125*
X00921579Y01905299*
X00921724Y01905484*
X00921856Y01905678*
X00921975Y01905881*
X00922078Y01906092*
X00922167Y01906309*
X00922241Y01906532*
X00922299Y0190676*
X00922341Y01906991*
X00922366Y01907225*
X00922376Y01907459*
X00922368Y01907694*
X00922345Y01907928*
X00922305Y0190816*
X00922249Y01908388*
X00922178Y01908612*
X00922091Y0190883*
X00921989Y01909042*
X00921872Y01909246*
X00921741Y01909441*
X00921598Y01909627*
X00921441Y01909802*
X00921273Y01909966*
X00921093Y01910118*
X00920904Y01910257*
X00920705Y01910382*
X00920498Y01910493*
X00920284Y0191059*
X00920064Y01910671*
X00919838Y01910737*
X00919609Y01910787*
X00919376Y0191082*
X00919142Y01910838*
X00918907Y01910839*
X00918672Y01910824*
X0091844Y01910792*
X0091821Y01910744*
X00917983Y0191068*
X00917762Y01910601*
X00917547Y01910506*
X00917339Y01910397*
X00917139Y01910273*
X00917138Y01910272*
X00977823Y01889232D02*
D01*
X00978117Y01889243*
X0097841Y01889273*
X009787Y01889324*
X00978985Y01889396*
X00979265Y01889486*
X00979537Y01889597*
X00979802Y01889726*
X00980056Y01889873*
X009803Y01890037*
X00980532Y01890218*
X00980751Y01890415*
X00980955Y01890627*
X00981144Y01890852*
X00981317Y0189109*
X00981473Y01891339*
X00981611Y01891599*
X00981731Y01891868*
X00981831Y01892144*
X00981912Y01892427*
X00981973Y01892715*
X00982014Y01893006*
X00982035Y01893299*
Y01893593*
X00982014Y01893887*
X00981973Y01894178*
X00981912Y01894466*
X00981831Y01894749*
X00981731Y01895025*
X00981611Y01895294*
X00981473Y01895553*
X00981317Y01895803*
X00981144Y01896041*
X00980955Y01896266*
X00980751Y01896478*
X00980532Y01896674*
X009803Y01896855*
X00980056Y0189702*
X00979802Y01897167*
X00979537Y01897296*
X00979265Y01897406*
X00978985Y01897497*
X009787Y01897568*
X0097841Y01897619*
X00978117Y0189765*
X00977966Y01897657*
X01005143Y01897528D02*
D01*
X01004849Y01897518*
X01004557Y01897487*
X01004267Y01897436*
X01003982Y01897365*
X01003702Y01897274*
X01003429Y01897164*
X01003165Y01897035*
X0100291Y01896888*
X01002667Y01896724*
X01002435Y01896543*
X01002216Y01896346*
X01002012Y01896134*
X01001823Y01895909*
X0100165Y01895671*
X01001494Y01895421*
X01001356Y01895162*
X01001236Y01894893*
X01001136Y01894616*
X01001055Y01894334*
X01000993Y01894046*
X01000953Y01893755*
X01000932Y01893462*
Y01893167*
X01000953Y01892874*
X01000993Y01892583*
X01001055Y01892295*
X01001136Y01892012*
X01001236Y01891736*
X01001356Y01891467*
X01001494Y01891207*
X0100165Y01890958*
X01001823Y0189072*
X01002012Y01890495*
X01002216Y01890283*
X01002435Y01890086*
X01002667Y01889905*
X0100291Y01889741*
X01003165Y01889594*
X01003429Y01889465*
X01003702Y01889355*
X01003982Y01889264*
X01004267Y01889193*
X01004557Y01889141*
X01004849Y01889111*
X01004999Y01889103*
X00945848Y01881564D02*
D01*
X00945972Y01881764*
X00946081Y01881972*
X00946176Y01882187*
X00946255Y01882408*
X00946319Y01882635*
X00946367Y01882864*
X00946399Y01883097*
X00946414Y01883332*
X00946413Y01883567*
X00946396Y01883801*
X00946362Y01884034*
X00946312Y01884263*
X00946246Y01884489*
X00946165Y01884709*
X00946068Y01884923*
X00945957Y0188513*
X00945832Y01885329*
X00945693Y01885518*
X00945541Y01885698*
X00945377Y01885866*
X00945202Y01886023*
X00945016Y01886166*
X00944821Y01886297*
X00944617Y01886414*
X00944405Y01886516*
X00944187Y01886603*
X00943963Y01886674*
X00943735Y0188673*
X00943503Y0188677*
X00943269Y01886793*
X00943034Y01886801*
X009428Y01886791*
X00942566Y01886766*
X00942335Y01886724*
X00942107Y01886666*
X00941884Y01886592*
X00941667Y01886503*
X00941456Y018864*
X00941253Y01886281*
X00941059Y01886149*
X00940874Y01886003*
X009407Y01885845*
X00940538Y01885676*
X00940388Y01885495*
X0094025Y01885304*
Y01885303*
X0097776Y01869766D02*
D01*
X00977798Y01869998*
X00977819Y01870232*
X00977825Y01870467*
X00977813Y01870702*
X00977786Y01870935*
X00977742Y01871166*
X00977682Y01871393*
X00977606Y01871615*
X00977515Y01871832*
X0097741Y01872042*
X0097729Y01872244*
X00977156Y01872436*
X00977009Y0187262*
X00976849Y01872792*
X00976678Y01872953*
X00976496Y01873102*
X00976304Y01873237*
X00976103Y01873359*
X00975894Y01873467*
X00975679Y01873559*
X00975457Y01873637*
X0097523Y01873699*
X00975Y01873744*
X00974767Y01873774*
X00974532Y01873787*
X00974297Y01873784*
X00974063Y01873765*
X00973831Y01873729*
X00973602Y01873677*
X00973377Y01873609*
X00973157Y01873526*
X00972944Y01873428*
X00972738Y01873315*
X00972541Y01873187*
X00972352Y01873047*
X00972174Y01872893*
X00972008Y01872728*
X00971853Y01872551*
X00971711Y01872364*
X00971582Y01872168*
X00971467Y01871963*
X00971367Y0187175*
X00971282Y01871531*
X00971212Y01871307*
X00971158Y01871079*
X00960345Y01679627D02*
D01*
X00979692Y0167813*
X00999095Y01677986*
X01018462Y01679196*
X01022565Y01679627*
X00856996Y0171256D02*
D01*
X00874297Y01703774*
X00892169Y01696215*
X00910524Y01689922*
X00914479Y0168875*
X00774116Y01782537D02*
D01*
X00786738Y01767799*
X00800356Y01753977*
X00814906Y01741138*
X00818112Y01738541*
X00724324Y01878904D02*
D01*
X00730345Y01860458*
X00737637Y01842476*
X00746166Y01825047*
X00748135Y0182142*
X01065286Y02001338D02*
X01098522Y02015105D01*
X01108926Y01989734D02*
X01254754Y02031755D01*
X01123983Y02195709D02*
X01125913Y02199201D01*
X01162399Y02170214D02*
X01164796Y0217322D01*
X01050584Y02062882D02*
X01123987Y02195711D01*
X01205674Y02126737D02*
X01208793Y02129224D01*
X01067774Y02051569D02*
X01162402Y02170216D01*
X01231408Y02088481D02*
X01234774Y02090341D01*
X0108703Y0203211D02*
X01205677Y02126739D01*
X01098582Y0201508D02*
X01231412Y02088483D01*
X01254751Y02031753D02*
X01258584Y02032857D01*
X0126389Y01986563D02*
X01267712Y01986994D01*
X01076261Y01976183D02*
X01088234Y01981131D01*
X01113081Y0196958D02*
X0126389Y01986563D01*
X01113081Y0196958D02*
X0126389Y01986563D01*
X01077061Y01969626D02*
X01113036D01*
X01077061D02*
X01113036D01*
X01263887Y01986561D02*
X01267708Y01986991D01*
X0107563Y01975993D02*
X01108866Y01989759D01*
X01076918Y0194225D02*
X01112893D01*
X01076918D02*
X01112893D01*
X01022117Y0222817D02*
X01022563Y02232134D01*
X01067364Y02219316D02*
X01068429Y02223011D01*
X01005137Y02077363D02*
X0102212Y02228172D01*
X01025347Y0207349D02*
X01067368Y02219318D01*
X0101152Y02040229D02*
X01025287Y02073465D01*
X01005155Y02041999D02*
X01005167Y02054954D01*
X01011758Y02040687D02*
X01016718Y02052631D01*
X01036757Y02029621D02*
X01050524Y02062857D01*
X01042271Y02026131D02*
X01067709Y02051569D01*
X01037068Y02030202D02*
X01042036Y02042167D01*
X01042666Y02026463D02*
X01051819Y020356D01*
X01061527Y02006672D02*
X01086965Y0203211D01*
X01062037Y02007091D02*
X01071206Y02016243D01*
X01005152Y01998817D02*
X01005165Y02014104D01*
X01065778Y02001494D02*
X01077731Y02006433D01*
X01012129Y01995928D02*
X01023144Y02006923D01*
X01005152Y01998817D02*
X01012129Y01995928D01*
X010315Y01976556D02*
X01042602Y01987637D01*
X010315Y01976556D02*
X01034391Y01969579D01*
X01049955Y01969565*
X01034391Y01969579D02*
X01049955Y01969565D01*
X01034394Y01942185D02*
X01049681Y01942172D01*
X01112938Y01942204D02*
X01263747Y01925221D01*
X01112938Y01942204D02*
X01263747Y01925221D01*
X01075804Y01935821D02*
X0110904Y01922054D01*
X01263747Y01925221D02*
X01267712Y01924774D01*
X01263744Y01925218D02*
X01267708Y01924772D01*
X01065777Y01910273D02*
X01077742Y01905305D01*
X01065196Y01910584D02*
X01098432Y01896817D01*
X01109065Y01921994D02*
X01254893Y01879973D01*
X01062038Y01904675D02*
X01071175Y01895522D01*
X01061706Y0190507D02*
X01087144Y01879632D01*
X01042666Y01885304D02*
X01051818Y01876135D01*
X0125489Y0187997D02*
X01258585Y01878906D01*
X01042247Y01885814D02*
X01067685Y01860376D01*
X01036913Y01882055D02*
X0105068Y01848819D01*
X01098457Y01896757D02*
X01231287Y01823354D01*
X01087144Y01879567D02*
X01205791Y01784939D01*
X01231283Y01823352D02*
X01234775Y01821422D01*
X01067685Y01860311D02*
X01162314Y01741664D01*
X01205787Y01784936D02*
X01208794Y01782538D01*
X01050655Y01848759D02*
X01124058Y01715929D01*
X01025309Y01838415D02*
X0106733Y01692586D01*
X0116231Y01741661D02*
X01164798Y01738542D01*
X01124055Y01715927D02*
X01125915Y01712561D01*
X01067326Y01692584D02*
X01068431Y0168875D01*
X01037069Y01881563D02*
X01042008Y0186961D01*
X01031505Y01935208D02*
X010425Y01924193D01*
X01031505Y01935208D02*
X01034394Y01942185D01*
X01022135Y01683448D02*
X01022565Y01679627D01*
X01011567Y01871711D02*
X01025334Y01838475D01*
X01012133Y01915837D02*
X01023215Y01904736D01*
X01011758Y0187108D02*
X01016706Y01859107D01*
X01005155Y01834259D02*
X01022138Y01683451D01*
X01005156Y01912946D02*
X01012133Y01915837D01*
X01005201Y01834305D02*
Y0187028D01*
X01005143Y01897383D02*
X01005156Y01912946D01*
X00960343Y02232134D02*
X00960774Y02228313D01*
X00960777Y02228315D02*
X00977761Y02077506D01*
X00915586Y02219179D02*
X00957607Y02073351D01*
X00977715Y02041486D02*
Y02077461D01*
X01005091Y02077318D02*
Y02041343D01*
X00957582Y02073291D02*
X00971349Y02040055D01*
X0097776Y02042D02*
X00977771Y02054933D01*
X0096621Y02052659D02*
X00971158Y02040686D01*
X00932236Y02062947D02*
X00946002Y02029711D01*
X00940908Y02042156D02*
X00945847Y02030203D01*
X00931097Y02035631D02*
X0094025Y02026462D01*
X00977756Y01998818D02*
X0097777Y02014381D01*
X00977756Y01998818D02*
X0097777Y02014381D01*
X00959697Y02007028D02*
X00970779Y01995927D01*
X00977756Y01998818*
X00940412Y0198757D02*
X00951407Y01976556D01*
X00948518Y01969578D02*
X00951407Y01976556D01*
X00933231Y01969591D02*
X00948518Y01969578D01*
X00932954Y01942196D02*
X00948517Y01942183D01*
X00932954Y01942196D02*
X00948517Y01942183D01*
X00914477Y02223011D02*
X00915582Y02219177D01*
X00856994Y021992D02*
X00858854Y02195834D01*
X0081811Y02173219D02*
X00820598Y021701D01*
X00858857Y02195837D02*
X0093226Y02063007D01*
X00774115Y02129223D02*
X00777121Y02126825D01*
X00820602Y02170102D02*
X00915231Y02051455D01*
X00748134Y02090339D02*
X00751626Y0208841D01*
X00777125Y02126827D02*
X00895772Y02032199D01*
X00751629Y02088412D02*
X00884459Y02015009D01*
X00915231Y0205139D02*
X00940668Y02025952D01*
X00724323Y02032856D02*
X00728019Y02031791D01*
X00895772Y02032134D02*
X0092121Y02006696D01*
X00911741Y02016244D02*
X00920878Y02007091D01*
X00728022Y02031793D02*
X00873851Y01989772D01*
X00884484Y02014949D02*
X0091772Y02001182D01*
X00905174Y02006461D02*
X00917139Y02001493D01*
X007152Y0198699D02*
X00719165Y01986543D01*
X00873876Y01989712D02*
X00907112Y01975945D01*
X00894709Y01981143D02*
X00906654Y01976183D01*
X00719169Y01986545D02*
X00869977Y01969562D01*
X00889656Y01969594D02*
X00905341Y0196958D01*
X00870023Y01969516D02*
X00905998D01*
X00889666Y01942199D02*
X00905341Y01942185D01*
X0086988Y0194214D02*
X00905855D01*
X00948517Y01942183D02*
X00951408Y01935206D01*
X00894682Y01930635D02*
X00906655Y01935582D01*
X00940308Y01924124D02*
X00951408Y01935206D01*
X00970779Y01915834D02*
X00977757Y01912944D01*
X00959765Y01904838D02*
X00970779Y01915834D01*
X00905185Y01905333D02*
X00917138Y01910272D01*
X00977743Y01897657D02*
X00977757Y01912944D01*
X01005143Y01897383D02*
X01005156Y01912946D01*
X00884394Y01896661D02*
X0091763Y01910427D01*
X0091171Y01895523D02*
X00920879Y01904675D01*
X00895951Y01879656D02*
X00921389Y01905093D01*
X00931097Y01876166D02*
X0094025Y01885303D01*
X0094088Y01869599D02*
X00945848Y01881564D01*
X00915207Y01860197D02*
X00940645Y01885635D01*
X00932392Y01848909D02*
X00946159Y01882145D01*
X00966198Y01859134D02*
X00971158Y01871079D01*
X00957629Y01838301D02*
X00971396Y01871537D01*
X00977825Y01870423D02*
Y01834448D01*
X00915548Y01692447D02*
X00957569Y01838276D01*
X00960796Y01683594D02*
X00977779Y01834402D01*
X00914479Y0168875D02*
X00915544Y01692445D01*
X00960345Y01679627D02*
X00960792Y01683591D01*
X00858929Y01716054D02*
X00932332Y01848884D01*
X0087405Y01922007D02*
X00907286Y01935774D01*
X00820514Y01741551D02*
X00915142Y01860197D01*
X00856996Y0171256D02*
X00858925Y01716052D01*
X0077724Y01785027D02*
X00895886Y01879656D01*
X00818112Y01738541D02*
X0082051Y01741547D01*
X00751504Y01823283D02*
X00884334Y01896685D01*
X00728161Y01880011D02*
X0087399Y01922032D01*
X00719026Y01925202D02*
X00869834Y01942186D01*
X00774116Y01782537D02*
X00777235Y01785024D01*
X00748135Y0182142D02*
X007515Y0182328D01*
X00724324Y01878904D02*
X00728158Y01880008D01*
X007152Y0192477D02*
X00719022Y019252D01*
X02329755Y01712396D02*
D01*
X02347056Y0170361*
X02364928Y01696051*
X02383283Y01689758*
X02387239Y01688585*
X02246875Y01782372D02*
D01*
X02259497Y01767634*
X02273115Y01753812*
X02287665Y01740973*
X02290872Y01738377*
X02197084Y01878739D02*
D01*
X02203105Y01860293*
X02210397Y01842311*
X02218926Y01824882*
X02220894Y01821256*
X02186636Y01971031D02*
D01*
X02186244Y01951631*
X02187206Y01932251*
X0218796Y01924605*
X02379407Y01935413D02*
D01*
X02379636Y01935467*
X0237986Y01935537*
X02380079Y01935622*
X02380292Y01935722*
X02380497Y01935837*
X02380693Y01935966*
X0238088Y01936108*
X02381057Y01936263*
X02381222Y0193643*
X02381375Y01936608*
X02381516Y01936796*
X02381643Y01936994*
X02381756Y019372*
X02381855Y01937413*
X02381938Y01937633*
X02382005Y01937858*
X02382057Y01938087*
X02382093Y01938319*
X02382112Y01938553*
X02382115Y01938788*
X02382102Y01939023*
X02382072Y01939256*
X02382026Y01939486*
X02381965Y01939713*
X02381887Y01939935*
X02381794Y01940151*
X02381687Y01940359*
X02381565Y0194056*
X02381429Y01940752*
X02381281Y01940934*
X0238112Y01941105*
X02380947Y01941264*
X02380764Y01941411*
X02380571Y01941545*
X02380369Y01941665*
X02380159Y01941771*
X02379942Y01941862*
X0237972Y01941937*
X02379493Y01941997*
X02379262Y01942041*
X02379029Y01942069*
X02378794Y0194208*
X02378559Y01942075*
X02378325Y01942053*
X02378093Y01942016*
X02450512Y01869597D02*
D01*
X0245055Y01869829*
X02450571Y01870063*
X02450577Y01870298*
X02450565Y01870533*
X02450538Y01870766*
X02450494Y01870997*
X02450434Y01871224*
X02450358Y01871446*
X02450268Y01871663*
X02450162Y01871873*
X02450042Y01872074*
X02449908Y01872268*
X02449761Y01872451*
X02449601Y01872623*
X0244943Y01872784*
X02449248Y01872933*
X02449056Y01873068*
X02448855Y0187319*
X02448646Y01873298*
X02448431Y0187339*
X02448209Y01873468*
X02447982Y01873529*
X02447752Y01873575*
X02447519Y01873605*
X02447284Y01873618*
X02447049Y01873615*
X02446815Y01873595*
X02446583Y0187356*
X02446354Y01873508*
X02446129Y0187344*
X02445909Y01873357*
X02445696Y01873258*
X0244549Y01873145*
X02445293Y01873018*
X02445104Y01872878*
X02444926Y01872724*
X0244476Y01872559*
X02444605Y01872382*
X02444462Y01872195*
X02444334Y01871999*
X02444219Y01871794*
X02444119Y01871581*
X02444034Y01871362*
X02443964Y01871138*
X0244391Y0187091*
X024186Y01881394D02*
D01*
X02418724Y01881594*
X02418833Y01881802*
X02418928Y01882017*
X02419007Y01882238*
X02419071Y01882464*
X02419119Y01882694*
X02419151Y01882927*
X02419166Y01883162*
X02419165Y01883397*
X02419148Y01883631*
X02419114Y01883864*
X02419064Y01884093*
X02418998Y01884319*
X02418917Y01884539*
X0241882Y01884753*
X02418709Y0188496*
X02418584Y01885159*
X02418445Y01885349*
X02418293Y01885528*
X02418129Y01885696*
X02417954Y01885852*
X02417768Y01885996*
X02417573Y01886127*
X02417369Y01886244*
X02417157Y01886345*
X02416939Y01886433*
X02416715Y01886504*
X02416487Y0188656*
X02416255Y018866*
X02416021Y01886623*
X02415786Y0188663*
X02415552Y01886621*
X02415318Y01886596*
X02415087Y01886554*
X02414859Y01886496*
X02414636Y01886422*
X02414419Y01886334*
X02414208Y0188623*
X02414005Y01886111*
X02413811Y01885979*
X02413626Y01885833*
X02413452Y01885675*
X0241329Y01885506*
X0241314Y01885325*
X02413002Y01885134*
X02393631Y01904506D02*
D01*
X02393822Y01904644*
X02394003Y01904794*
X02394173Y01904956*
X02394331Y0190513*
X02394476Y01905315*
X02394608Y01905509*
X02394726Y01905712*
X0239483Y01905923*
X0239492Y0190614*
X02394993Y01906363*
X02395051Y01906591*
X02395093Y01906822*
X02395118Y01907056*
X02395128Y01907291*
X0239512Y01907525*
X02395097Y01907759*
X02395057Y01907991*
X02395001Y01908219*
X0239493Y01908443*
X02394843Y01908661*
X0239474Y01908872*
X02394624Y01909076*
X02394493Y01909272*
X0239435Y01909458*
X02394193Y01909633*
X02394025Y01909797*
X02393846Y01909949*
X02393656Y01910088*
X02393457Y01910213*
X0239325Y01910324*
X02393036Y01910421*
X02392816Y01910502*
X0239259Y01910568*
X0239236Y01910618*
X02392128Y01910652*
X02391894Y01910669*
X02391659Y0191067*
X02391424Y01910655*
X02391192Y01910623*
X02390961Y01910575*
X02390735Y01910511*
X02390514Y01910432*
X02390299Y01910337*
X02390091Y01910228*
X02389891Y01910104*
X0238989Y01910103*
X02393631Y01904506D02*
D01*
X02393822Y01904644*
X02394003Y01904794*
X02394173Y01904956*
X02394331Y0190513*
X02394476Y01905315*
X02394608Y01905509*
X02394726Y01905712*
X0239483Y01905923*
X0239492Y0190614*
X02394993Y01906363*
X02395051Y01906591*
X02395093Y01906822*
X02395118Y01907056*
X02395128Y01907291*
X0239512Y01907525*
X02395097Y01907759*
X02395057Y01907991*
X02395001Y01908219*
X0239493Y01908443*
X02394843Y01908661*
X0239474Y01908872*
X02394624Y01909076*
X02394493Y01909272*
X0239435Y01909458*
X02394193Y01909633*
X02394025Y01909797*
X02393846Y01909949*
X02393656Y01910088*
X02393457Y01910213*
X0239325Y01910324*
X02393036Y01910421*
X02392816Y01910502*
X0239259Y01910568*
X0239236Y01910618*
X02392128Y01910652*
X02391894Y01910669*
X02391659Y0191067*
X02391424Y01910655*
X02391192Y01910623*
X02390961Y01910575*
X02390735Y01910511*
X02390514Y01910432*
X02390299Y01910337*
X02390091Y01910228*
X02389891Y01910104*
X0238989Y01910103*
X0241324Y01924067D02*
D01*
X02415572Y01920589*
X02418141Y01917281*
X02420934Y01914161*
X02423939Y01911243*
X02427139Y01908542*
X0243052Y01906071*
X02432566Y01904741*
X02397434Y01942175D02*
D01*
X02398541Y0193756*
X02399968Y01933033*
X02401706Y01928616*
X02403749Y01924332*
X02406085Y01920201*
X02408704Y01916242*
X02411592Y01912476*
X02414736Y0190892*
X02418121Y01905593*
X02421729Y0190251*
X02425544Y01899685*
X02429547Y01897134*
X02433717Y01894869*
X02438036Y01892899*
X02442481Y01891236*
X02447032Y01889887*
X02450583Y01889068*
X02405859Y01942031D02*
D01*
X02405849Y01942325*
X02405818Y01942618*
X02405767Y01942907*
X02405696Y01943193*
X02405605Y01943473*
X02405495Y01943745*
X02405366Y0194401*
X02405219Y01944264*
X02405055Y01944508*
X02404874Y0194474*
X02404677Y01944959*
X02404465Y01945163*
X0240424Y01945352*
X02404002Y01945525*
X02403752Y01945681*
X02403493Y01945819*
X02403224Y01945938*
X02402947Y01946039*
X02402665Y0194612*
X02402377Y01946181*
X02402086Y01946222*
X02401793Y01946243*
X02401498*
X02401205Y01946222*
X02400914Y01946181*
X02400626Y0194612*
X02400343Y01946039*
X02400067Y01945938*
X02399798Y01945819*
X02399538Y01945681*
X02399289Y01945525*
X02399051Y01945352*
X02398826Y01945163*
X02398614Y01944959*
X02398417Y0194474*
X02398236Y01944508*
X02398072Y01944264*
X02397925Y0194401*
X02397796Y01943745*
X02397686Y01943473*
X02397595Y01943193*
X02397524Y01942907*
X02397472Y01942618*
X02397442Y01942325*
X02397434Y01942175*
X02446841Y01945789D02*
D01*
X02446644Y01946077*
X02446427Y01946351*
X02446192Y01946609*
X02445939Y01946849*
X0244567Y01947072*
X02445386Y01947275*
X02445089Y01947458*
X0244478Y01947619*
X0244446Y01947759*
X02444131Y01947876*
X02443795Y0194797*
X02443453Y0194804*
X02443107Y01948086*
X02442758Y01948108*
X02442409Y01948106*
X02442061Y01948079*
X02441716Y01948028*
X02441375Y01947953*
X0244104Y01947854*
X02440713Y01947733*
X02440395Y01947588*
X02440088Y01947422*
X02439794Y01947235*
X02439513Y01947028*
X02439247Y01946802*
X02438998Y01946558*
X02438766Y01946297*
X02438553Y0194602*
X0243836Y01945729*
X02438187Y01945426*
X02438037Y01945111*
X02437908Y01944786*
X02437803Y01944454*
X02437721Y01944114*
X02437662Y0194377*
X02437628Y01943423*
X02437619Y01943074*
X02437633Y01942725*
X02437672Y01942378*
X02437735Y01942035*
X02437822Y01941697*
X02437932Y01941366*
X02438065Y01941043*
X02438221Y0194073*
X02438397Y01940429*
X02438558Y0194019*
X02438352Y01970924D02*
D01*
X02438181Y0197062*
X02438031Y01970305*
X02437904Y0196998*
X024378Y01969647*
X02437719Y01969307*
X02437662Y01968963*
X02437629Y01968615*
X02437621Y01968266*
X02437636Y01967918*
X02437677Y01967571*
X02437741Y01967228*
X02437829Y0196689*
X0243794Y01966559*
X02438075Y01966237*
X02438231Y01965925*
X02438409Y01965624*
X02438607Y01965337*
X02438825Y01965064*
X02439061Y01964807*
X02439315Y01964568*
X02439584Y01964346*
X02439869Y01964144*
X02440167Y01963962*
X02440477Y01963802*
X02440797Y01963663*
X02441126Y01963547*
X02441463Y01963454*
X02441805Y01963385*
X02442151Y01963341*
X024425Y0196332*
X02442849Y01963323*
X02443197Y01963352*
X02443542Y01963404*
X02443883Y0196348*
X02444217Y0196358*
X02444544Y01963703*
X02444861Y01963848*
X02445168Y01964015*
X02445462Y01964203*
X02445742Y01964411*
X02446007Y01964639*
X02446255Y01964884*
X02446486Y01965146*
X02446698Y01965423*
X0244689Y01965714*
X02446988Y01965883*
X02397562Y01969345D02*
D01*
X02397573Y01969051*
X02397603Y01968759*
X02397654Y01968469*
X02397726Y01968184*
X02397816Y01967904*
X02397927Y01967631*
X02398056Y01967367*
X02398203Y01967112*
X02398367Y01966869*
X02398548Y01966637*
X02398745Y01966418*
X02398957Y01966214*
X02399182Y01966025*
X0239942Y01965852*
X02399669Y01965696*
X02399929Y01965558*
X02400198Y01965438*
X02400474Y01965338*
X02400757Y01965256*
X02401045Y01965195*
X02401336Y01965155*
X02401629Y01965134*
X02401923*
X02402217Y01965155*
X02402508Y01965195*
X02402796Y01965256*
X02403079Y01965338*
X02403355Y01965438*
X02403624Y01965558*
X02403883Y01965696*
X02404133Y01965852*
X02404371Y01966025*
X02404596Y01966214*
X02404808Y01966418*
X02405005Y01966637*
X02405185Y01966869*
X0240535Y01967112*
X02405497Y01967367*
X02405626Y01967631*
X02405736Y01967904*
X02405827Y01968184*
X02405898Y01968469*
X02405949Y01968759*
X0240598Y01969051*
X02405987Y01969202*
X02378094Y01969411D02*
D01*
X02378326Y01969374*
X0237856Y01969352*
X02378795Y01969347*
X0237903Y01969359*
X02379263Y01969386*
X02379494Y0196943*
X02379721Y0196949*
X02379943Y01969565*
X0238016Y01969656*
X0238037Y01969762*
X02380572Y01969882*
X02380765Y01970016*
X02380948Y01970163*
X0238112Y01970323*
X02381281Y01970494*
X0238143Y01970676*
X02381565Y01970868*
X02381687Y01971068*
X02381795Y01971277*
X02381887Y01971493*
X02381965Y01971715*
X02382026Y01971941*
X02382072Y01972172*
X02382102Y01972405*
X02382115Y01972639*
X02382112Y01972874*
X02382093Y01973109*
X02382057Y01973341*
X02382005Y0197357*
X02381937Y01973795*
X02381854Y01974014*
X02381755Y01974228*
X02381642Y01974434*
X02381515Y01974631*
X02381375Y0197482*
X02381221Y01974997*
X02381056Y01975164*
X02380879Y01975319*
X02380692Y01975461*
X02380496Y0197559*
X02380291Y01975705*
X02380078Y01975805*
X02379859Y0197589*
X02379635Y01975959*
X02379406Y01976013*
Y01976014*
X02187956Y01986823D02*
D01*
X02187593Y01983406*
X02187272Y01979984*
X02186993Y01976558*
X02186756Y0197313*
X02186562Y01969698*
X02389891Y02001324D02*
D01*
X02390091Y02001201*
X02390299Y02001091*
X02390514Y02000997*
X02390735Y02000917*
X02390961Y02000854*
X02391192Y02000806*
X02391424Y02000774*
X02391659Y02000759*
X02391894Y0200076*
X02392128Y02000777*
X0239236Y02000811*
X0239259Y02000861*
X02392816Y02000927*
X02393036Y02001008*
X0239325Y02001104*
X02393457Y02001216*
X02393656Y02001341*
X02393846Y0200148*
X02394025Y02001632*
X02394193Y02001796*
X0239435Y02001971*
X02394493Y02002157*
X02394624Y02002352*
X0239474Y02002556*
X02394843Y02002768*
X0239493Y02002986*
X02395001Y0200321*
X02395057Y02003438*
X02395097Y0200367*
X0239512Y02003903*
X02395128Y02004138*
X02395118Y02004373*
X02395093Y02004607*
X02395051Y02004838*
X02394993Y02005066*
X0239492Y02005289*
X0239483Y02005506*
X02394726Y02005717*
X02394608Y0200592*
X02394476Y02006114*
X02394331Y02006299*
X02394173Y02006473*
X02394003Y02006635*
X02393822Y02006785*
X02393631Y02006922*
X0239363*
X02389891Y02001324D02*
D01*
X02390091Y02001201*
X02390299Y02001091*
X02390514Y02000997*
X02390735Y02000917*
X02390961Y02000854*
X02391192Y02000806*
X02391424Y02000774*
X02391659Y02000759*
X02391894Y0200076*
X02392128Y02000777*
X0239236Y02000811*
X0239259Y02000861*
X02392816Y02000927*
X02393036Y02001008*
X0239325Y02001104*
X02393457Y02001216*
X02393656Y02001341*
X02393846Y0200148*
X02394025Y02001632*
X02394193Y02001796*
X0239435Y02001971*
X02394493Y02002157*
X02394624Y02002352*
X0239474Y02002556*
X02394843Y02002768*
X0239493Y02002986*
X02395001Y0200321*
X02395057Y02003438*
X02395097Y0200367*
X0239512Y02003903*
X02395128Y02004138*
X02395118Y02004373*
X02395093Y02004607*
X02395051Y02004838*
X02394993Y02005066*
X0239492Y02005289*
X0239483Y02005506*
X02394726Y02005717*
X02394608Y0200592*
X02394476Y02006114*
X02394331Y02006299*
X02394173Y02006473*
X02394003Y02006635*
X02393822Y02006785*
X02393631Y02006922*
X0239363*
X02220893Y02090175D02*
D01*
X02212107Y02072875*
X02204548Y02055003*
X02198255Y02036648*
X02197083Y02032691*
X0229087Y02173054D02*
D01*
X02276132Y02160433*
X0226231Y02146814*
X02249471Y02132265*
X02246874Y02129058*
X02387237Y02222846D02*
D01*
X02368791Y02216826*
X02350809Y02209534*
X0233338Y02201004*
X02329753Y02199036*
X02413002Y02026293D02*
D01*
X0241314Y02026103*
X0241329Y02025922*
X02413452Y02025752*
X02413626Y02025594*
X02413811Y02025449*
X02414005Y02025317*
X02414208Y02025198*
X02414419Y02025094*
X02414636Y02025005*
X02414859Y02024932*
X02415087Y02024874*
X02415318Y02024832*
X02415552Y02024806*
X02415786Y02024797*
X02416021Y02024804*
X02416255Y02024828*
X02416487Y02024868*
X02416715Y02024924*
X02416939Y02024995*
X02417157Y02025082*
X02417369Y02025184*
X02417573Y02025301*
X02417768Y02025431*
X02417954Y02025575*
X02418129Y02025732*
X02418293Y020259*
X02418445Y02026079*
X02418584Y02026269*
X02418709Y02026467*
X0241882Y02026674*
X02418917Y02026889*
X02418998Y02027109*
X02419064Y02027335*
X02419114Y02027564*
X02419148Y02027797*
X02419165Y02028031*
X02419166Y02028266*
X02419151Y020285*
X02419119Y02028733*
X02419071Y02028963*
X02419007Y02029189*
X02418928Y0202941*
X02418833Y02029626*
X02418724Y02029834*
X024186Y02030033*
X02418599*
X02413002Y02026293D02*
D01*
X0241314Y02026103*
X0241329Y02025922*
X02413452Y02025752*
X02413626Y02025594*
X02413811Y02025449*
X02414005Y02025317*
X02414208Y02025198*
X02414419Y02025094*
X02414636Y02025005*
X02414859Y02024932*
X02415087Y02024874*
X02415318Y02024832*
X02415552Y02024806*
X02415786Y02024797*
X02416021Y02024804*
X02416255Y02024828*
X02416487Y02024868*
X02416715Y02024924*
X02416939Y02024995*
X02417157Y02025082*
X02417369Y02025184*
X02417573Y02025301*
X02417768Y02025431*
X02417954Y02025575*
X02418129Y02025732*
X02418293Y020259*
X02418445Y02026079*
X02418584Y02026269*
X02418709Y02026467*
X0241882Y02026674*
X02418917Y02026889*
X02418998Y02027109*
X02419064Y02027335*
X02419114Y02027564*
X02419148Y02027797*
X02419165Y02028031*
X02419166Y02028266*
X02419151Y020285*
X02419119Y02028733*
X02419071Y02028963*
X02419007Y02029189*
X02418928Y0202941*
X02418833Y02029626*
X02418724Y02029834*
X024186Y02030033*
X02418599*
X02432561Y02006688D02*
D01*
X02429083Y02004356*
X02425775Y02001788*
X02422655Y01998994*
X02419737Y0199599*
X02417036Y0199279*
X02414565Y01989409*
X02413235Y01987361*
X02450669Y02022493D02*
D01*
X02446054Y02021386*
X02441527Y0201996*
X0243711Y02018222*
X02432826Y02016179*
X02428694Y02013843*
X02424736Y02011224*
X0242097Y02008336*
X02417414Y02005191*
X02414087Y02001807*
X02411004Y01998198*
X02408179Y01994384*
X02405628Y01990381*
X02403363Y01986211*
X02401393Y01981892*
X0239973Y01977447*
X02398381Y01972896*
X02397562Y01969345*
X0244391Y02040517D02*
D01*
X02443964Y02040289*
X02444034Y02040064*
X02444119Y02039845*
X02444219Y02039633*
X02444334Y02039428*
X02444463Y02039232*
X02444605Y02039044*
X0244476Y02038868*
X02444927Y02038703*
X02445105Y02038549*
X02445293Y02038409*
X02445491Y02038282*
X02445697Y02038169*
X0244591Y0203807*
X0244613Y02037987*
X02446355Y02037919*
X02446584Y02037868*
X02446816Y02037832*
X0244705Y02037813*
X02447285Y02037809*
X0244752Y02037823*
X02447753Y02037852*
X02447983Y02037898*
X0244821Y0203796*
X02448431Y02038038*
X02448647Y0203813*
X02448856Y02038238*
X02449057Y0203836*
X02449249Y02038496*
X02449431Y02038644*
X02449602Y02038805*
X02449761Y02038978*
X02449908Y02039161*
X02450042Y02039354*
X02450162Y02039556*
X02450268Y02039766*
X02450359Y02039982*
X02450435Y02040205*
X02450494Y02040432*
X02450538Y02040663*
X02450566Y02040896*
X02450577Y02041131*
X02450572Y02041365*
X0245055Y02041599*
X02450512Y02041831*
X02433105Y01679462D02*
D01*
X02452452Y01677965*
X02471855Y01677821*
X02491222Y01679031*
X02495325Y01679462*
X02484511Y01870911D02*
D01*
X02484458Y0187114*
X02484388Y01871364*
X02484303Y01871583*
X02484202Y01871796*
X02484087Y01872001*
X02483959Y01872197*
X02483816Y01872384*
X02483662Y01872561*
X02483495Y01872726*
X02483317Y01872879*
X02483129Y0187302*
X02482931Y01873147*
X02482725Y0187326*
X02482512Y01873358*
X02482292Y01873442*
X02482067Y01873509*
X02481838Y01873561*
X02481606Y01873597*
X02481371Y01873616*
X02481137Y01873619*
X02480902Y01873606*
X02480669Y01873576*
X02480439Y0187353*
X02480212Y01873469*
X0247999Y01873391*
X02479774Y01873298*
X02479566Y01873191*
X02479365Y01873069*
X02479173Y01872933*
X02478991Y01872785*
X0247882Y01872624*
X0247866Y01872451*
X02478513Y01872268*
X02478379Y01872075*
X02478259Y01871873*
X02478154Y01871663*
X02478063Y01871446*
X02477987Y01871224*
X02477927Y01870997*
X02477884Y01870766*
X02477856Y01870533*
X02477845Y01870298*
X0247785Y01870063*
X02477872Y01869829*
X02477908Y01869597*
X02515418Y01885134D02*
D01*
X02515281Y01885325*
X02515131Y01885506*
X02514968Y01885675*
X02514795Y01885833*
X0251461Y01885979*
X02514416Y01886111*
X02514213Y0188623*
X02514002Y01886334*
X02513785Y01886422*
X02513561Y01886496*
X02513334Y01886554*
X02513103Y01886596*
X02512869Y01886621*
X02512634Y0188663*
X02512399Y01886623*
X02512166Y018866*
X02511934Y0188656*
X02511706Y01886504*
X02511482Y01886433*
X02511264Y01886345*
X02511052Y01886244*
X02510848Y01886127*
X02510653Y01885996*
X02510467Y01885852*
X02510292Y01885696*
X02510128Y01885528*
X02509976Y01885349*
X02509837Y01885159*
X02509712Y0188496*
X02509601Y01884753*
X02509504Y01884539*
X02509422Y01884319*
X02509357Y01884093*
X02509307Y01883864*
X02509273Y01883631*
X02509256Y01883397*
X02509255Y01883162*
X0250927Y01882927*
X02509302Y01882694*
X0250935Y01882464*
X02509413Y01882238*
X02509493Y01882017*
X02509587Y01881802*
X02509697Y01881594*
X0250982Y01881394*
X02509821*
X02477898Y01897361D02*
D01*
X02477604Y01897351*
X02477312Y0189732*
X02477022Y01897269*
X02476737Y01897198*
X02476457Y01897107*
X02476184Y01896997*
X0247592Y01896868*
X02475665Y01896721*
X02475422Y01896557*
X0247519Y01896375*
X02474971Y01896179*
X02474767Y01895967*
X02474578Y01895742*
X02474405Y01895504*
X02474249Y01895254*
X02474111Y01894995*
X02473991Y01894726*
X02473891Y0189445*
X0247381Y01894167*
X02473748Y01893879*
X02473708Y01893588*
X02473687Y01893294*
Y01893*
X02473708Y01892707*
X02473748Y01892416*
X0247381Y01892128*
X02473891Y01891845*
X02473991Y01891569*
X02474111Y018913*
X02474249Y0189104*
X02474405Y01890791*
X02474578Y01890553*
X02474767Y01890328*
X02474971Y01890116*
X0247519Y01889919*
X02475422Y01889738*
X02475665Y01889574*
X0247592Y01889427*
X02476184Y01889298*
X02476457Y01889187*
X02476737Y01889097*
X02477022Y01889025*
X02477312Y01888974*
X02477604Y01888944*
X02477755Y01888936*
X02450583Y01889068D02*
D01*
X02450877Y01889079*
X0245117Y01889109*
X02451459Y01889161*
X02451745Y01889232*
X02452025Y01889323*
X02452297Y01889433*
X02452562Y01889562*
X02452817Y01889709*
X0245306Y01889873*
X02453292Y01890054*
X02453511Y01890251*
X02453715Y01890463*
X02453904Y01890688*
X02454077Y01890926*
X02454233Y01891175*
X02454371Y01891435*
X0245449Y01891704*
X02454591Y0189198*
X02454672Y01892263*
X02454733Y01892551*
X02454774Y01892842*
X02454795Y01893135*
Y0189343*
X02454774Y01893723*
X02454733Y01894014*
X02454672Y01894302*
X02454591Y01894584*
X0245449Y01894861*
X02454371Y0189513*
X02454233Y01895389*
X02454077Y01895639*
X02453904Y01895877*
X02453715Y01896102*
X02453511Y01896314*
X02453292Y01896511*
X0245306Y01896692*
X02452817Y01896856*
X02452562Y01897003*
X02452297Y01897132*
X02452025Y01897242*
X02451745Y01897333*
X02451459Y01897404*
X0245117Y01897455*
X02450877Y01897486*
X02450726Y01897492*
X02495863Y01904742D02*
D01*
X02499342Y01907074*
X0250265Y01909643*
X0250577Y01912436*
X02508688Y01915441*
X02511389Y01918641*
X0251386Y01922022*
X02515189Y01924069*
X02477755Y01888936D02*
D01*
X02482371Y01890043*
X02486898Y0189147*
X02491314Y01893208*
X02495599Y0189525*
X0249973Y01897587*
X02503689Y01900206*
X02507455Y01903094*
X0251101Y01906238*
X02514338Y01909623*
X02517421Y01913231*
X02520245Y01917046*
X02522796Y01921048*
X02525062Y01925219*
X02527031Y01929538*
X02528694Y01933983*
X02530044Y01938534*
X02530862Y01942085*
X02438303Y01940588D02*
D01*
X02439422Y01938818*
X02440661Y0193713*
X02442014Y01935532*
X02443476Y01934033*
X02445039Y0193264*
X02446696Y01931358*
X02448437Y01930196*
X02450256Y01929158*
X02452142Y01928249*
X02454088Y01927474*
X02456082Y01926836*
X02458116Y0192634*
X0246018Y01925986*
X02462264Y01925777*
X02464357Y01925714*
X02466449Y01925798*
X02468531Y01926027*
X02470591Y019264*
X0247262Y01926917*
X02474609Y01927573*
X02476546Y01928367*
X02478424Y01929294*
X02480232Y0193035*
X02481963Y01931529*
X02483606Y01932826*
X02485156Y01934235*
X02486603Y01935748*
X02487941Y01937359*
X02489164Y01939059*
X02490068Y01940503*
X02446849Y01945793D02*
D01*
X02447584Y01944606*
X02448399Y01943473*
X02449292Y019424*
X02450257Y01941391*
X02451291Y01940453*
X02452387Y01939588*
X0245354Y01938803*
X02454746Y01938099*
X02455998Y01937482*
X0245729Y01936953*
X02458616Y01936516*
X02459969Y01936172*
X02461343Y01935923*
X0246273Y01935771*
X02464125Y01935716*
X02465521Y01935759*
X0246691Y01935899*
X02468286Y01936135*
X02469642Y01936467*
X02470971Y01936892*
X02472268Y01937409*
X02473525Y01938016*
X02474737Y01938708*
X02475898Y01939484*
X02477002Y01940338*
X02478044Y01941268*
X02479018Y01942268*
X0247992Y01943333*
X02480745Y01944459*
X0248149Y01945639*
X02481564Y01945768*
X02490068Y01940503D02*
D01*
X0249024Y01940807*
X02490389Y01941123*
X02490517Y01941448*
X02490621Y01941781*
X02490702Y01942121*
X02490759Y01942465*
X02490792Y01942812*
X024908Y01943161*
X02490784Y0194351*
X02490744Y01943857*
X0249068Y019442*
X02490592Y01944538*
X0249048Y01944869*
X02490346Y01945191*
X0249019Y01945503*
X02490012Y01945803*
X02489814Y01946091*
X02489596Y01946363*
X0248936Y0194662*
X02489106Y0194686*
X02488836Y01947082*
X02488552Y01947284*
X02488254Y01947466*
X02487944Y01947626*
X02487623Y01947765*
X02487294Y01947881*
X02486958Y01947974*
X02486616Y01948042*
X02486269Y01948087*
X02485921Y01948108*
X02485572Y01948104*
X02485224Y01948076*
X02484879Y01948024*
X02484538Y01947948*
X02484204Y01947848*
X02483877Y01947725*
X02483559Y0194758*
X02483253Y01947413*
X02482959Y01947224*
X02482679Y01947016*
X02482414Y01946789*
X02482165Y01946544*
X02481934Y01946282*
X02481723Y01946005*
X0248153Y01945713*
X02481432Y01945544*
X0248158Y01965639D02*
D01*
X02481777Y01965351*
X02481994Y01965078*
X02482229Y0196482*
X02482482Y0196458*
X02482751Y01964357*
X02483034Y01964154*
X02483332Y01963971*
X02483641Y01963809*
X02483961Y0196367*
X0248429Y01963553*
X02484626Y01963459*
X02484968Y01963389*
X02485314Y01963343*
X02485662Y0196332*
X02486011Y01963323*
X02486359Y0196335*
X02486705Y01963401*
X02487046Y01963476*
X0248738Y01963574*
X02487708Y01963696*
X02488025Y0196384*
X02488332Y01964006*
X02488627Y01964193*
X02488908Y01964401*
X02489174Y01964627*
X02489423Y01964871*
X02489655Y01965132*
X02489868Y01965409*
X02490061Y01965699*
X02490233Y01966003*
X02490384Y01966318*
X02490513Y01966642*
X02490618Y01966975*
X024907Y01967314*
X02490758Y01967659*
X02490792Y01968006*
X02490802Y01968355*
X02490787Y01968703*
X02490748Y0196905*
X02490685Y01969394*
X02490599Y01969732*
X02490488Y01970063*
X02490355Y01970386*
X024902Y01970698*
X02490023Y01970999*
X02489862Y01971237*
X02481575Y01965636D02*
D01*
X02480841Y01966824*
X02480025Y01967956*
X02479133Y0196903*
X02478168Y01970038*
X02477134Y01970977*
X02476038Y01971841*
X02474884Y01972627*
X02473678Y01973331*
X02472426Y01973948*
X02471134Y01974477*
X02469809Y01974914*
X02468456Y01975258*
X02467082Y01975506*
X02465694Y01975658*
X02464299Y01975713*
X02462904Y01975671*
X02461515Y01975531*
X02460139Y01975295*
X02458783Y01974963*
X02457454Y01974538*
X02456157Y0197402*
X02454899Y01973414*
X02453688Y01972721*
X02452526Y01971946*
X02451423Y01971092*
X02450381Y01970162*
X02449407Y01969162*
X02448505Y01968097*
X02447679Y01966971*
X02446988Y01965883*
X02541191Y01688586D02*
D01*
X02559638Y01694607*
X02577619Y01701899*
X02595049Y01710428*
X02598674Y01712396*
X02637558Y01738378D02*
D01*
X02652297Y01751*
X02666119Y01764618*
X02678958Y01779168*
X02681553Y01782374*
X02707534Y01821257D02*
D01*
X02716321Y01838558*
X02723879Y0185643*
X02730173Y01874785*
X02731345Y01878741*
X02538529Y01910104D02*
D01*
X02538329Y01910228*
X02538122Y01910337*
X02537907Y01910432*
X02537685Y01910511*
X02537459Y01910575*
X02537229Y01910623*
X02536996Y01910655*
X02536762Y0191067*
X02536527Y01910669*
X02536293Y01910652*
X0253606Y01910618*
X02535831Y01910568*
X02535605Y01910502*
X02535385Y01910421*
X0253517Y01910324*
X02534963Y01910213*
X02534765Y01910088*
X02534575Y01909949*
X02534396Y01909797*
X02534228Y01909633*
X02534071Y01909458*
X02533927Y01909272*
X02533797Y01909076*
X0253368Y01908872*
X02533578Y01908661*
X02533491Y01908443*
X0253342Y01908219*
X02533364Y01907991*
X02533324Y01907759*
X025333Y01907525*
X02533293Y01907291*
X02533303Y01907056*
X02533328Y01906822*
X0253337Y01906591*
X02533428Y01906363*
X02533501Y0190614*
X0253359Y01905923*
X02533694Y01905712*
X02533813Y01905509*
X02533945Y01905315*
X0253409Y0190513*
X02534248Y01904956*
X02534418Y01904794*
X02534599Y01904644*
X02534789Y01904506*
X0253479*
X02550326Y01942016D02*
D01*
X02550094Y01942054*
X02549861Y01942076*
X02549626Y01942081*
X02549391Y01942069*
X02549158Y01942042*
X02548927Y01941998*
X025487Y01941938*
X02548478Y01941863*
X02548261Y01941772*
X02548051Y01941666*
X02547849Y01941546*
X02547656Y01941412*
X02547473Y01941265*
X025473Y01941105*
X0254714Y01940934*
X02546991Y01940752*
X02546855Y0194056*
X02546734Y01940359*
X02546626Y01940151*
X02546533Y01939935*
X02546456Y01939713*
X02546394Y01939486*
X02546348Y01939256*
X02546319Y01939023*
X02546306Y01938788*
X02546309Y01938553*
X02546328Y01938319*
X02546364Y01938087*
X02546416Y01937858*
X02546484Y01937633*
X02546567Y01937413*
X02546665Y019372*
X02546778Y01936994*
X02546906Y01936796*
X02547046Y01936608*
X02547199Y0193643*
X02547365Y01936264*
X02547542Y01936109*
X02547728Y01935967*
X02547925Y01935838*
X0254813Y01935723*
X02548342Y01935623*
X02548561Y01935538*
X02548786Y01935468*
X02549014Y01935414*
Y01935413*
X02530862Y01942085D02*
D01*
X02530852Y01942379*
X02530821Y01942672*
X0253077Y01942962*
X02530699Y01943247*
X02530608Y01943527*
X02530498Y01943799*
X02530369Y01944064*
X02530222Y01944318*
X02530058Y01944562*
X02529877Y01944794*
X0252968Y01945013*
X02529468Y01945217*
X02529243Y01945406*
X02529005Y01945579*
X02528755Y01945735*
X02528496Y01945873*
X02528227Y01945993*
X02527951Y01946093*
X02527668Y01946174*
X0252738Y01946235*
X02527089Y01946276*
X02526796Y01946297*
X02526501*
X02526208Y01946276*
X02525917Y01946235*
X02525629Y01946174*
X02525346Y01946093*
X0252507Y01945993*
X02524801Y01945873*
X02524541Y01945735*
X02524292Y01945579*
X02524054Y01945406*
X02523829Y01945217*
X02523617Y01945013*
X0252342Y01944794*
X02523239Y01944562*
X02523075Y01944318*
X02522928Y01944064*
X02522799Y01943799*
X02522688Y01943527*
X02522598Y01943247*
X02522527Y01942962*
X02522475Y01942672*
X02522445Y01942379*
X02522437Y01942228*
X02740468Y01924607D02*
D01*
X02741966Y01943954*
X02742109Y01963357*
X027409Y01982724*
X02740467Y01986827*
X02522569Y01969401D02*
D01*
X0252258Y01969107*
X0252261Y01968815*
X02522661Y01968525*
X02522733Y0196824*
X02522824Y0196796*
X02522934Y01967687*
X02523063Y01967423*
X0252321Y01967168*
X02523374Y01966924*
X02523555Y01966693*
X02523752Y01966474*
X02523964Y0196627*
X02524189Y01966081*
X02524427Y01965908*
X02524676Y01965752*
X02524936Y01965614*
X02525205Y01965494*
X02525481Y01965394*
X02525764Y01965313*
X02526052Y01965251*
X02526343Y0196521*
X02526636Y0196519*
X0252693*
X02527224Y0196521*
X02527515Y01965251*
X02527803Y01965313*
X02528086Y01965394*
X02528362Y01965494*
X02528631Y01965614*
X0252889Y01965752*
X0252914Y01965908*
X02529378Y01966081*
X02529603Y0196627*
X02529815Y01966474*
X02530011Y01966693*
X02530193Y01966924*
X02530357Y01967168*
X02530504Y01967423*
X02530633Y01967687*
X02530743Y0196796*
X02530834Y0196824*
X02530905Y01968525*
X02530956Y01968815*
X02530987Y01969107*
X02530994Y01969258*
X02549013Y01976014D02*
D01*
X02548785Y0197596*
X0254856Y01975891*
X02548341Y01975806*
X02548129Y01975705*
X02547924Y01975591*
X02547727Y01975462*
X02547541Y0197532*
X02547364Y01975165*
X02547199Y01974998*
X02547045Y0197482*
X02546905Y01974632*
X02546778Y01974434*
X02546665Y01974228*
X02546566Y01974015*
X02546483Y01973795*
X02546416Y0197357*
X02546364Y01973341*
X02546328Y01973109*
X02546309Y01972874*
X02546306Y01972639*
X02546319Y01972405*
X02546348Y01972172*
X02546394Y01971941*
X02546456Y01971715*
X02546534Y01971493*
X02546626Y01971277*
X02546734Y01971068*
X02546856Y01970868*
X02546991Y01970676*
X0254714Y01970494*
X02547301Y01970323*
X02547474Y01970163*
X02547657Y01970016*
X0254785Y01969883*
X02548052Y01969762*
X02548262Y01969657*
X02548478Y01969566*
X02548701Y0196949*
X02548928Y0196943*
X02549159Y01969387*
X02549392Y01969359*
X02549627Y01969348*
X02549862Y01969353*
X02550095Y01969375*
X02550327Y01969412*
X02490196Y01970704D02*
D01*
X02489087Y0197248*
X02487857Y01974175*
X02486512Y0197578*
X02485058Y01977286*
X02483502Y01978688*
X02481852Y01979978*
X02480117Y01981149*
X02478304Y01982197*
X02476422Y01983115*
X02474481Y01983901*
X0247249Y01984548*
X02470458Y01985056*
X02468396Y0198542*
X02466313Y0198564*
X02464221Y01985713*
X02462128Y01985641*
X02460045Y01985423*
X02457983Y0198506*
X02455951Y01984554*
X0245396Y01983908*
X02452018Y01983124*
X02450135Y01982207*
X02448322Y0198116*
X02446585Y0197999*
X02444935Y01978701*
X02443378Y01977301*
X02441923Y01975795*
X02440577Y01974191*
X02439345Y01972498*
X02438352Y01970924*
X02530994Y01969258D02*
D01*
X02529888Y01973874*
X02528461Y01978401*
X02526723Y01982817*
X0252468Y01987102*
X02522344Y01991233*
X02519725Y01995192*
X02516837Y01998958*
X02513692Y02002513*
X02510308Y02005841*
X02506699Y02008924*
X02502885Y02011748*
X02498882Y020143*
X02494712Y02016565*
X02490393Y02018534*
X02485948Y02020198*
X02481397Y02021547*
X02477845Y02022365*
X02515188Y01987365D02*
D01*
X02512857Y01990844*
X02510288Y01994151*
X02507494Y01997272*
X0250449Y0200019*
X0250129Y02002891*
X02497909Y02005362*
X02495861Y02006691*
X02534789Y02006922D02*
D01*
X02534599Y02006785*
X02534418Y02006635*
X02534248Y02006473*
X0253409Y02006299*
X02533945Y02006114*
X02533813Y0200592*
X02533694Y02005717*
X0253359Y02005506*
X02533501Y02005289*
X02533428Y02005066*
X0253337Y02004838*
X02533328Y02004607*
X02533303Y02004373*
X02533293Y02004138*
X025333Y02003903*
X02533324Y0200367*
X02533364Y02003438*
X0253342Y0200321*
X02533491Y02002986*
X02533578Y02002768*
X0253368Y02002556*
X02533797Y02002352*
X02533927Y02002157*
X02534071Y02001971*
X02534228Y02001796*
X02534396Y02001632*
X02534575Y0200148*
X02534765Y02001341*
X02534963Y02001216*
X0253517Y02001104*
X02535385Y02001008*
X02535605Y02000927*
X02535831Y02000861*
X0253606Y02000811*
X02536293Y02000777*
X02536527Y0200076*
X02536762Y02000759*
X02536996Y02000774*
X02537229Y02000806*
X02537459Y02000854*
X02537685Y02000917*
X02537907Y02000997*
X02538122Y02001091*
X02538329Y02001201*
X02538529Y02001324*
X0253853Y02001325*
X02477845Y02022365D02*
D01*
X02477551Y02022355*
X02477259Y02022324*
X02476969Y02022273*
X02476684Y02022202*
X02476404Y02022111*
X02476131Y02022001*
X02475867Y02021872*
X02475612Y02021725*
X02475368Y02021561*
X02475137Y0202138*
X02474918Y02021183*
X02474714Y02020971*
X02474525Y02020746*
X02474352Y02020508*
X02474196Y02020258*
X02474058Y02019999*
X02473938Y0201973*
X02473838Y02019454*
X02473757Y02019171*
X02473695Y02018883*
X02473654Y02018592*
X02473634Y02018298*
Y02018004*
X02473654Y02017711*
X02473695Y0201742*
X02473757Y02017132*
X02473838Y02016849*
X02473938Y02016573*
X02474058Y02016304*
X02474196Y02016044*
X02474352Y02015795*
X02474525Y02015557*
X02474714Y02015332*
X02474918Y0201512*
X02475137Y02014923*
X02475368Y02014742*
X02475612Y02014578*
X02475867Y02014431*
X02476131Y02014302*
X02476404Y02014192*
X02476684Y02014101*
X02476969Y0201403*
X02477259Y02013978*
X02477551Y02013948*
X02477702Y0201394*
X02450525Y02014069D02*
D01*
X02450819Y0201408*
X02451112Y0201411*
X02451402Y02014161*
X02451687Y02014233*
X02451967Y02014323*
X02452239Y02014434*
X02452504Y02014563*
X02452758Y0201471*
X02453002Y02014874*
X02453234Y02015055*
X02453453Y02015252*
X02453657Y02015464*
X02453846Y02015689*
X02454019Y02015927*
X02454175Y02016176*
X02454313Y02016436*
X02454432Y02016705*
X02454533Y02016981*
X02454614Y02017264*
X02454675Y02017552*
X02454716Y02017843*
X02454737Y02018136*
Y02018431*
X02454716Y02018724*
X02454675Y02019015*
X02454614Y02019303*
X02454533Y02019586*
X02454432Y02019862*
X02454313Y02020131*
X02454175Y0202039*
X02454019Y0202064*
X02453846Y02020878*
X02453657Y02021103*
X02453453Y02021315*
X02453234Y02021512*
X02453002Y02021693*
X02452758Y02021857*
X02452504Y02022004*
X02452239Y02022133*
X02451967Y02022243*
X02451687Y02022334*
X02451402Y02022405*
X02451112Y02022456*
X02450819Y02022487*
X02450669Y02022493*
X0250982Y02030033D02*
D01*
X02509697Y02029834*
X02509587Y02029626*
X02509493Y0202941*
X02509413Y02029189*
X0250935Y02028963*
X02509302Y02028733*
X0250927Y020285*
X02509255Y02028266*
X02509256Y02028031*
X02509273Y02027797*
X02509307Y02027564*
X02509357Y02027335*
X02509422Y02027109*
X02509504Y02026889*
X02509601Y02026674*
X02509712Y02026467*
X02509837Y02026269*
X02509976Y02026079*
X02510128Y020259*
X02510292Y02025732*
X02510467Y02025575*
X02510653Y02025431*
X02510848Y02025301*
X02511052Y02025184*
X02511264Y02025082*
X02511482Y02024995*
X02511706Y02024924*
X02511934Y02024868*
X02512166Y02024828*
X02512399Y02024804*
X02512634Y02024797*
X02512869Y02024806*
X02513103Y02024832*
X02513334Y02024874*
X02513561Y02024932*
X02513785Y02025005*
X02514002Y02025094*
X02514213Y02025198*
X02514416Y02025317*
X0251461Y02025449*
X02514795Y02025594*
X02514968Y02025752*
X02515131Y02025922*
X02515281Y02026103*
X02515418Y02026293*
Y02026294*
X02477908Y0204183D02*
D01*
X02477871Y02041598*
X02477849Y02041364*
X02477844Y0204113*
X02477855Y02040895*
X02477883Y02040662*
X02477927Y02040431*
X02477987Y02040204*
X02478062Y02039981*
X02478153Y02039765*
X02478259Y02039555*
X02478379Y02039353*
X02478513Y0203916*
X0247866Y02038977*
X0247882Y02038805*
X02478991Y02038644*
X02479173Y02038495*
X02479365Y02038359*
X02479566Y02038238*
X02479774Y0203813*
X0247999Y02038037*
X02480212Y0203796*
X02480439Y02037898*
X02480669Y02037852*
X02480902Y02037823*
X02481137Y02037809*
X02481371Y02037813*
X02481606Y02037832*
X02481838Y02037868*
X02482067Y0203792*
X02482292Y02037988*
X02482511Y02038071*
X02482725Y02038169*
X02482931Y02038282*
X02483128Y02038409*
X02483316Y0203855*
X02483494Y02038703*
X02483661Y02038869*
X02483816Y02039045*
X02483958Y02039232*
X02484087Y02039429*
X02484202Y02039634*
X02484302Y02039846*
X02484387Y02040065*
X02484457Y0204029*
X0248451Y02040517*
X02495323Y0223197D02*
D01*
X02475977Y02233467*
X02456573Y02233611*
X02437207Y02232401*
X02433103Y0223197*
X02598672Y02199037D02*
D01*
X02581372Y02207824*
X025635Y02215382*
X02545145Y02221676*
X02541189Y02222847*
X02681552Y0212906D02*
D01*
X02668931Y02143799*
X02655312Y02157621*
X02640763Y02170459*
X02637556Y02173056*
X02731344Y02032693D02*
D01*
X02725324Y0205114*
X02718032Y02069122*
X02709503Y02086551*
X02707533Y02090176*
X02390382Y01910258D02*
X02357146Y01896491D01*
X02346742Y01921863D02*
X02200913Y01879842D01*
X02331685Y01715888D02*
X02329755Y01712396D01*
X02293269Y01741383D02*
X02290872Y01738377D01*
X02405084Y01848715D02*
X02331681Y01715885D01*
X02249995Y0178486D02*
X02246875Y01782372D01*
X02387894Y01860028D02*
X02293266Y01741381D01*
X0222426Y01823116D02*
X02220894Y01821256D01*
X02368638Y01879486D02*
X02249991Y01784858D01*
X02357086Y01896516D02*
X02224256Y01823113D01*
X02200917Y01879844D02*
X02197084Y01878739D01*
X02191778Y01925033D02*
X02187956Y01924603D01*
X02379407Y01935413D02*
X02367434Y01930466D01*
X02342587Y01942017D02*
X02191778Y01925033D01*
X02342587Y01942017D02*
X02191778Y01925033D01*
X02378607Y01941971D02*
X02342632D01*
X02378607D02*
X02342632D01*
X02191781Y01925036D02*
X0218796Y01924605D01*
X02380038Y01935605D02*
X02346802Y01921838D01*
X0237875Y01969347D02*
X02342775D01*
X0237875D02*
X02342775D01*
X02433551Y01683427D02*
X02433105Y01679462D01*
X02388303Y0169228D02*
X02387239Y01688585D01*
X02450531Y01834233D02*
X02433548Y01683424D01*
X02430321Y01838107D02*
X023883Y01692278D01*
X02444148Y01871368D02*
X02430381Y01838131D01*
X02450512Y01869597D02*
X02450501Y01856642D01*
X0244391Y0187091D02*
X0243895Y01858965D01*
X02418911Y01881976D02*
X02405144Y0184874D01*
X02413397Y01885466D02*
X02387959Y01860028D01*
X024186Y01881394D02*
X02413632Y0186943D01*
X02413002Y01885134D02*
X02403849Y01875996D01*
X02394141Y01904924D02*
X02368703Y01879486D01*
X02393631Y01904506D02*
X02384462Y01895353D01*
X02450516Y0191278D02*
X02450503Y01897493D01*
X0238989Y01910103D02*
X02377937Y01905164D01*
X02443539Y01915669D02*
X02432524Y01904674D01*
X02450516Y0191278D02*
X02443539Y01915669D01*
X02424168Y01935041D02*
X02413066Y01923959D01*
X02424168Y01935041D02*
X02421277Y01942018D01*
X02405713Y01942031*
X02421277Y01942018D02*
X02405713Y01942031D01*
X02421274Y01969411D02*
X02405987Y01969425D01*
X0234273Y01969392D02*
X02191921Y01986376D01*
X0234273Y01969392D02*
X02191921Y01986376D01*
X02379864Y01975776D02*
X02346628Y01989543D01*
X02191921Y01986376D02*
X02187956Y01986823D01*
X02191924Y01986379D02*
X0218796Y01986825D01*
X02389891Y02001324D02*
X02377926Y02006292D01*
X02390472Y02001013D02*
X02357236Y0201478D01*
X02346603Y01989603D02*
X02200774Y02031624D01*
X0239363Y02006922D02*
X02384493Y02016075D01*
X02393962Y02006527D02*
X02368524Y02031964D01*
X02413002Y02026293D02*
X0240385Y02035461D01*
X02200778Y02031626D02*
X02197083Y02032691D01*
X02413421Y02025783D02*
X02387983Y02051221D01*
X02418755Y02029542D02*
X02404988Y02062778D01*
X02357211Y0201484D02*
X02224381Y02088243D01*
X02368524Y02032029D02*
X02249877Y02126658D01*
X02224385Y02088245D02*
X02220893Y02090175D01*
X02387983Y02051286D02*
X02293354Y02169933D01*
X02249881Y02126661D02*
X02246874Y02129058D01*
X02405012Y02062838D02*
X0233161Y02195667D01*
X02430359Y02073182D02*
X02388338Y0221901D01*
X02293358Y02169935D02*
X0229087Y02173054D01*
X02331613Y0219567D02*
X02329753Y02199036D01*
X02388341Y02219013D02*
X02387237Y02222846D01*
X02418599Y02030033D02*
X0241366Y02041987D01*
X02424163Y01976389D02*
X02413168Y01987403D01*
X02424163Y01976389D02*
X02421274Y01969411D01*
X02433533Y02228148D02*
X02433103Y0223197D01*
X02444101Y02039886D02*
X02430334Y02073122D01*
X02443535Y0199576D02*
X02432453Y02006861D01*
X0244391Y02040517D02*
X02438962Y0205249D01*
X02450513Y02077337D02*
X0243353Y02228146D01*
X02450512Y01998651D02*
X02443535Y0199576D01*
X02450467Y02077291D02*
Y02041317D01*
X02450525Y02014214D02*
X02450512Y01998651D01*
X02495325Y01679462D02*
X02494894Y01683284D01*
X02494891Y01683281D02*
X02477907Y0183409D01*
X02540082Y01692417D02*
X02498061Y01838246D01*
X02477953Y01870111D02*
Y01834136D01*
X02450577Y01834279D02*
Y01870254D01*
X02498086Y01838306D02*
X02484319Y01871542D01*
X02477908Y01869597D02*
X02477897Y01856663D01*
X02489458Y01858937D02*
X0248451Y01870911D01*
X02523432Y0184865D02*
X02509665Y01881886D01*
X0251476Y01869441D02*
X02509821Y01881394D01*
X02524571Y01875966D02*
X02515418Y01885135D01*
X02477912Y01912779D02*
X02477898Y01897216D01*
X02477912Y01912779D02*
X02477898Y01897216D01*
X02495971Y01904569D02*
X02484889Y0191567D01*
X02477912Y01912779*
X02515256Y01924027D02*
X02504261Y01935041D01*
X0250715Y01942019D02*
X02504261Y01935041D01*
X02522437Y01942005D02*
X0250715Y01942019D01*
X02522714Y01969401D02*
X02507151Y01969414D01*
X02522714Y01969401D02*
X02507151Y01969414D01*
X02541191Y01688586D02*
X02540086Y0169242D01*
X02598674Y01712396D02*
X02596814Y01715762D01*
X02637558Y01738378D02*
X0263507Y01741497D01*
X02596811Y0171576D02*
X02523408Y0184859D01*
X02681553Y01782374D02*
X02678547Y01784772D01*
X02635066Y01741495D02*
X02540437Y01860142D01*
X02707534Y01821257D02*
X02704042Y01823187D01*
X02678543Y01784769D02*
X02559896Y01879398D01*
X02704039Y01823185D02*
X02571209Y01896588D01*
X02540437Y01860207D02*
X02514999Y01885644D01*
X02731345Y01878741D02*
X02727649Y01879806D01*
X02559896Y01879463D02*
X02534458Y01904901D01*
X02543927Y01895353D02*
X0253479Y01904506D01*
X02727646Y01879803D02*
X02581817Y01921825D01*
X02571184Y01896648D02*
X02537948Y01910414D01*
X02550494Y01905135D02*
X02538529Y01910104D01*
X02740468Y01924607D02*
X02736503Y01925054D01*
X02581792Y01921885D02*
X02548556Y01935651D01*
X02560958Y01930454D02*
X02549014Y01935413D01*
X027365Y01925051D02*
X02585691Y01942035D01*
X02566012Y01942002D02*
X02550326Y01942016D01*
X02585645Y01942081D02*
X0254967D01*
X02566002Y01969398D02*
X02550327Y01969412D01*
X02585788Y01969456D02*
X02549813D01*
X02507151Y01969414D02*
X0250426Y01976391D01*
X02560986Y01980961D02*
X02549013Y01976014D01*
X02515362Y01987473D02*
X0250426Y01976391D01*
X02484889Y01995763D02*
X02477911Y01998653D01*
X02495903Y02006758D02*
X02484889Y01995763D01*
X02550483Y02006264D02*
X0253853Y02001325D01*
X02477925Y02013939D02*
X02477911Y01998653D01*
X02450525Y02014214D02*
X02450512Y01998651D01*
X02571274Y02014936D02*
X02538038Y02001169D01*
X02543958Y02016074D02*
X02534789Y02006921D01*
X02559717Y02031941D02*
X02534279Y02006503D01*
X02524571Y02035431D02*
X02515418Y02026294D01*
X02514788Y02041998D02*
X0250982Y02030033D01*
X02540461Y020514D02*
X02515023Y02025962D01*
X02523276Y02062688D02*
X02509509Y02029451D01*
X0248947Y02052462D02*
X0248451Y02040517D01*
X02498039Y02073296D02*
X02484272Y0204006D01*
X02477843Y02041174D02*
Y02077148D01*
X0254012Y02219149D02*
X02498099Y02073321D01*
X02494873Y02228003D02*
X02477889Y02077194D01*
X02541189Y02222847D02*
X02540124Y02219152D01*
X02495323Y0223197D02*
X02494876Y02228005D01*
X02596739Y02195542D02*
X02523336Y02062712D01*
X02581618Y01989589D02*
X02548382Y01975823D01*
X02635155Y02170047D02*
X02540526Y020514D01*
X02598672Y02199037D02*
X02596743Y02195545D01*
X0267843Y0212657D02*
X02559782Y02031941D01*
X02637556Y02173056D02*
X02635158Y02170049D01*
X02704164Y02088314D02*
X02571334Y02014911D01*
X02727507Y02031586D02*
X02581678Y01989565D01*
X02736642Y01986394D02*
X02585833Y01969411D01*
X02681552Y0212906D02*
X02678433Y02126572D01*
X02707533Y02090176D02*
X02704167Y02088317D01*
X02731344Y02032693D02*
X0272751Y02031588D01*
X02740467Y01986827D02*
X02736646Y01986397D01*
M02*